<svg width="24" height="24" viewBox="0 0 24 24" fill="none" xmlns="http://www.w3.org/2000/svg">
<rect width="24" height="24" rx="3.75" fill="#BCFE68"/>
<path d="M7.15151 4.5L10.9294 6.66203H13.0574L16.8485 4.5L17.6063 5.25784L14.4578 8.40639C14.2499 8.61427 13.8379 8.78436 13.5431 8.78436H10.4588C10.164 8.78436 9.75198 8.61427 9.5441 8.40639L6.39366 5.25784L7.15151 4.5ZM17.6063 18.7422L14.4578 15.5936C14.2499 15.3857 13.8379 15.2156 13.5431 15.2156H10.4588C10.164 15.2156 9.75198 15.3857 9.5441 15.5936L6.39555 18.7422L7.1534 19.5L10.9445 17.338H13.0725L16.8504 19.5L17.6063 18.7422ZM15.5936 9.54221C15.3857 9.75009 15.2156 10.1621 15.2156 10.4569V13.5412C15.2156 13.836 15.3857 14.248 15.5936 14.4559L18.7422 17.6044L19.5 16.8466L17.338 13.0555V10.9275L19.5 7.14962L18.7422 6.39177L15.5936 9.54221ZM5.25784 17.6063L8.40639 14.4578C8.61427 14.2499 8.78436 13.8379 8.78436 13.5431V10.4588C8.78436 10.164 8.61427 9.75198 8.40639 9.5441L5.25784 6.39366L4.5 7.15151L6.66203 10.9426V13.0706L4.5 16.8485L5.25784 17.6063Z" fill="#072024"/>
</svg>
