<svg width="249" height="40" viewBox="0 0 249 40" fill="none" xmlns="http://www.w3.org/2000/svg">
    <path fill-rule="evenodd" clip-rule="evenodd" d="M6.28394 8.25699L14.5824 0V7.12124L18.1969 7.77617L23.4446 13.4218V17.3264L27.9544 21.6041C27.0591 25.7907 24.7295 27.5979 21.2477 26.6611V32.0912L12.5927 40L3.56477 30.7316L13.3389 34.1471L18.3295 30.1927L14.3088 23.8756L16.1161 21.5627L21.2725 23.8425C22.9223 24.4477 24.3399 24.456 25.1855 22.9969L23.4446 22.2425V19.9212L9.01969 16.257L12.6176 12.858V4.64249L8.59689 9.72435L5.45492 23.3948L12.3109 27.0674H0L6.28394 8.25699ZM23.4446 10.7275V3.23316L18.9679 7.11295L23.4446 10.7275ZM18.172 16.3648L15.5772 14.6155L18.7523 14.3751L19.2497 15.5772L18.172 16.3648V16.3648Z" fill="#1A1523"/>
    <path d="M48.7788 25.0445H51.8959V25.1606C51.614 28.3026 49.2762 31.4694 44.6586 31.4694C40.041 31.4694 36.7581 28.0539 36.7581 23.1544C36.7581 18.2549 39.9332 14.8477 44.6586 14.8477C49.384 14.8477 51.614 18.0145 51.8876 21.1565V21.2642H48.7788L48.7622 21.1813C48.5218 19.6145 47.3031 17.7824 44.6917 17.7824C41.898 17.7824 39.9415 19.9958 39.9415 23.1544C39.9415 26.3129 41.898 28.5347 44.6917 28.5347C47.3031 28.5347 48.5218 26.7026 48.7622 25.1357L48.7788 25.0445V25.0445Z" fill="#1A1523"/>
    <path d="M61.4211 14.8477C56.8201 14.8477 53.6118 18.2632 53.6118 23.1544C53.6118 28.0456 56.8201 31.4694 61.4211 31.4694C66.0222 31.4694 69.2388 28.0539 69.2388 23.1544C69.2388 18.2549 66.0222 14.8477 61.4211 14.8477ZM66.0553 23.1544C66.0553 26.3212 64.1486 28.5347 61.4211 28.5347C58.6937 28.5347 56.7952 26.3212 56.7952 23.1544C56.7952 19.9876 58.702 17.7824 61.4211 17.7824C64.1403 17.7824 66.0553 19.9958 66.0553 23.1544Z" fill="#1A1523"/>
    <path d="M85.9187 21.6622V31.2207H82.7353V22.2839C82.7353 19.1254 81.5996 17.658 79.1623 17.658C76.9073 17.658 74.4783 19.9627 74.4783 23.685V31.2207H71.2866V15.0964H74.4783V16.2487C74.4783 16.8207 74.5032 17.3844 74.0058 18.2217L74.3706 18.5699C75.0338 17.0694 77.0483 14.8477 79.9084 14.8477C83.8462 14.8477 85.9187 17.2021 85.9187 21.6622V21.6622Z" fill="#1A1523"/>
    <path d="M100.36 8.62988V16.4392C100.36 16.9864 100.468 17.3677 100.841 17.9895L100.443 18.3211C99.6719 16.2071 97.5662 14.8475 95.046 14.8475C90.9175 14.8475 87.9165 18.3459 87.9165 23.1625C87.9165 27.9791 90.9175 31.4693 95.046 31.4693C97.4502 31.4693 99.4813 30.2423 100.36 28.2941V31.2206H103.552V8.62988H100.36V8.62988ZM95.6761 28.5345C93.5621 28.5345 91.1082 27.1252 91.1082 23.1625C91.1082 19.1998 93.5621 17.7822 95.6761 17.7822C98.3455 17.7822 100.36 20.0952 100.36 23.1625C100.36 26.2299 98.3455 28.5345 95.6761 28.5345Z" fill="#1A1523"/>
    <path d="M121.044 15.0962V31.2205H117.861V27.9791C116.891 29.662 114.976 31.4692 112.422 31.4692C108.493 31.4692 106.412 29.1148 106.412 24.6547V15.0962H109.604V24.033C109.604 27.1915 110.731 28.6589 113.169 28.6589C115.424 28.6589 117.861 26.3542 117.861 22.6319V15.0962H121.044Z" fill="#1A1523"/>
    <path d="M138.047 31.2205H134.176L134.151 31.1874L128.555 24.0579L126.988 25.6247V31.2205H123.796V8.62158H126.988V21.8278L133.496 15.0962H137.583L137.409 15.2703L130.569 22.0765L138.047 31.2205Z" fill="#1A1523"/>
    <path d="M144.489 17.9067V26.1471C144.489 27.9626 144.887 28.4103 146.503 28.4103H148.974V31.2207H146.254C142.739 31.2207 141.305 29.8445 141.305 26.4538V17.9067H138.321V15.0963H141.305V10.6196H144.489V15.0963H149.181V17.9067H144.489V17.9067Z" fill="#1A1523"/>
    <path d="M158.002 14.8477C153.401 14.8477 150.184 18.2632 150.184 23.1627C150.184 28.0622 153.401 31.4694 158.002 31.4694C162.603 31.4694 165.811 28.0539 165.811 23.1627C165.811 18.2715 162.603 14.8477 158.002 14.8477V14.8477ZM162.628 23.1627C162.628 26.3212 160.721 28.5347 158.002 28.5347C155.283 28.5347 153.368 26.3212 153.368 23.1627C153.368 20.0041 155.274 17.7824 158.002 17.7824C160.729 17.7824 162.628 19.9958 162.628 23.1627V23.1627Z" fill="#1A1523"/>
    <path d="M176.944 14.8477V18.1057H176.837C174.59 17.9399 173.131 18.2632 172.236 19.0922C171.365 19.9129 170.975 21.2725 170.975 23.5026V31.2207H167.784V15.0964H170.975V16.257C170.975 16.8705 170.975 17.2767 170.445 18.1223L170.884 18.4622C171.862 16.0083 172.808 14.8477 176.845 14.8477H176.944Z" fill="#1A1523"/>
    <path d="M197.96 9.4V16.84C197.96 17.38 198.02 17.89 198.23 18.49C198.32 18.76 198.5 19.03 198.23 19.12C198.05 19.18 197.93 18.91 197.9 18.82C197.21 16.75 195.2 15.4 192.74 15.4C188.75 15.4 185.96 18.76 185.96 23.32C185.96 27.88 188.75 31.24 192.74 31.24C195.14 31.24 197.18 29.92 197.9 27.76C197.93 27.67 198.05 27.43 198.26 27.52C198.44 27.61 198.35 27.85 198.26 28.09C198.02 28.75 197.96 29.17 197.96 29.68V31H200.36V9.4H197.96ZM193.1 29.08C189.98 29.08 188.36 26.44 188.36 23.32C188.36 20.2 189.98 17.56 193.1 17.56C195.95 17.56 197.96 20.2 197.96 23.32C197.96 26.44 195.95 29.08 193.1 29.08ZM209.976 15.4C205.476 15.4 202.776 18.97 202.776 23.32C202.776 27.67 205.476 31.24 209.976 31.24C214.476 31.24 217.176 27.67 217.176 23.32C217.176 18.97 214.476 15.4 209.976 15.4ZM209.976 29.08C206.946 29.08 205.176 26.5 205.176 23.32C205.176 20.14 206.946 17.56 209.976 17.56C213.006 17.56 214.776 20.14 214.776 23.32C214.776 26.5 213.006 29.08 209.976 29.08ZM219.095 23.32C219.095 27.67 221.855 31.24 226.385 31.24C230.435 31.24 232.775 28.42 233.015 25.48H230.675C230.375 27.55 228.935 29.08 226.445 29.08C223.025 29.08 221.495 26.44 221.495 23.32C221.495 20.2 223.025 17.56 226.445 17.56C228.935 17.56 230.375 19.09 230.675 21.16H233.015C232.775 18.22 230.405 15.4 226.385 15.4C221.765 15.4 219.095 18.97 219.095 23.32ZM234.944 25.72C235.094 29.11 237.464 31.24 241.394 31.24C245.354 31.24 247.904 29.35 247.904 26.23C247.904 23.77 245.624 22.63 241.994 22.18C238.064 21.7 237.794 20.71 237.794 19.84C237.794 18.82 238.724 17.44 241.394 17.44C244.214 17.44 244.994 18.97 245.084 20.44H247.454C247.244 17.56 245.234 15.4 241.484 15.4C237.524 15.4 235.394 17.83 235.394 20.14C235.394 22.15 237.104 23.77 240.404 24.16C244.484 24.64 245.504 25.18 245.504 26.68C245.504 27.67 244.574 29.2 241.514 29.2C238.394 29.2 237.314 27.37 237.284 25.72H234.944Z" fill="#4C40E7"/>
</svg>
