<svg width="1126" height="204" viewBox="0 0 1126 204" fill="none" xmlns="http://www.w3.org/2000/svg">
<path d="M261.723 80.5688C273.546 80.5688 283.147 90.1846 283.147 101.993C283.147 113.801 273.531 123.416 261.723 123.416C249.915 123.416 240.3 113.801 240.3 101.993C240.3 90.1846 249.915 80.5688 261.723 80.5688ZM261.723 67.7176C242.794 67.7176 227.433 83.0635 227.433 102.008C227.433 120.952 242.779 136.298 261.723 136.298C280.667 136.298 296.013 120.952 296.013 102.008C296.013 83.0635 280.667 67.7176 261.723 67.7176ZM683.318 80.5688C695.141 80.5688 704.742 90.1846 704.742 101.993C704.742 113.801 695.126 123.416 683.318 123.416C671.51 123.416 661.895 113.801 661.895 101.993C661.895 90.1846 671.51 80.5688 683.318 80.5688ZM683.318 67.7176C664.389 67.7176 649.028 83.0635 649.028 102.008C649.028 120.952 664.374 136.298 683.318 136.298C702.263 136.298 717.608 120.952 717.608 102.008C717.608 83.0635 702.263 67.7176 683.318 67.7176ZM207.083 112.289C203.439 118.926 196.379 123.431 188.29 123.431C176.467 123.431 166.866 113.816 166.866 102.008C166.866 90.1997 176.482 80.584 188.29 80.584C196.379 80.584 203.439 85.0894 207.083 91.7267H221.008C216.638 77.8172 203.651 67.7328 188.29 67.7328C169.361 67.7328 154 83.0786 154 102.023C154 120.967 169.346 136.313 188.29 136.313C203.636 136.313 216.638 126.228 221.008 112.319L207.083 112.289ZM431.011 46.2788V75.2318C425.145 70.5298 417.692 67.7025 409.588 67.7025C390.659 67.7025 375.298 83.0484 375.298 101.993C375.298 120.937 390.644 136.283 409.588 136.283C417.692 136.283 425.145 133.455 431.011 128.753V136.283H443.863V46.2788H431.011ZM409.588 124.505C397.749 124.505 388.164 114.436 388.164 102.008C388.164 89.5798 397.765 79.5105 409.588 79.5105C421.411 79.5105 431.011 89.5798 431.011 102.008C431.011 114.436 421.411 124.505 409.588 124.505ZM366.725 95.6577C366.725 77.8777 352.952 67.7176 338.861 67.7176C331.513 67.7176 321.988 71.4672 317.437 76.3053V67.7176H304.586V136.283H317.437V91.6662C321.504 85.2557 329.396 80.5688 337.787 80.5688C346.178 80.5688 353.859 86.6921 353.859 97.7139L354.282 136.283H366.71L366.725 95.6577ZM455.444 108.343C455.444 126.123 469.217 136.283 483.308 136.283C490.656 136.283 500.181 132.533 504.732 127.695V136.283H517.583V67.7176H504.732V112.334C500.665 118.744 492.773 123.431 484.382 123.431C475.991 123.431 468.31 117.308 468.31 106.286L467.887 67.7176H455.459L455.444 108.343ZM591.243 67.7176H574.627L551.813 95.5821H542V46.2788H529.149V136.283H542V108.418H551.813L574.627 136.283H591.243L563.167 101.993L591.243 67.7176ZM642.678 80.5688V67.7176H621.255V50.5726H608.403V67.7176H595.552V80.5688H608.403V123.492C608.449 130.552 614.179 136.283 621.255 136.283H642.618V123.431H621.255V80.5688H642.678ZM764.689 67.7176H739.047C731.971 67.7176 726.226 73.4326 726.196 80.5084V136.298H739.047V80.5688H764.689V67.7176Z" fill="white"/>
<path d="M21.212 42L51.435 59.2962H68.4591L98.7879 42L104.851 48.0627L79.6623 73.2511C77.9992 74.9142 74.7033 76.2749 72.3447 76.2749H47.6704C45.3118 76.2749 42.0159 74.9142 40.3528 73.2511L15.1493 48.0627L21.212 42ZM104.851 155.937L79.6623 130.749C77.9992 129.086 74.7033 127.725 72.3447 127.725H47.6704C45.3118 127.725 42.0159 129.086 40.3528 130.749L15.1644 155.937L21.2272 162L51.556 144.704H68.5801L98.8031 162L104.851 155.937ZM88.7489 82.3377C87.0858 84.0008 85.7251 87.2967 85.7251 89.6553V114.33C85.7251 116.688 87.0858 119.984 88.7489 121.647L113.937 146.836L120 140.773L102.704 110.444V93.4199L120 63.1969L113.937 57.1342L88.7489 82.3377ZM6.06274 146.851L31.2511 121.662C32.9142 119.999 34.2749 116.703 34.2749 114.345V89.6704C34.2749 87.3118 32.9142 84.0159 31.2511 82.3528L6.06274 57.1493L0 63.212L17.2962 93.5409V110.565L0 140.788L6.06274 146.851Z" fill="white"/>
<path d="M862.94 138.088C841.18 138.088 829.62 122.312 829.62 102.728C829.62 83.144 841.18 67.368 862.94 67.368C873.004 67.368 882.524 72.808 886.74 80.832V40.712H895.308V137H886.74V124.624C882.524 132.648 873.004 138.088 862.94 138.088ZM838.732 102.728C838.732 119.32 848.388 130.2 863.212 130.2C878.036 130.2 887.692 119.32 887.692 102.728C887.692 86.136 878.036 75.256 863.212 75.256C848.388 75.256 838.732 86.136 838.732 102.728ZM947.036 138.088C926.908 138.088 912.492 123.4 912.492 102.728C912.492 82.056 926.908 67.368 947.036 67.368C967.164 67.368 981.58 82.056 981.58 102.728C981.58 123.4 967.164 138.088 947.036 138.088ZM921.468 102.728C921.468 118.776 931.804 130.2 947.036 130.2C962.268 130.2 972.604 118.776 972.604 102.728C972.604 86.68 962.268 75.256 947.036 75.256C931.804 75.256 921.468 86.68 921.468 102.728ZM1026.28 138.088C1004.52 138.088 993.507 120.68 993.507 102.728C993.507 84.776 1004.52 67.368 1026.28 67.368C1040.84 67.368 1054.44 75.8 1056.75 90.896H1048.32C1046.96 81.92 1037.57 75.256 1026.28 75.256C1009.96 75.256 1002.48 87.904 1002.48 102.728C1002.48 117.552 1010.1 130.2 1026.28 130.2C1037.57 130.2 1045.6 124.76 1048.32 115.784H1056.48C1054.03 129.52 1043.56 138.088 1026.28 138.088ZM1094.4 138.088C1078.9 138.088 1068.7 129.52 1067.61 115.376H1076.18C1077.13 125.032 1083.52 130.2 1094.4 130.2C1103.92 130.2 1110.18 124.76 1110.18 118.504C1110.18 96.064 1069.24 115.92 1069.24 86.136C1069.24 74.712 1078.76 67.368 1093.45 67.368C1108 67.368 1117.93 75.528 1118.74 87.904H1110.18C1109.09 78.248 1099.43 75.256 1092.9 75.256C1084.06 75.256 1078.22 79.608 1078.22 86.136C1078.22 105.992 1119.15 86.952 1119.15 118.504C1119.15 130.472 1109.22 138.088 1094.4 138.088Z" fill="#9CC1CB"/>
</svg>
