<svg width="358" height="240" viewBox="0 0 358 240" fill="none" xmlns="http://www.w3.org/2000/svg">
<g clip-path="url(#clip0_0_5841)">
<path d="M1.1755 0L1.1755 260" stroke="#B8D3DA"/>
<path d="M19.1755 0L19.1755 260" stroke="#B8D3DA"/>
<path d="M38.0176 0L38.0176 260" stroke="#B8D3DA"/>
<path d="M56.8597 0L56.8597 260" stroke="#B8D3DA"/>
<path d="M75.7018 0L75.7018 260" stroke="#B8D3DA"/>
<path d="M94.5439 0L94.5439 260" stroke="#B8D3DA"/>
<path d="M113.386 0L113.386 260" stroke="#B8D3DA"/>
<path d="M132.228 0L132.228 260" stroke="#B8D3DA"/>
<path d="M151.07 0L151.07 260" stroke="#B8D3DA"/>
<path d="M169.912 0L169.912 260" stroke="#B8D3DA"/>
<path d="M188.754 0L188.754 260" stroke="#B8D3DA"/>
<path d="M207.597 0L207.597 260" stroke="#B8D3DA"/>
<path d="M226.439 0L226.439 260" stroke="#B8D3DA"/>
<path d="M245.281 0L245.281 260" stroke="#B8D3DA"/>
<path d="M264.123 0L264.123 260" stroke="#B8D3DA"/>
<path d="M282.965 0L282.965 260" stroke="#B8D3DA"/>
<path d="M301.807 0L301.807 260" stroke="#B8D3DA"/>
<path d="M320.649 0L320.649 260" stroke="#B8D3DA"/>
<path d="M339.491 0L339.491 260" stroke="#B8D3DA"/>
<path d="M0.333374 0.3333H358.333" stroke="#B8D3DA"/>
<path d="M0.333374 17.3333H358.333" stroke="#B8D3DA"/>
<path d="M0.333374 34.6667H358.333" stroke="#B8D3DA"/>
<path d="M0.333374 52H358.333" stroke="#B8D3DA"/>
<path d="M0.333374 69.3333H358.333" stroke="#B8D3DA"/>
<path d="M0.333374 86.6667H358.333" stroke="#B8D3DA"/>
<path d="M0.333374 104H358.333" stroke="#B8D3DA"/>
<path d="M0.333374 121.333H358.333" stroke="#B8D3DA"/>
<path d="M0.333374 138.667H358.333" stroke="#B8D3DA"/>
<path d="M0.333374 156H358.333" stroke="#B8D3DA"/>
<path d="M0.333374 173.333H358.333" stroke="#B8D3DA"/>
<path d="M0.333374 190.667H358.333" stroke="#B8D3DA"/>
<path d="M0.333374 208H358.333" stroke="#B8D3DA"/>
<path d="M0.333374 225.333H358.333" stroke="#B8D3DA"/>
</g>
<defs>
<clipPath id="clip0_0_5841">
<rect width="358" height="260" fill="white" transform="translate(0.333374)"/>
</clipPath>
</defs>
</svg>
