<svg width="32" height="32" viewBox="0 0 32 32" fill="none" xmlns="http://www.w3.org/2000/svg">
<g clip-path="url(#clip0_2103_232742)">
<path d="M9.09441 12.9894C9.09441 13.3789 9.13652 13.6947 9.2102 13.9262C9.29441 14.1578 9.39968 14.4105 9.54704 14.6841C9.59968 14.7684 9.62073 14.8526 9.62073 14.9262C9.62073 15.0315 9.55757 15.1368 9.42073 15.242L8.75757 15.6841C8.66283 15.7473 8.5681 15.7789 8.48389 15.7789C8.37862 15.7789 8.27336 15.7262 8.1681 15.6315C8.02073 15.4736 7.89441 15.3052 7.78915 15.1368C7.68389 14.9578 7.57862 14.7578 7.46283 14.5157C6.64178 15.4841 5.6102 15.9684 4.3681 15.9684C3.48389 15.9684 2.77862 15.7157 2.26283 15.2105C1.74704 14.7052 1.48389 14.0315 1.48389 13.1894C1.48389 12.2947 1.79968 11.5684 2.44178 11.021C3.08389 10.4736 3.93652 10.1999 5.02073 10.1999C5.37862 10.1999 5.74704 10.2315 6.13652 10.2841C6.52599 10.3368 6.92599 10.421 7.34704 10.5157V9.7473C7.34704 8.9473 7.17862 8.38941 6.85231 8.06309C6.51547 7.73678 5.94704 7.57888 5.13652 7.57888C4.7681 7.57888 4.38915 7.62099 3.99968 7.71572C3.6102 7.81046 3.23126 7.92625 2.86283 8.07362C2.69441 8.1473 2.5681 8.18941 2.49441 8.21046C2.42073 8.23151 2.3681 8.24204 2.32599 8.24204C2.17862 8.24204 2.10494 8.13678 2.10494 7.91572V7.39993C2.10494 7.23151 2.12599 7.1052 2.17862 7.03151C2.23126 6.95783 2.32599 6.88414 2.47336 6.81046C2.84178 6.62099 3.28389 6.46309 3.79968 6.33678C4.31547 6.19993 4.86283 6.13678 5.44178 6.13678C6.69441 6.13678 7.6102 6.42099 8.19968 6.98941C8.77862 7.55783 9.07336 8.42099 9.07336 9.57888V12.9894H9.09441ZM4.82073 14.5894C5.1681 14.5894 5.52599 14.5262 5.90494 14.3999C6.28389 14.2736 6.62073 14.042 6.90494 13.7262C7.07336 13.5262 7.19968 13.3052 7.26283 13.0526C7.32599 12.7999 7.3681 12.4947 7.3681 12.1368V11.6947C7.06283 11.621 6.73652 11.5578 6.39968 11.5157C6.06283 11.4736 5.73652 11.4526 5.4102 11.4526C4.70494 11.4526 4.18915 11.5894 3.84178 11.8736C3.49441 12.1578 3.32599 12.5578 3.32599 13.0841C3.32599 13.5789 3.45231 13.9473 3.71547 14.1999C3.9681 14.4631 4.33652 14.5894 4.82073 14.5894ZM13.2734 15.7262C13.0839 15.7262 12.9576 15.6947 12.8734 15.621C12.7892 15.5578 12.7155 15.4105 12.6523 15.2105L10.1786 7.07362C10.1155 6.86309 10.0839 6.72625 10.0839 6.65256C10.0839 6.48414 10.1681 6.38941 10.3365 6.38941H11.3681C11.5681 6.38941 11.7049 6.42099 11.7786 6.49467C11.8628 6.55783 11.926 6.7052 11.9892 6.9052L13.7576 13.8736L15.3997 6.9052C15.4523 6.69467 15.5155 6.55783 15.5997 6.49467C15.6839 6.43151 15.8313 6.38941 16.0207 6.38941H16.8628C17.0628 6.38941 17.1997 6.42099 17.2839 6.49467C17.3681 6.55783 17.4418 6.7052 17.4839 6.9052L19.147 13.9578L20.9681 6.9052C21.0313 6.69467 21.1049 6.55783 21.1786 6.49467C21.2628 6.43151 21.3997 6.38941 21.5891 6.38941H22.5681C22.7365 6.38941 22.8313 6.47362 22.8313 6.65256C22.8313 6.7052 22.8207 6.75783 22.8102 6.82099C22.7997 6.88414 22.7786 6.96835 22.7365 7.08414L20.1997 15.221C20.1365 15.4315 20.0628 15.5684 19.9786 15.6315C19.8944 15.6947 19.7576 15.7368 19.5786 15.7368H18.6734C18.4734 15.7368 18.3365 15.7052 18.2523 15.6315C18.1681 15.5578 18.0944 15.421 18.0523 15.2105L16.4207 8.42099L14.7997 15.1999C14.747 15.4105 14.6839 15.5473 14.5997 15.621C14.5155 15.6947 14.3681 15.7262 14.1786 15.7262H13.2734ZM26.7997 16.0105C26.2523 16.0105 25.7049 15.9473 25.1786 15.821C24.6523 15.6947 24.2418 15.5578 23.9681 15.3999C23.7997 15.3052 23.6839 15.1999 23.6418 15.1052C23.5997 15.0105 23.5786 14.9052 23.5786 14.8105V14.2736C23.5786 14.0526 23.6628 13.9473 23.8207 13.9473C23.8839 13.9473 23.947 13.9578 24.0102 13.9789C24.0734 13.9999 24.1681 14.042 24.2734 14.0841C24.6313 14.242 25.0207 14.3684 25.4313 14.4526C25.8523 14.5368 26.2628 14.5789 26.6839 14.5789C27.347 14.5789 27.8628 14.4631 28.2207 14.2315C28.5786 13.9999 28.7681 13.6631 28.7681 13.2315C28.7681 12.9368 28.6734 12.6947 28.4839 12.4947C28.2944 12.2947 27.9365 12.1157 27.4207 11.9473L25.8944 11.4736C25.126 11.2315 24.5576 10.8736 24.2102 10.3999C23.8628 9.93678 23.6839 9.42099 23.6839 8.87362C23.6839 8.43151 23.7786 8.04204 23.9681 7.7052C24.1576 7.36835 24.4102 7.07362 24.726 6.84204C25.0418 6.59993 25.3997 6.42099 25.8207 6.29467C26.2418 6.16835 26.6839 6.11572 27.147 6.11572C27.3786 6.11572 27.6207 6.12625 27.8523 6.15783C28.0944 6.18941 28.3155 6.23151 28.5365 6.27362C28.747 6.32625 28.947 6.37888 29.1365 6.44204C29.326 6.5052 29.4734 6.56835 29.5786 6.63151C29.726 6.71572 29.8313 6.79993 29.8944 6.89467C29.9576 6.97888 29.9891 7.09467 29.9891 7.24204V7.73678C29.9891 7.95783 29.9049 8.07362 29.747 8.07362C29.6628 8.07362 29.526 8.03151 29.347 7.9473C28.747 7.67362 28.0734 7.53678 27.326 7.53678C26.726 7.53678 26.2523 7.63151 25.926 7.83151C25.5997 8.03151 25.4313 8.33678 25.4313 8.76835C25.4313 9.06309 25.5365 9.31572 25.747 9.51572C25.9576 9.71572 26.347 9.91572 26.9049 10.0947L28.3997 10.5684C29.1576 10.8105 29.7049 11.1473 30.0313 11.5789C30.3576 12.0105 30.5155 12.5052 30.5155 13.0526C30.5155 13.5052 30.4207 13.9157 30.2418 14.2736C30.0523 14.6315 29.7997 14.9473 29.4734 15.1999C29.147 15.4631 28.7576 15.6526 28.3049 15.7894C27.8313 15.9368 27.3365 16.0105 26.7997 16.0105Z" fill="#252F3E"/>
<path fill-rule="evenodd" clip-rule="evenodd" d="M28.7889 21.1265C25.3258 23.6844 20.2942 25.0422 15.9679 25.0422C9.90473 25.0422 4.44158 22.8001 0.315261 19.0738C-0.0110546 18.7791 0.283682 18.3791 0.673156 18.6107C5.13631 21.2001 10.6416 22.7686 16.3363 22.7686C20.1784 22.7686 24.3995 21.9686 28.2837 20.3265C28.8626 20.0633 29.3574 20.7054 28.7889 21.1265Z" fill="#FF9900"/>
<path fill-rule="evenodd" clip-rule="evenodd" d="M30.2311 19.4843C29.789 18.9159 27.3048 19.2106 26.1784 19.3474C25.8416 19.3895 25.789 19.0948 26.0942 18.8737C28.0732 17.4843 31.3258 17.8843 31.7048 18.3474C32.0837 18.8211 31.5995 22.0737 29.7469 23.6316C29.4627 23.8737 29.189 23.7474 29.3153 23.4316C29.7363 22.3895 30.6732 20.0422 30.2311 19.4843Z" fill="#FF9900"/>
</g>
<defs>
<clipPath id="clip0_2103_232742">
<rect width="32" height="19.1579" fill="white" transform="translate(0 6)"/>
</clipPath>
</defs>
</svg>
