<svg width="20" height="20" viewBox="0 0 20 20" fill="none" xmlns="http://www.w3.org/2000/svg">
<path d="M19.5833 9.16667H18.2908C18.2 8.25167 17.9542 7.38417 17.5908 6.58L18.7167 5.93C18.9158 5.815 18.9842 5.56 18.8692 5.36083L18.4525 4.63917C18.3375 4.44 18.0825 4.37167 17.8833 4.48667L16.7542 5.13833C16.2283 4.41 15.59 3.77167 14.8617 3.24583L15.5133 2.11667C15.6283 1.9175 15.56 1.6625 15.3608 1.5475L14.6392 1.13083C14.44 1.01583 14.185 1.08417 14.07 1.28333L13.42 2.40917C12.6158 2.045 11.7475 1.8 10.8333 1.70917V0.416667C10.8333 0.186667 10.6467 0 10.4167 0H9.58333C9.35333 0 9.16667 0.186667 9.16667 0.416667V1.70917C8.25167 1.8 7.38417 2.04583 6.58 2.40917L5.93 1.28333C5.815 1.08417 5.56 1.01583 5.36083 1.13083L4.63917 1.5475C4.44 1.6625 4.37167 1.9175 4.48667 2.11667L5.13833 3.24583C4.41 3.77167 3.77167 4.41 3.24583 5.13833L2.11667 4.48667C1.9175 4.37167 1.6625 4.44 1.5475 4.63917L1.13083 5.36083C1.01583 5.56 1.08417 5.815 1.28333 5.93L2.40917 6.58C2.045 7.38417 1.8 8.2525 1.70917 9.16667H0.416667C0.186667 9.16667 0 9.35333 0 9.58333V10.4167C0 10.6467 0.186667 10.8333 0.416667 10.8333H1.70917C1.8 11.7483 2.04583 12.6158 2.40917 13.42L1.28333 14.07C1.08417 14.185 1.01583 14.44 1.13083 14.6392L1.5475 15.3608C1.6625 15.56 1.9175 15.6283 2.11667 15.5133L3.24583 14.8617C3.77167 15.59 4.41 16.2283 5.13833 16.7542L4.48667 17.8833C4.37167 18.0825 4.44 18.3375 4.63917 18.4525L5.36083 18.8692C5.56 18.9842 5.815 18.9158 5.93 18.7167L6.58 17.5908C7.38417 17.9542 8.2525 18.2 9.16667 18.2908V19.5833C9.16667 19.8133 9.35333 20 9.58333 20H10.4167C10.6467 20 10.8333 19.8133 10.8333 19.5833V18.2908C11.7483 18.2 12.6167 17.9542 13.42 17.5908L14.07 18.7167C14.185 18.9158 14.44 18.9842 14.6392 18.8692L15.3608 18.4525C15.56 18.3375 15.6283 18.0825 15.5133 17.8833L14.8617 16.7542C15.59 16.2283 16.2283 15.59 16.7542 14.8617L17.8833 15.5133C18.0825 15.6283 18.3375 15.56 18.4525 15.3608L18.8692 14.6392C18.9842 14.44 18.9158 14.185 18.7167 14.07L17.5908 13.42C17.955 12.6158 18.2 11.7475 18.2908 10.8333H19.5833C19.8133 10.8333 20 10.6467 20 10.4167V9.58333C20 9.35333 19.8133 9.16667 19.5833 9.16667ZM10 3.33333C13.3933 3.33333 16.1967 5.88333 16.6092 9.16667H10.9625C10.665 9.16667 10.39 9.0075 10.2408 8.75L7.415 3.855C8.21 3.51917 9.08417 3.33333 10 3.33333ZM3.33333 10C3.33333 7.83667 4.37417 5.91583 5.97583 4.6975L8.79667 9.58333C8.94583 9.84083 8.94583 10.1592 8.79667 10.4167L5.97583 15.3025C4.37417 14.0842 3.33333 12.1633 3.33333 10ZM10 16.6667C9.08417 16.6667 8.21 16.4808 7.415 16.145L10.2408 11.25C10.39 10.9925 10.665 10.8333 10.9625 10.8333H16.6092C16.1967 14.1167 13.3933 16.6667 10 16.6667Z" fill="#E3FFCC"/>
</svg>
