<svg width="32" height="32" viewBox="0 0 32 32" fill="none" xmlns="http://www.w3.org/2000/svg">
<g clip-path="url(#clip0_2103_232736)">
<path d="M17.495 14.8151H14.19V11.8451H17.495V14.8151ZM17.495 4.6001H14.19V7.6351H17.495V4.6001ZM21.405 11.8401H18.1V14.8101H21.405V11.8401ZM13.59 8.2351H10.285V11.2401H13.59V8.2351ZM17.495 8.2351H14.19V11.2401H17.495V8.2351ZM31.335 13.2351C30.615 12.7501 28.955 12.5751 27.68 12.8151C27.515 11.6151 26.845 10.5701 25.625 9.6301L24.925 9.1651L24.46 9.8651C23.54 11.2551 23.29 13.5451 24.275 15.0551C23.84 15.2901 22.985 15.6101 21.855 15.5901H0.119982C-0.315018 18.1301 0.409982 21.4301 2.31998 23.6951C4.17498 25.8901 6.95498 27.0051 10.59 27.0051C18.46 27.0051 24.285 23.3801 27.01 16.7951C28.08 16.8151 30.39 16.8001 31.575 14.5351C31.65 14.4101 31.905 13.8751 32 13.6801L31.335 13.2351ZM5.77998 11.8401H2.47998V14.8101H5.78498V11.8401H5.77998ZM9.68498 11.8401H6.37998V14.8101H9.68498V11.8401ZM13.59 11.8401H10.285V14.8101H13.59V11.8401ZM9.68498 8.2351H6.37998V11.2401H9.68498V8.2351Z" fill="#2496ED"/>
</g>
<defs>
<clipPath id="clip0_2103_232736">
<rect width="32" height="25.6" fill="white" transform="translate(0 3)"/>
</clipPath>
</defs>
</svg>
