<svg width="32" height="32" viewBox="0 0 32 32" fill="none" xmlns="http://www.w3.org/2000/svg">
<g clip-path="url(#clip0_2162_231762)">
<path d="M15.9 0.476354C15.6138 0.493166 15.334 0.5673 15.077 0.694354L3.93201 6.01035C3.35001 6.28735 2.92701 6.81435 2.78201 7.44235L0.0540137 19.3734C-0.0759863 19.9334 0.0290137 20.5204 0.354014 21.0004C0.392014 21.0584 0.432014 21.1144 0.474014 21.1684L8.17401 30.7424C8.58101 31.2424 9.19201 31.5294 9.83601 31.5264H22.186C22.832 31.5274 23.444 31.2264 23.85 30.7334L31.546 21.1574C31.95 20.6574 32.101 19.9974 31.946 19.3714L29.2 7.43035C29.055 6.80235 28.63 6.27535 28.05 5.99835L16.923 0.695354C16.6024 0.537213 16.2472 0.461921 15.89 0.476354H15.9Z" fill="#326CE5"/>
<path d="M16.0018 4.54199C15.6178 4.56899 15.3268 4.89799 15.3468 5.28199V5.46999C15.3648 5.68299 15.3968 5.89399 15.4388 6.10299C15.5002 6.50322 15.5223 6.90847 15.5048 7.31299C15.4668 7.44599 15.3908 7.56599 15.2868 7.65799L15.2718 7.93999C14.8668 7.97399 14.4648 8.03599 14.0688 8.12599C12.4028 8.50199 10.8858 9.36599 9.71482 10.611L9.47482 10.441C9.34282 10.481 9.20082 10.466 9.07982 10.401C8.75524 10.1608 8.45482 9.88947 8.18282 9.59099C8.0462 9.42774 7.90029 9.27248 7.74582 9.12599L7.59782 9.00799C7.46582 8.90199 7.30382 8.84099 7.13482 8.83299C7.03397 8.82764 6.93329 8.84624 6.841 8.88725C6.74871 8.92827 6.66743 8.99055 6.60382 9.06899C6.37782 9.38599 6.45182 9.82499 6.76782 10.052L6.90582 10.162C7.08346 10.2802 7.26777 10.388 7.45782 10.485C7.81182 10.682 8.14582 10.913 8.45582 11.185C8.53512 11.2981 8.58119 11.4311 8.58882 11.569L8.80682 11.769C7.62982 13.535 7.14682 15.674 7.44882 17.775L7.16882 17.855C7.09582 17.971 6.99882 18.07 6.88282 18.143C6.49217 18.2473 6.09228 18.3133 5.68882 18.34C5.47471 18.3443 5.26102 18.361 5.04882 18.39L4.87182 18.43H4.85182C4.72899 18.447 4.6133 18.4978 4.51763 18.5767C4.42196 18.6556 4.35007 18.7596 4.30995 18.8769C4.26984 18.9942 4.26307 19.1204 4.29042 19.2414C4.31776 19.3623 4.37814 19.4733 4.46482 19.562C4.55232 19.6502 4.66263 19.7124 4.78342 19.7415C4.90421 19.7706 5.03073 19.7656 5.14882 19.727H5.16182L5.34182 19.707C5.54482 19.647 5.74482 19.573 5.93982 19.489C6.31482 19.339 6.70382 19.224 7.10182 19.149C7.23982 19.157 7.37182 19.204 7.48382 19.284L7.78382 19.234C8.43382 21.251 9.79982 22.96 11.6238 24.037L11.5018 24.292C11.5578 24.409 11.5788 24.539 11.5618 24.668C11.3968 25.05 11.1948 25.416 10.9588 25.76C10.8294 25.9306 10.7098 26.1086 10.6008 26.293L10.5158 26.473C10.4542 26.58 10.4232 26.7019 10.4265 26.8254C10.4298 26.9488 10.4671 27.0689 10.5344 27.1725C10.6016 27.2761 10.6962 27.359 10.8076 27.4122C10.919 27.4654 11.043 27.4868 11.1658 27.474C11.2889 27.4601 11.4058 27.4124 11.5034 27.3362C11.601 27.2599 11.6756 27.1581 11.7188 27.042L11.8018 26.872C11.8778 26.672 11.9418 26.468 11.9938 26.262C12.1708 25.825 12.2668 25.356 12.5088 25.066C12.5879 24.9916 12.6876 24.9429 12.7948 24.926L12.9448 24.653C14.9221 25.413 17.1099 25.4183 19.0908 24.668L19.2238 24.923C19.3598 24.943 19.4818 25.018 19.5638 25.128C19.7518 25.486 19.9038 25.861 20.0198 26.248C20.0727 26.4552 20.1375 26.6592 20.2138 26.859L20.2968 27.029C20.3405 27.1446 20.4153 27.246 20.5129 27.3217C20.6106 27.3975 20.7273 27.4448 20.8502 27.4584C20.973 27.4719 21.0973 27.4512 21.2091 27.3986C21.3209 27.3459 21.416 27.2633 21.4838 27.16C21.551 27.056 21.588 26.9355 21.5908 26.8118C21.5937 26.688 21.5622 26.5659 21.4998 26.459L21.4128 26.279C21.3038 26.0952 21.1843 25.918 21.0548 25.748C20.8248 25.416 20.6268 25.062 20.4548 24.691C20.4388 24.6232 20.4365 24.5528 20.4482 24.4841C20.4599 24.4154 20.4853 24.3497 20.5228 24.291C20.4802 24.2038 20.4431 24.1139 20.4118 24.022C22.2318 22.937 23.5918 21.222 24.2348 19.202L24.5188 19.252C24.6208 19.159 24.7548 19.11 24.8918 19.114C25.2888 19.19 25.6778 19.314 26.0538 19.454C26.2488 19.544 26.4488 19.62 26.6518 19.684C26.6998 19.697 26.7698 19.708 26.8238 19.721H26.8368C26.9549 19.7591 27.0811 19.7637 27.2016 19.7343C27.3221 19.7049 27.4321 19.6426 27.5193 19.5544C27.6065 19.4661 27.6674 19.3555 27.6954 19.2346C27.7234 19.1138 27.7173 18.9876 27.6778 18.87C27.6374 18.7525 27.5651 18.6486 27.4691 18.5699C27.373 18.4911 27.2569 18.4406 27.1338 18.424L26.9398 18.378C26.7276 18.349 26.5139 18.3323 26.2998 18.328C25.8958 18.302 25.4958 18.236 25.1058 18.131C24.9858 18.064 24.8858 17.964 24.8178 17.843L24.5478 17.763C24.8357 15.663 24.3425 13.5304 23.1618 11.77L23.3978 11.552C23.3878 11.415 23.4328 11.279 23.5218 11.174C23.8288 10.91 24.1618 10.677 24.5118 10.478C24.7019 10.381 24.8862 10.2731 25.0638 10.155L25.2098 10.037C25.3173 9.97027 25.4037 9.87448 25.4591 9.7607C25.5144 9.64692 25.5363 9.51979 25.5224 9.39404C25.5085 9.26829 25.4593 9.14905 25.3804 9.05012C25.3016 8.95118 25.1963 8.8766 25.0768 8.83499C24.9574 8.79344 24.8287 8.7865 24.7056 8.81499C24.5824 8.84348 24.4698 8.90623 24.3808 8.99599L24.2328 9.11399C24.0784 9.26051 23.9325 9.41577 23.7958 9.57899C23.5318 9.88099 23.2398 10.156 22.9228 10.402C22.7949 10.4541 22.655 10.4693 22.5188 10.446L22.2658 10.626C20.8058 9.09599 18.8388 8.14599 16.7308 7.95599C16.7308 7.85599 16.7178 7.70599 16.7158 7.65899C16.6028 7.58099 16.5238 7.46199 16.4978 7.32699C16.484 6.92315 16.5094 6.51891 16.5738 6.11999C16.6168 5.90999 16.6468 5.69999 16.6658 5.48699V5.28699C16.6858 4.90299 16.3958 4.57399 16.0108 4.54699L16.0018 4.54199ZM15.1678 9.70799L14.9678 13.201H14.9528C14.9428 13.417 14.8158 13.601 14.6208 13.705C14.4258 13.809 14.1948 13.778 14.0208 13.651L11.1558 11.621C12.0677 10.7253 13.2117 10.1022 14.4588 9.82199C14.6928 9.77199 14.9288 9.73399 15.1658 9.70799H15.1678ZM16.8358 9.70799C18.3408 9.89499 19.7418 10.571 20.8258 11.632L17.9878 13.649C17.8128 13.789 17.5728 13.817 17.3698 13.721C17.1668 13.625 17.0368 13.421 17.0338 13.197L16.8358 9.70799ZM10.1158 12.935L12.7358 15.273V15.288C12.8988 15.43 12.9698 15.651 12.9218 15.862C12.8738 16.073 12.7118 16.24 12.5048 16.297V16.307L9.14282 17.274C8.97646 15.7593 9.31915 14.2323 10.1168 12.934L10.1158 12.935ZM21.8688 12.935C22.6648 14.23 23.0168 15.749 22.8708 17.262L19.5038 16.292V16.279C19.2938 16.222 19.1338 16.055 19.0868 15.844C19.0398 15.633 19.1098 15.414 19.2728 15.27L21.8728 12.943L21.8688 12.935ZM15.4648 15.455H16.5368L17.1918 16.287L16.9538 17.327L15.9908 17.79L15.0258 17.327L14.7988 16.287L15.4648 15.455ZM18.8988 18.293C18.9438 18.288 18.9988 18.288 19.0338 18.293L22.5008 18.878C22.0008 20.318 21.0138 21.548 19.7258 22.371L18.3858 19.127C18.349 19.04 18.3336 18.9454 18.3409 18.8511C18.3483 18.7569 18.3782 18.6658 18.428 18.5856C18.4779 18.5053 18.5464 18.4382 18.6276 18.3899C18.7088 18.3416 18.8005 18.3135 18.8948 18.308L18.8988 18.293ZM13.0758 18.308C13.2718 18.311 13.4528 18.412 13.5598 18.576C13.6668 18.74 13.6838 18.946 13.6068 19.126V19.139L12.2748 22.357C10.9998 21.54 10.0318 20.325 9.51682 18.9L12.9538 18.317C12.9918 18.313 13.0308 18.313 13.0698 18.317L13.0758 18.308ZM15.9798 19.708C16.0891 19.7045 16.1971 19.7315 16.292 19.7859C16.3868 19.8403 16.4646 19.9199 16.5168 20.016H16.5298L18.2238 23.073L17.5468 23.273C16.3008 23.558 14.9998 23.491 13.7888 23.079L15.4888 20.022C15.5918 19.842 15.7818 19.732 15.9888 19.727L15.9798 19.708Z" fill="white" stroke="white" stroke-width="0.055"/>
</g>
<defs>
<clipPath id="clip0_2162_231762">
<rect width="32" height="32" fill="white"/>
</clipPath>
</defs>
</svg>
