<svg width="20" height="17" viewBox="0 0 20 17" fill="none" xmlns="http://www.w3.org/2000/svg">
<path d="M19.1668 3.16663H10.0001C9.54014 3.16663 9.16681 3.53996 9.16681 3.99996C9.16681 4.45996 9.54014 4.83329 10.0001 4.83329H19.1668C19.6268 4.83329 20.0001 4.45996 20.0001 3.99996C20.0001 3.53996 19.6268 3.16663 19.1668 3.16663Z" fill="#E3FFCC"/>
<path d="M6.66671 0.666626H1.66671C1.20647 0.666626 0.833374 1.03972 0.833374 1.49996V6.49996C0.833374 6.9602 1.20647 7.33329 1.66671 7.33329H6.66671C7.12694 7.33329 7.50004 6.9602 7.50004 6.49996V1.49996C7.50004 1.03972 7.12694 0.666626 6.66671 0.666626Z" fill="#E3FFCC"/>
<path d="M19.1668 13.1666H10.0001C9.54014 13.1666 9.16681 13.54 9.16681 14C9.16681 14.46 9.54014 14.8333 10.0001 14.8333H19.1668C19.6268 14.8333 20.0001 14.46 20.0001 14C20.0001 13.54 19.6268 13.1666 19.1668 13.1666Z" fill="#E3FFCC"/>
<path d="M3.33346 16.5C3.12013 16.5 2.90679 16.4183 2.74429 16.2558L1.07763 14.5892C0.751794 14.2633 0.751794 13.7367 1.07763 13.4108C1.40346 13.085 1.93013 13.085 2.25596 13.4108L3.33346 14.4883L7.74429 10.0775C8.07013 9.75167 8.59679 9.75167 8.92263 10.0775C9.24846 10.4033 9.24846 10.93 8.92263 11.2558L3.92263 16.2558C3.76013 16.4183 3.54679 16.5 3.33346 16.5Z" fill="#E3FFCC"/>
</svg>
