<svg width="48" height="48" viewBox="0 0 48 48" fill="none" xmlns="http://www.w3.org/2000/svg">
<rect x="0.5" y="0.5" width="47" height="47" rx="11.5" fill="white"/>
<rect x="0.5" y="0.5" width="47" height="47" rx="11.5" stroke="#E8E7E9"/>
<path d="M36 24.9H28.848C28.272 24.9 27.588 24.612 27.192 24.216L23.796 20.82C23.388 20.412 23.112 19.728 23.112 19.164V12H24.912V19.152C24.912 19.248 25.008 19.476 25.068 19.536L28.464 22.932C28.536 23.004 28.752 23.088 28.848 23.088H36V24.888V24.9ZM24.9 28.848C24.9 28.272 24.612 27.588 24.216 27.192L20.82 23.796C20.412 23.388 19.728 23.112 19.164 23.112H12V24.912H19.152C19.248 24.912 19.476 25.008 19.536 25.068L22.932 28.464C23.004 28.536 23.088 28.752 23.088 28.848V36H24.888V28.848H24.9Z" fill="#1D1D23"/>
</svg>
