<svg width="48" height="48" viewBox="0 0 48 48" fill="none" xmlns="http://www.w3.org/2000/svg">
<rect x="0.5" y="0.5" width="47" height="47" rx="9.5" fill="white"/>
<path d="M32.252 13.1933H31.9395C28.5577 13.1933 26.3522 12.3478 22.8969 9.68284C22.5477 9.42553 22.1434 9.29688 21.739 9.29688C21.3347 9.29688 20.9487 9.42553 20.5995 9.68284C17.1442 12.3478 14.9203 13.1933 11.5569 13.1933H11.2445C10.1785 13.1933 9.33301 14.0571 9.33301 15.1415V23.9084C9.33301 28.2275 11.4099 32.1239 15.3614 35.1565C18.1918 37.3437 21.059 38.3361 21.1693 38.3913C21.3714 38.4648 21.5736 38.5016 21.7758 38.5016C21.9963 38.5016 22.1985 38.4648 22.4007 38.3913C22.4742 38.3729 23.9262 37.8399 25.7825 36.7739C25.5803 36.6269 25.3597 36.4798 25.1392 36.296C22.3088 34.1089 20.8017 31.3153 20.8017 28.1908V21.9051C20.8017 21.1148 21.4266 20.4899 22.1801 20.4899H22.4007C24.8267 20.4899 26.4257 19.865 28.9069 17.9719C29.1459 17.7881 29.4399 17.6962 29.734 17.6962C30.0281 17.6962 30.3038 17.7881 30.5611 17.9719C31.9395 19.0195 33.0423 19.6812 34.1818 20.0488V15.1231C34.1818 14.0387 33.318 13.1749 32.2704 13.1749L32.252 13.1933Z" fill="url(#paint0_radial_138_59294)"/>
<path d="M37.2701 20.5087H37.0495C35.9651 20.5087 35.0646 20.38 34.164 20.0859V23.9088C34.164 28.228 32.0871 32.1244 28.154 35.1569C27.3269 35.8002 26.5182 36.3332 25.7646 36.7743C27.5658 38.0241 29.22 38.5939 29.2935 38.6306C29.4221 38.6674 29.5875 38.7042 29.7346 38.7042C29.8816 38.7042 30.0286 38.6674 30.1573 38.6306C30.2492 38.5939 32.2893 37.8771 34.3294 36.2965C37.1598 34.1093 38.6669 31.3157 38.6669 28.1912V21.9055C38.6669 21.1152 38.042 20.4903 37.2885 20.4903L37.2701 20.5087Z" fill="url(#paint1_radial_138_59294)"/>
<g filter="url(#filter0_i_138_59294)">
<path d="M34.1633 20.0856V23.9085C34.1633 28.2276 32.0865 32.124 28.1533 35.1566C27.3262 35.7999 26.5175 36.3329 25.764 36.774C25.5618 36.627 25.3413 36.4799 25.1207 36.2961C22.2903 34.109 20.7832 31.3153 20.7832 28.1909V21.9051C20.7832 21.1148 21.4081 20.4899 22.1616 20.4899H22.3822C24.8083 20.4899 26.4073 19.865 28.8885 17.972C29.1274 17.7882 29.4215 17.6963 29.7155 17.6963C30.0096 17.6963 30.2853 17.7882 30.5426 17.972C31.921 19.0196 33.0238 19.6813 34.1633 20.0488V20.0856Z" fill="#0026AC"/>
</g>
<rect x="0.5" y="0.5" width="47" height="47" rx="9.5" stroke="#E9E8EA"/>
<defs>
<filter id="filter0_i_138_59294" x="20.7832" y="17.6963" width="14.393" height="20.0913" filterUnits="userSpaceOnUse" color-interpolation-filters="sRGB">
<feFlood flood-opacity="0" result="BackgroundImageFix"/>
<feBlend mode="normal" in="SourceGraphic" in2="BackgroundImageFix" result="shape"/>
<feColorMatrix in="SourceAlpha" type="matrix" values="0 0 0 0 0 0 0 0 0 0 0 0 0 0 0 0 0 0 127 0" result="hardAlpha"/>
<feOffset dx="1.01316" dy="1.01316"/>
<feGaussianBlur stdDeviation="1.01316"/>
<feComposite in2="hardAlpha" operator="arithmetic" k2="-1" k3="1"/>
<feColorMatrix type="matrix" values="0 0 0 0 0 0 0 0 0 0 0 0 0 0 0 0 0 0 0.1 0"/>
<feBlend mode="multiply" in2="shape" result="effect1_innerShadow_138_59294"/>
</filter>
<radialGradient id="paint0_radial_138_59294" cx="0" cy="0" r="1" gradientUnits="userSpaceOnUse" gradientTransform="translate(11.2901 -12.8584) rotate(65.6179) scale(201.604 831.108)">
<stop stop-color="#715BF9"/>
<stop offset="0.591893" stop-color="#1378EF"/>
<stop offset="1" stop-color="#38ABD7"/>
</radialGradient>
<radialGradient id="paint1_radial_138_59294" cx="0" cy="0" r="1" gradientUnits="userSpaceOnUse" gradientTransform="translate(26.7808 5.96176) rotate(69.7383) scale(124.783 444.475)">
<stop stop-color="#EB00FF"/>
<stop offset="0.591893" stop-color="#9B6EF9"/>
<stop offset="1" stop-color="#BEBDF5"/>
</radialGradient>
</defs>
</svg>
