<svg width="20" height="20" viewBox="0 0 20 20" fill="none" xmlns="http://www.w3.org/2000/svg">
<path d="M1.66665 7.50004C1.88766 7.50004 2.09962 7.41224 2.2559 7.25596C2.41218 7.09968 2.49998 6.88772 2.49998 6.66671V3.33337C2.49998 3.11236 2.58778 2.9004 2.74406 2.74412C2.90034 2.58784 3.1123 2.50004 3.33331 2.50004H6.66665C6.88766 2.50004 7.09962 2.41224 7.2559 2.25596C7.41218 2.09968 7.49998 1.88772 7.49998 1.66671C7.49998 1.44569 7.41218 1.23373 7.2559 1.07745C7.09962 0.921171 6.88766 0.833374 6.66665 0.833374H3.33331C2.67027 0.833374 2.03439 1.09677 1.56555 1.56561C1.09671 2.03445 0.833313 2.67033 0.833313 3.33337V6.66671C0.833313 6.88772 0.92111 7.09968 1.07739 7.25596C1.23367 7.41224 1.44563 7.50004 1.66665 7.50004Z" fill="#E3FFCC"/>
<path d="M16.6667 0.833374H13.3334C13.1124 0.833374 12.9004 0.921171 12.7441 1.07745C12.5879 1.23373 12.5001 1.44569 12.5001 1.66671C12.5001 1.88772 12.5879 2.09968 12.7441 2.25596C12.9004 2.41224 13.1124 2.50004 13.3334 2.50004H16.6667C16.8877 2.50004 17.0997 2.58784 17.256 2.74412C17.4123 2.9004 17.5001 3.11236 17.5001 3.33337V6.66671C17.5001 6.88772 17.5879 7.09968 17.7441 7.25596C17.9004 7.41224 18.1124 7.50004 18.3334 7.50004C18.5544 7.50004 18.7664 7.41224 18.9227 7.25596C19.0789 7.09968 19.1667 6.88772 19.1667 6.66671V3.33337C19.1667 2.67033 18.9033 2.03445 18.4345 1.56561C17.9657 1.09677 17.3298 0.833374 16.6667 0.833374Z" fill="#E3FFCC"/>
<path d="M18.3334 12.5C18.1124 12.5 17.9004 12.5878 17.7441 12.7441C17.5879 12.9004 17.5001 13.1123 17.5001 13.3333V16.6667C17.5001 16.8877 17.4123 17.0996 17.256 17.2559C17.0997 17.4122 16.8877 17.5 16.6667 17.5H13.3334C13.1124 17.5 12.9004 17.5878 12.7441 17.7441C12.5879 17.9004 12.5001 18.1123 12.5001 18.3333C12.5001 18.5543 12.5879 18.7663 12.7441 18.9226C12.9004 19.0789 13.1124 19.1667 13.3334 19.1667H16.6667C17.3298 19.1667 17.9657 18.9033 18.4345 18.4344C18.9033 17.9656 19.1667 17.3297 19.1667 16.6667V13.3333C19.1667 13.1123 19.0789 12.9004 18.9227 12.7441C18.7664 12.5878 18.5544 12.5 18.3334 12.5Z" fill="#E3FFCC"/>
<path d="M6.66671 17.5H3.33337C3.11236 17.5 2.9004 17.4122 2.74412 17.2559C2.58784 17.0996 2.50004 16.8877 2.50004 16.6667V13.3333C2.50004 13.1123 2.41224 12.9004 2.25596 12.7441C2.09968 12.5878 1.88772 12.5 1.66671 12.5C1.44569 12.5 1.23373 12.5878 1.07745 12.7441C0.921171 12.9004 0.833374 13.1123 0.833374 13.3333V16.6667C0.833374 17.3297 1.09677 17.9656 1.56561 18.4344C2.03445 18.9033 2.67033 19.1667 3.33337 19.1667H6.66671C6.88772 19.1667 7.09968 19.0789 7.25596 18.9226C7.41224 18.7663 7.50004 18.5543 7.50004 18.3333C7.50004 18.1123 7.41224 17.9004 7.25596 17.7441C7.09968 17.5878 6.88772 17.5 6.66671 17.5Z" fill="#E3FFCC"/>
<path d="M13.3333 10.8333C13.4903 10.8333 13.6442 10.789 13.7771 10.7055C13.9101 10.6219 14.0167 10.5025 14.0847 10.3609C14.1527 10.2194 14.1794 10.0615 14.1616 9.90553C14.1438 9.74951 14.0823 9.6017 13.9842 9.47912L10.6508 5.31245C10.5698 5.21947 10.4698 5.14493 10.3575 5.09386C10.2452 5.04278 10.1233 5.01636 9.99999 5.01636C9.87665 5.01636 9.75474 5.04278 9.64248 5.09386C9.53021 5.14493 9.43019 5.21947 9.34915 5.31245L6.01582 9.47912C5.91768 9.6017 5.85617 9.74951 5.83838 9.90553C5.82058 10.0615 5.84723 10.2194 5.91525 10.3609C5.98327 10.5025 6.0899 10.6219 6.22284 10.7055C6.35578 10.789 6.50963 10.8333 6.66665 10.8333H9.16665V14.1666C9.16665 14.3876 9.25445 14.5996 9.41073 14.7559C9.56701 14.9122 9.77897 15 9.99999 15C10.221 15 10.433 14.9122 10.5892 14.7559C10.7455 14.5996 10.8333 14.3876 10.8333 14.1666V10.8333H13.3333Z" fill="#E3FFCC"/>
</svg>
