<svg width="20" height="20" viewBox="0 0 20 20" fill="none" xmlns="http://www.w3.org/2000/svg">
<path d="M5.83333 13.3334H0.833333C0.3725 13.3334 0 13.7067 0 14.1667V19.1667C0 19.6267 0.3725 20 0.833333 20H5.83333C6.29417 20 6.66667 19.6267 6.66667 19.1667V14.1667C6.66667 13.7067 6.29417 13.3334 5.83333 13.3334Z" fill="#E3FFCC"/>
<path d="M3.33333 6.66667C5.17428 6.66667 6.66667 5.17428 6.66667 3.33333C6.66667 1.49238 5.17428 0 3.33333 0C1.49238 0 0 1.49238 0 3.33333C0 5.17428 1.49238 6.66667 3.33333 6.66667Z" fill="#E3FFCC"/>
<path d="M15.8334 2.5H8.33337V4.16667H15.8334C17.2117 4.16667 18.3334 5.28833 18.3334 6.66667V13.3333C18.3334 14.7117 17.2117 15.8333 15.8334 15.8333H8.33337V17.5H15.8334C18.1309 17.5 20 15.6308 20 13.3333V6.66667C20 4.36917 18.1309 2.5 15.8334 2.5Z" fill="#E3FFCC"/>
</svg>
