<svg width="48" height="48" viewBox="0 0 48 48" fill="none" xmlns="http://www.w3.org/2000/svg">
<rect x="0.5" y="0.5" width="47" height="47" rx="11.5" fill="white"/>
<rect x="0.5" y="0.5" width="47" height="47" rx="11.5" stroke="#E8E7E9"/>
<path d="M24.6 20.1081H12V18.3063H24.6V20.1081ZM13.2 24.9129H25.8V23.1111H13.2V24.9129ZM24.6 27.9159H12V29.7177H24.6V27.9159ZM32.4 20.7087V22.5105H36V20.7087H32.4ZM32.4 27.3153H36V25.5135H32.4V27.3153ZM26.76 13.009C26.448 12.4204 25.752 12 25.08 12H21.444C20.784 12 20.076 12.4204 19.764 13.009L18.624 15.1712H20.652L21.336 13.8619C21.336 13.8619 21.42 13.8018 21.432 13.7898H25.044C25.044 13.7898 25.14 13.8378 25.152 13.8378L28.008 19.2793C28.092 19.4474 28.188 19.8078 28.188 19.988V27.988C28.188 28.1682 28.092 28.5405 28.008 28.6967L25.164 34.1261C25.164 34.1261 25.08 34.1862 25.068 34.1982H21.456C21.456 34.1982 21.36 34.1502 21.348 34.1502L20.64 32.7928H18.66L18.624 32.8168L19.764 34.991C20.076 35.5796 20.772 36 21.444 36H25.08C25.74 36 26.448 35.5796 26.76 34.991L29.616 29.5495C29.832 29.1291 30 28.4805 30 28V20C30 19.5195 29.844 18.8709 29.616 18.4505L26.76 13.009Z" fill="#1D1D23"/>
</svg>
