<svg width="48" height="48" viewBox="0 0 48 48" fill="none" xmlns="http://www.w3.org/2000/svg">
<rect x="0.5" y="0.5" width="47" height="47" rx="9.5" fill="white"/>
<g clip-path="url(#clip0_227_105559)">
<path d="M23.9929 30.8866C22.6195 31.8732 20.9395 32.4466 19.1129 32.4466C14.4595 32.4466 10.6729 28.6599 10.6729 24.0066C10.6729 19.3532 14.4595 15.5532 19.1262 15.5532C20.9529 15.5532 22.6195 16.1266 24.0062 17.1132C21.8462 18.6332 20.4462 21.1532 20.4462 24.0066C20.4462 26.8599 21.8595 29.3666 24.0062 30.8866H23.9929Z" fill="url(#paint0_radial_227_105559)"/>
<g filter="url(#filter0_i_227_105559)">
<path d="M27.5663 24.0066C27.5663 26.8599 26.153 29.3666 24.0063 30.8866C21.8463 29.3666 20.4463 26.8599 20.4463 24.0066C20.4463 21.1533 21.8596 18.6466 24.0063 17.1133C26.1663 18.6333 27.5663 21.1533 27.5663 24.0066Z" fill="#0026AC"/>
</g>
<path d="M37.3265 24.0066C37.3265 28.6732 33.5532 32.4466 28.8732 32.4466C27.0465 32.4466 25.3798 31.8732 23.9932 30.8866C26.1532 29.3666 27.5532 26.8599 27.5532 24.0066C27.5532 21.1532 26.1398 18.6466 23.9932 17.1132C25.3665 16.1266 27.0465 15.5532 28.8732 15.5532C33.5398 15.5532 37.3265 19.3399 37.3265 24.0066Z" fill="url(#paint1_linear_227_105559)"/>
</g>
<rect x="0.5" y="0.5" width="47" height="47" rx="9.5" stroke="#E9E8EA"/>
<defs>
<filter id="filter0_i_227_105559" x="20.4463" y="17.1133" width="8.14095" height="14.7943" filterUnits="userSpaceOnUse" color-interpolation-filters="sRGB">
<feFlood flood-opacity="0" result="BackgroundImageFix"/>
<feBlend mode="normal" in="SourceGraphic" in2="BackgroundImageFix" result="shape"/>
<feColorMatrix in="SourceAlpha" type="matrix" values="0 0 0 0 0 0 0 0 0 0 0 0 0 0 0 0 0 0 127 0" result="hardAlpha"/>
<feOffset dx="1.02083" dy="1.02083"/>
<feGaussianBlur stdDeviation="1.02083"/>
<feComposite in2="hardAlpha" operator="arithmetic" k2="-1" k3="1"/>
<feColorMatrix type="matrix" values="0 0 0 0 0 0 0 0 0 0 0 0 0 0 0 0 0 0 0.1 0"/>
<feBlend mode="multiply" in2="shape" result="effect1_innerShadow_227_105559"/>
</filter>
<radialGradient id="paint0_radial_227_105559" cx="0" cy="0" r="1" gradientUnits="userSpaceOnUse" gradientTransform="translate(11.723 2.73758) rotate(67.1963) scale(115.222 451.353)">
<stop stop-color="#715BF9"/>
<stop offset="0.591893" stop-color="#1378EF"/>
<stop offset="1" stop-color="#38ABD7"/>
</radialGradient>
<linearGradient id="paint1_linear_227_105559" x1="30.6562" y1="15.5504" x2="30.6562" y2="32.4466" gradientUnits="userSpaceOnUse">
<stop offset="0.26" stop-color="#FF5091"/>
<stop offset="0.91" stop-color="#E03071"/>
</linearGradient>
<clipPath id="clip0_227_105559">
<rect width="26.6533" height="16.8933" fill="white" transform="translate(10.6729 15.5532)"/>
</clipPath>
</defs>
</svg>
