<svg width="20" height="20" viewBox="0 0 20 20" fill="none" xmlns="http://www.w3.org/2000/svg">
<path d="M19.9566 12.2367L17.4566 4.73669C17.4221 4.63273 17.3673 4.53659 17.2956 4.45378C17.2239 4.37096 17.1365 4.30309 17.0386 4.25403C16.9406 4.20497 16.8339 4.17568 16.7246 4.16785C16.6154 4.16001 16.5056 4.17378 16.4016 4.20836C16.2977 4.24294 16.2015 4.29766 16.1187 4.36939C16.0359 4.44113 15.968 4.52847 15.919 4.62644C15.8699 4.7244 15.8406 4.83107 15.8328 4.94036C15.825 5.04964 15.8387 5.15939 15.8733 5.26336L18.0108 11.6667H1.98915L4.12331 5.26336C4.15789 5.15939 4.17166 5.04964 4.16382 4.94036C4.15599 4.83107 4.1267 4.7244 4.07764 4.62644C4.02858 4.52847 3.96071 4.44113 3.87789 4.36939C3.79508 4.29766 3.69894 4.24294 3.59498 4.20836C3.49102 4.17378 3.38126 4.16001 3.27198 4.16785C3.16269 4.17568 3.05602 4.20497 2.95806 4.25403C2.86009 4.30309 2.77275 4.37096 2.70101 4.45378C2.62928 4.53659 2.57456 4.63273 2.53998 4.73669L0.0399786 12.2367C0.0126128 12.3218 -0.000893003 12.4107 -2.13905e-05 12.5V17.5C-2.13905e-05 18.1631 0.263371 18.799 0.732212 19.2678C1.20105 19.7366 1.83694 20 2.49998 20H17.5C18.163 20 18.7989 19.7366 19.2677 19.2678C19.7366 18.799 20 18.1631 20 17.5V12.5C19.9998 12.4105 19.9851 12.3216 19.9566 12.2367ZM16.6666 16.25C16.6666 16.3605 16.6227 16.4665 16.5446 16.5447C16.4665 16.6228 16.3605 16.6667 16.25 16.6667H12.0833C11.9728 16.6667 11.8668 16.6228 11.7887 16.5447C11.7105 16.4665 11.6666 16.3605 11.6666 16.25V15.4167C11.6666 15.3062 11.7105 15.2002 11.7887 15.1221C11.8668 15.0439 11.9728 15 12.0833 15H16.25C16.3605 15 16.4665 15.0439 16.5446 15.1221C16.6227 15.2002 16.6666 15.3062 16.6666 15.4167V16.25Z" fill="#09343C"/>
<path d="M13.3333 4.18251H10.8333V0.849172C10.8333 0.628158 10.7455 0.416197 10.5892 0.259916C10.433 0.103636 10.221 0.0158386 9.99999 0.0158386C9.77897 0.0158386 9.56701 0.103636 9.41073 0.259916C9.25445 0.416197 9.16665 0.628158 9.16665 0.849172V4.18251H6.66665C6.50963 4.18245 6.35578 4.22675 6.22284 4.31032C6.0899 4.39389 5.98327 4.51332 5.91525 4.65485C5.84723 4.79638 5.82058 4.95425 5.83838 5.11026C5.85617 5.26628 5.91768 5.41409 6.01582 5.53667L9.34915 9.70334C9.43004 9.79656 9.53001 9.87132 9.6423 9.92256C9.75458 9.97379 9.87656 10.0003 9.99999 10.0003C10.1234 10.0003 10.2454 9.97379 10.3577 9.92256C10.47 9.87132 10.5699 9.79656 10.6508 9.70334L13.9842 5.53667C14.0823 5.41409 14.1438 5.26628 14.1616 5.11026C14.1794 4.95425 14.1527 4.79638 14.0847 4.65485C14.0167 4.51332 13.9101 4.39389 13.7771 4.31032C13.6442 4.22675 13.4903 4.18245 13.3333 4.18251Z" fill="#09343C"/>
</svg>
