<svg width="20" height="20" viewBox="0 0 20 20" fill="none" xmlns="http://www.w3.org/2000/svg">
<path d="M19.1667 2.5H10V4.16667H19.1667C19.6267 4.16667 20 3.79333 20 3.33333C20 2.87333 19.6267 2.5 19.1667 2.5Z" fill="#E3FFCC"/>
<path d="M0.833333 4.16667H5V5.83333C5 6.29333 5.37333 6.66667 5.83333 6.66667H7.5C7.96 6.66667 8.33333 6.29333 8.33333 5.83333V0.833333C8.33333 0.373333 7.96 0 7.5 0H5.83333C5.37333 0 5 0.373333 5 0.833333V2.5H0.833333C0.373333 2.5 0 2.87333 0 3.33333C0 3.79333 0.373333 4.16667 0.833333 4.16667Z" fill="#E3FFCC"/>
<path d="M19.1667 15.8333H10V17.5H19.1667C19.6267 17.5 20 17.1266 20 16.6666C20 16.2066 19.6267 15.8333 19.1667 15.8333Z" fill="#E3FFCC"/>
<path d="M0.833333 17.5H5V19.1666C5 19.6266 5.37333 20 5.83333 20H7.5C7.96 20 8.33333 19.6266 8.33333 19.1666V14.1666C8.33333 13.7066 7.96 13.3333 7.5 13.3333H5.83333C5.37333 13.3333 5 13.7066 5 14.1666V15.8333H0.833333C0.373333 15.8333 0 16.2066 0 16.6666C0 17.1266 0.373333 17.5 0.833333 17.5Z" fill="#E3FFCC"/>
<path d="M19.1666 9.16669H16.6666V10.8334H19.1666C19.6266 10.8334 20 10.46 20 10C20 9.54002 19.6266 9.16669 19.1666 9.16669Z" fill="#E3FFCC"/>
<path d="M0.833333 10.8334H11.6667V12.5C11.6667 12.96 12.04 13.3334 12.5 13.3334H14.1667C14.6267 13.3334 15 12.96 15 12.5V7.50002C15 7.04002 14.6267 6.66669 14.1667 6.66669H12.5C12.04 6.66669 11.6667 7.04002 11.6667 7.50002V9.16669H0.833333C0.373333 9.16669 0 9.54002 0 10C0 10.46 0.373333 10.8334 0.833333 10.8334Z" fill="#E3FFCC"/>
</svg>
