<svg width="20" height="20" viewBox="0 0 20 20" fill="none" xmlns="http://www.w3.org/2000/svg">
<path d="M13.7367 0.93746C13.4733 0.791627 13.1483 0.799127 12.8908 0.95996L6.4275 4.99996H3.33333C1.495 4.99996 0 6.49496 0 8.33329C0 10.1716 1.495 11.6666 3.33333 11.6666H6.4275L12.8917 15.7066C13.0267 15.7908 13.1792 15.8333 13.3333 15.8333C13.4725 15.8333 13.6117 15.7983 13.7367 15.7291C14.0025 15.5816 14.1667 15.3025 14.1667 15V1.66663C14.1667 1.36413 14.0025 1.08496 13.7367 0.93746Z" fill="#E3FFCC"/>
<path d="M20 7.49994H16.6667V9.16661H20V7.49994Z" fill="#E3FFCC"/>
<path d="M18.2448 2.61175L15.3571 4.2785L16.1902 5.722L19.0779 4.05525L18.2448 2.61175Z" fill="#E3FFCC"/>
<path d="M16.1898 10.9443L15.3566 12.3878L18.2443 14.0546L19.0775 12.6111L16.1898 10.9443Z" fill="#E3FFCC"/>
<path d="M6.41831 13.3333H3.49164L5.77081 18.3724C6.07247 19.0483 6.86414 19.3508 7.53997 19.0499C8.21581 18.7483 8.51831 17.9566 8.21747 17.2808L6.41831 13.3333Z" fill="#E3FFCC"/>
</svg>
