<svg width="20" height="20" viewBox="0 0 20 20" fill="none" xmlns="http://www.w3.org/2000/svg">
<path d="M17.5 0.833344H2.5C1.11917 0.833344 0 1.95251 0 3.33334V16.6667C0 18.0475 1.11917 19.1667 2.5 19.1667H17.5C18.8808 19.1667 20 18.0475 20 16.6667V3.33334C20 1.95251 18.8808 0.833344 17.5 0.833344ZM5.83333 2.50001C6.29333 2.50001 6.66667 2.87334 6.66667 3.33334C6.66667 3.79334 6.29333 4.16668 5.83333 4.16668C5.37333 4.16668 5 3.79334 5 3.33334C5 2.87334 5.37333 2.50001 5.83333 2.50001ZM2.5 2.50001C2.96 2.50001 3.33333 2.87334 3.33333 3.33334C3.33333 3.79334 2.96 4.16668 2.5 4.16668C2.04 4.16668 1.66667 3.79334 1.66667 3.33334C1.66667 2.87334 2.04 2.50001 2.5 2.50001ZM17.5 17.5H2.5C2.04 17.5 1.66667 17.1267 1.66667 16.6667V5.83334H18.3333V16.6667C18.3333 17.1267 17.96 17.5 17.5 17.5Z" fill="#09343C"/>
<path d="M6.66668 7.5H3.33334V15.8333H6.66668V7.5Z" fill="#09343C"/>
<path d="M16.6667 7.5H8.33334V15.8333H16.6667V7.5Z" fill="#09343C"/>
</svg>
