<svg width="20" height="20" viewBox="0 0 20 20" fill="none" xmlns="http://www.w3.org/2000/svg">
<g clip-path="url(#clip0_0_5905)">
<path d="M16.6666 8.33331H3.33329C2.41246 8.33331 1.66663 9.07915 1.66663 9.99998V18.3333C1.66663 19.2541 2.41246 20 3.33329 20H16.6666C17.5875 20 18.3333 19.2541 18.3333 18.3333V9.99998C18.3333 9.07915 17.5875 8.33331 16.6666 8.33331ZM9.99996 15.8333C9.07913 15.8333 8.33329 15.0875 8.33329 14.1666C8.33329 13.2458 9.07913 12.5 9.99996 12.5C10.9208 12.5 11.6666 13.2458 11.6666 14.1666C11.6666 15.0875 10.9208 15.8333 9.99996 15.8333Z" fill="#E3FFCC"/>
<path d="M14.9999 6.66668H13.3333V5.00001C13.3524 3.18001 11.8941 1.68834 10.0741 1.66668H10.0391C8.20827 1.63501 6.69827 3.09251 6.66661 4.92334V4.92584V6.66668H4.99994V4.91668C5.02744 2.19668 7.23744 0.0050084 9.95744 8.40419e-06H10.0083C12.7599 -0.0049916 14.9949 2.22167 14.9999 4.97334C14.9999 4.98501 14.9999 4.99668 14.9999 5.00834V6.66668Z" fill="#E3FFCC"/>
</g>
<defs>
<clipPath id="clip0_0_5905">
<rect width="20" height="20" fill="white"/>
</clipPath>
</defs>
</svg>
