<svg width="20" height="20" viewBox="0 0 20 20" fill="none" xmlns="http://www.w3.org/2000/svg">
<path d="M19.1667 4.16668H10.4167L7.91667 0.833344H0.833333C0.61232 0.833344 0.400358 0.921141 0.244078 1.07742C0.0877974 1.2337 0 1.44566 0 1.66668L0 16.6667C0 17.3297 0.263392 17.9656 0.732233 18.4344C1.20107 18.9033 1.83696 19.1667 2.5 19.1667H17.5C18.163 19.1667 18.7989 18.9033 19.2678 18.4344C19.7366 17.9656 20 17.3297 20 16.6667V5.00001C20 4.779 19.9122 4.56704 19.7559 4.41075C19.5996 4.25447 19.3877 4.16668 19.1667 4.16668ZM8.67833 14.1667L7.5 15.345L3.82167 11.6667L7.5 7.98834L8.67833 9.16668L6.17833 11.6667L8.67833 14.1667ZM12.5 15.345L11.3217 14.1667L13.8217 11.6667L11.3217 9.16668L12.5 7.98834L16.1783 11.6667L12.5 15.345Z" fill="#09343C"/>
</svg>
