<svg width="20" height="20" viewBox="0 0 20 20" fill="none" xmlns="http://www.w3.org/2000/svg">
<path d="M9.99996 20C9.77895 20 9.56698 19.9122 9.4107 19.7559C9.25442 19.5996 9.16663 19.3877 9.16663 19.1667C9.16663 18.9457 9.25442 18.7337 9.4107 18.5774C9.56698 18.4211 9.77895 18.3333 9.99996 18.3333C12.2101 18.3333 14.3297 17.4554 15.8925 15.8926C17.4553 14.3298 18.3333 12.2101 18.3333 10C18.3333 7.78986 17.4553 5.67025 15.8925 4.10744C14.3297 2.54464 12.2101 1.66667 9.99996 1.66667C9.77895 1.66667 9.56698 1.57887 9.4107 1.42259C9.25442 1.26631 9.16663 1.05435 9.16663 0.833333C9.16663 0.61232 9.25442 0.400358 9.4107 0.244078C9.56698 0.0877974 9.77895 0 9.99996 0C12.6521 0 15.1957 1.05357 17.071 2.92893C18.9464 4.8043 20 7.34784 20 10C20 12.6522 18.9464 15.1957 17.071 17.0711C15.1957 18.9464 12.6521 20 9.99996 20Z" fill="#E3FFCC"/>
<path d="M0.870833 11.5942C0.661032 11.5949 0.458691 11.5164 0.304214 11.3744C0.149737 11.2325 0.0544929 11.0374 0.0375 10.8283C0.0183333 10.5542 0 10.28 0 10C0 9.72 0.0183333 9.44583 0.0408333 9.17166C0.0475318 9.06098 0.0762517 8.95275 0.12531 8.85331C0.174369 8.75387 0.24278 8.66522 0.326535 8.59255C0.41029 8.51989 0.507705 8.46467 0.613072 8.43013C0.718439 8.39559 0.82964 8.38243 0.940159 8.39141C1.05068 8.40039 1.15829 8.43134 1.2567 8.48245C1.35511 8.53355 1.44232 8.60378 1.51324 8.68902C1.58416 8.77425 1.63736 8.87279 1.66971 8.97885C1.70207 9.0849 1.71293 9.19635 1.70167 9.30666C1.68417 9.535 1.66667 9.76583 1.66667 10C1.66667 10.2342 1.68417 10.465 1.70167 10.6933C1.71056 10.8024 1.69787 10.9122 1.66432 11.0164C1.63077 11.1207 1.57701 11.2172 1.50613 11.3007C1.43524 11.3841 1.34861 11.4527 1.25118 11.5026C1.15376 11.5526 1.04745 11.5828 0.938333 11.5917C0.916111 11.5933 0.893611 11.5942 0.870833 11.5942Z" fill="#E3FFCC"/>
<path d="M5.20245 3.03414C5.02079 3.03459 4.84395 2.97566 4.69887 2.86632C4.55378 2.75699 4.4484 2.60324 4.39877 2.42848C4.34914 2.25373 4.35797 2.06754 4.42392 1.89827C4.48988 1.729 4.60934 1.58592 4.76412 1.49081C5.23533 1.2004 5.7298 0.949537 6.24245 0.740806C6.34456 0.694819 6.45489 0.669883 6.56684 0.667488C6.6788 0.665093 6.7901 0.685288 6.89407 0.726867C6.99805 0.768446 7.09259 0.830555 7.17203 0.909485C7.25146 0.988415 7.31418 1.08255 7.35643 1.18626C7.39867 1.28997 7.41958 1.40113 7.41791 1.5131C7.41623 1.62507 7.392 1.73556 7.34667 1.83796C7.30134 1.94036 7.23584 2.03257 7.15407 2.10909C7.07231 2.1856 6.97596 2.24486 6.87078 2.28331C6.44366 2.45953 6.03172 2.67052 5.63912 2.91414C5.50755 2.99396 5.35633 3.03552 5.20245 3.03414Z" fill="#E3FFCC"/>
<path d="M1.82329 6.70331C1.69265 6.70356 1.56382 6.67271 1.44746 6.61331C1.25076 6.51297 1.10192 6.33866 1.03364 6.12866C0.965358 5.91867 0.983217 5.69015 1.08329 5.49331C1.33369 5.00036 1.62411 4.52878 1.95163 4.08331C2.08555 3.91408 2.2799 3.80339 2.49379 3.77456C2.70767 3.74573 2.92439 3.801 3.09835 3.92874C3.2723 4.05648 3.38991 4.24672 3.42643 4.45943C3.46294 4.67213 3.41552 4.89071 3.29413 5.06915C3.01984 5.4421 2.77679 5.83706 2.56746 6.24998C2.49733 6.38686 2.39069 6.50165 2.25935 6.58166C2.12801 6.66167 1.97709 6.70378 1.82329 6.70331Z" fill="#E3FFCC"/>
<path d="M2.60674 16.235C2.47561 16.2352 2.34628 16.2044 2.22928 16.1452C2.11228 16.086 2.01091 16 1.93341 15.8942C1.60561 15.4468 1.31545 14.9729 1.06591 14.4775C1.01666 14.3798 0.987158 14.2732 0.979079 14.1641C0.971001 14.0549 0.984507 13.9452 1.01883 13.8412C1.05314 13.7372 1.1076 13.6411 1.1791 13.5581C1.25059 13.4752 1.33771 13.4072 1.43549 13.358C1.53327 13.3087 1.63979 13.2792 1.74898 13.2711C1.85816 13.2631 1.96786 13.2766 2.07183 13.3109C2.17579 13.3452 2.27197 13.3997 2.35489 13.4711C2.43781 13.5426 2.50583 13.6298 2.55507 13.7275C2.76313 14.1407 3.00506 14.536 3.27841 14.9092C3.34333 14.9976 3.39016 15.098 3.41621 15.2045C3.44226 15.3111 3.44702 15.4217 3.43022 15.5301C3.41342 15.6385 3.37539 15.7425 3.31831 15.8361C3.26122 15.9298 3.18621 16.0113 3.09757 16.0759C2.9553 16.1803 2.7832 16.2361 2.60674 16.235Z" fill="#E3FFCC"/>
<path d="M6.54407 19.3209C6.43625 19.3209 6.32949 19.2997 6.2299 19.2584C5.71617 19.0476 5.22109 18.7939 4.7499 18.5001C4.57224 18.3794 4.44802 18.1948 4.40315 17.9848C4.35829 17.7747 4.39625 17.5555 4.5091 17.3728C4.62196 17.1901 4.80101 17.058 5.0089 17.004C5.21678 16.9501 5.43746 16.9786 5.6249 17.0834C6.01776 17.3285 6.43028 17.5407 6.85823 17.7176C7.0371 17.7905 7.18508 17.9233 7.27686 18.0932C7.36865 18.2632 7.39855 18.4597 7.36145 18.6493C7.32434 18.8389 7.22254 19.0097 7.07344 19.1325C6.92435 19.2553 6.73723 19.3225 6.54407 19.3226V19.3209Z" fill="#E3FFCC"/>
<path d="M8.33331 14.1666C8.11231 14.1666 7.90038 14.0788 7.74414 13.9225L4.41081 10.5891C4.25901 10.432 4.17501 10.2215 4.17691 10.003C4.17881 9.78447 4.26645 9.57546 4.42096 9.42095C4.57546 9.26644 4.78447 9.1788 5.00297 9.1769C5.22147 9.17501 5.43197 9.259 5.58914 9.4108L8.33331 12.155L14.4108 6.07747C14.4877 5.99787 14.5796 5.93439 14.6813 5.89071C14.783 5.84704 14.8923 5.82405 15.003 5.82309C15.1136 5.82213 15.2234 5.84321 15.3258 5.88511C15.4282 5.92702 15.5212 5.98889 15.5995 6.06714C15.6777 6.14538 15.7396 6.23842 15.7815 6.34084C15.8234 6.44325 15.8445 6.55298 15.8435 6.66363C15.8426 6.77428 15.8196 6.88363 15.7759 6.9853C15.7322 7.08697 15.6687 7.17893 15.5891 7.2558L8.92247 13.9225C8.76623 14.0788 8.5543 14.1666 8.33331 14.1666Z" fill="#E3FFCC"/>
</svg>
