<svg width="64" height="64" viewBox="0 0 64 64" fill="none" xmlns="http://www.w3.org/2000/svg">
<rect width="64" height="64" rx="14" fill="white"/>
<path d="M29.2144 12.4445C20.5576 12.4445 13.501 19.5011 13.501 28.1579C13.501 36.8147 20.5576 43.8713 29.2144 43.8713C29.4384 43.8713 29.6625 43.8713 29.8865 43.8553L29.8065 42.2552L29.6785 39.967L29.4864 35.8546C29.4064 35.8706 29.3104 35.8706 29.2144 35.8706C24.974 35.8706 21.5017 32.4143 21.5017 28.1579C21.5017 23.9015 24.974 20.4452 29.2144 20.4452C33.4548 20.4452 36.9271 23.9015 36.9271 28.1579C36.9271 29.006 36.7831 29.822 36.5271 30.5901L43.6957 34.2865C44.4798 32.3983 44.9279 30.3181 44.9279 28.1579C44.9279 19.5011 37.8872 12.4445 29.2144 12.4445Z" fill="url(#paint0_radial_70_58719)"/>
<g filter="url(#filter0_i_70_58719)">
<path d="M43.6956 34.2867C41.3754 39.7112 36.0949 43.5995 29.8864 43.8555L29.8064 42.2554L29.6783 39.9672L29.4863 35.8548C32.7826 35.7428 35.5349 33.5826 36.527 30.5903L43.6956 34.2867V34.2867Z" fill="#0026AC"/>
</g>
<path d="M29.4865 35.8547L29.2145 30.3822C29.1345 28.766 30.8626 27.6619 32.2868 28.414L36.5271 30.5902C35.535 33.5825 32.7828 35.7427 29.4865 35.8547V35.8547Z" fill="url(#paint1_linear_70_58719)"/>
<path d="M49.5362 40.8628L41.4555 46.0313L38.9912 47.6314L33.3907 51.2157C32.0146 52.0958 30.2064 51.1677 30.1424 49.5516L29.8864 43.8551C36.095 43.599 41.3755 39.7107 43.6957 34.2862L49.3442 37.1985C50.8003 37.9505 50.8963 39.9667 49.5362 40.8628V40.8628Z" fill="url(#paint2_linear_70_58719)"/>
<rect x="0.75" y="0.75" width="62.5" height="62.5" rx="13.25" stroke="black" stroke-opacity="0.071" stroke-width="1.5"/>
<defs>
<filter id="filter0_i_70_58719" x="29.4863" y="30.5903" width="15.5568" height="14.6127" filterUnits="userSpaceOnUse" color-interpolation-filters="sRGB">
<feFlood flood-opacity="0" result="BackgroundImageFix"/>
<feBlend mode="normal" in="SourceGraphic" in2="BackgroundImageFix" result="shape"/>
<feColorMatrix in="SourceAlpha" type="matrix" values="0 0 0 0 0 0 0 0 0 0 0 0 0 0 0 0 0 0 127 0" result="hardAlpha"/>
<feOffset dx="1.3475" dy="1.3475"/>
<feGaussianBlur stdDeviation="1.3475"/>
<feComposite in2="hardAlpha" operator="arithmetic" k2="-1" k3="1"/>
<feColorMatrix type="matrix" values="0 0 0 0 0 0 0 0 0 0 0 0 0 0 0 0 0 0 0.1 0"/>
<feBlend mode="multiply" in2="shape" result="effect1_innerShadow_70_58719"/>
</filter>
<radialGradient id="paint0_radial_70_58719" cx="0" cy="0" r="1" gradientUnits="userSpaceOnUse" gradientTransform="translate(15.9761 -11.3966) rotate(61.956) scale(223.882 1018.55)">
<stop stop-color="#715BF9"/>
<stop offset="0.591893" stop-color="#1378EF"/>
<stop offset="1" stop-color="#38ABD7"/>
</radialGradient>
<linearGradient id="paint1_linear_70_58719" x1="32.8677" y1="35.5834" x2="32.8677" y2="31.3399" gradientUnits="userSpaceOnUse">
<stop stop-color="#FFAD00"/>
<stop offset="1" stop-color="#FF7600"/>
</linearGradient>
<linearGradient id="paint2_linear_70_58719" x1="40.1879" y1="50.9455" x2="40.1879" y2="41.4058" gradientUnits="userSpaceOnUse">
<stop stop-color="#FFAD00"/>
<stop offset="1" stop-color="#FF7600"/>
</linearGradient>
</defs>
</svg>
