<svg width="20" height="20" viewBox="0 0 20 20" fill="none" xmlns="http://www.w3.org/2000/svg">
<g clip-path="url(#clip0_0_5946)">
<path d="M10.0001 2.38548e-06C8.86389 0.00311617 7.73655 0.200401 6.66679 0.583336V10.8333H8.75012C8.83011 10.8334 8.90838 10.8565 8.97559 10.8999C9.04281 10.9433 9.09612 11.005 9.12916 11.0779C9.1622 11.1507 9.17357 11.2316 9.16192 11.3107C9.15027 11.3898 9.11609 11.4639 9.06345 11.5242L6.14679 14.8575C6.10768 14.9021 6.0595 14.9379 6.00546 14.9624C5.95142 14.9868 5.89278 14.9995 5.83345 14.9995C5.77412 14.9995 5.71548 14.9868 5.66144 14.9624C5.60741 14.9379 5.55923 14.9021 5.52012 14.8575L2.60345 11.5242C2.55082 11.4639 2.51664 11.3898 2.50499 11.3107C2.49334 11.2316 2.50471 11.1507 2.53775 11.0779C2.57079 11.005 2.6241 10.9433 2.69131 10.8999C2.75852 10.8565 2.8368 10.8334 2.91679 10.8333H5.00012V1.34834C2.8409 2.59342 1.22511 4.60069 0.46999 6.97603C-0.285131 9.35137 -0.125032 11.9232 0.918853 14.1865C1.96274 16.4499 3.815 18.2413 6.11196 19.209C8.40893 20.1766 10.9847 20.2507 13.3335 19.4167V9.16667H11.2501C11.1701 9.16659 11.0919 9.14348 11.0246 9.10012C10.9574 9.05675 10.9041 8.99496 10.8711 8.92211C10.838 8.84926 10.8267 8.76845 10.8383 8.68931C10.85 8.61018 10.8842 8.53607 10.9368 8.47583L13.8535 5.1425C13.8935 5.0995 13.942 5.06521 13.9959 5.04176C14.0498 5.01832 14.108 5.00622 14.1668 5.00622C14.2256 5.00622 14.2837 5.01832 14.3376 5.04176C14.3915 5.06521 14.44 5.0995 14.4801 5.1425L17.3968 8.47583C17.4494 8.53607 17.4836 8.61018 17.4953 8.68931C17.5069 8.76845 17.4955 8.84926 17.4625 8.92211C17.4294 8.99496 17.3761 9.05675 17.3089 9.10012C17.2417 9.14348 17.1634 9.16659 17.0835 9.16667H15.0001V18.6517C16.9068 17.552 18.3971 15.8537 19.2398 13.8204C20.0824 11.787 20.2303 9.53235 19.6603 7.40637C19.0904 5.2804 17.8346 3.40202 16.0879 2.06281C14.3411 0.723604 12.2012 -0.00151783 10.0001 2.38548e-06Z" fill="#E3FFCC"/>
</g>
<defs>
<clipPath id="clip0_0_5946">
<rect width="20" height="20" fill="white"/>
</clipPath>
</defs>
</svg>
