<?xml version="1.0" encoding="UTF-8" standalone="no"?>
<svg
   width="38.513718"
   height="39.390682"
   viewBox="0 0 38.513718 39.390682"
   fill="none"
   version="1.1"
   id="svg5"
   sodipodi:docname="logo.svg"
   inkscape:version="1.4.2 (ebf0e940, 2025-05-08)"
   xmlns:inkscape="http://www.inkscape.org/namespaces/inkscape"
   xmlns:sodipodi="http://sodipodi.sourceforge.net/DTD/sodipodi-0.dtd"
   xmlns="http://www.w3.org/2000/svg"
   xmlns:svg="http://www.w3.org/2000/svg">
  <sodipodi:namedview
     id="namedview5"
     pagecolor="#ffffff"
     bordercolor="#000000"
     borderopacity="0.25"
     inkscape:showpageshadow="2"
     inkscape:pageopacity="0.0"
     inkscape:pagecheckerboard="0"
     inkscape:deskcolor="#d1d1d1"
     inkscape:zoom="2.79"
     inkscape:cx="127.06093"
     inkscape:cy="19.892473"
     inkscape:window-width="1352"
     inkscape:window-height="766"
     inkscape:window-x="0"
     inkscape:window-y="38"
     inkscape:window-maximized="0"
     inkscape:current-layer="g1" />
  <g
     clip-path="url(#clip0_78_463)"
     id="g3"
     transform="translate(-0.988037)">
    <g
       clip-path="url(#clip1_78_463)"
       id="g1">
      <g
         clip-path="url(#clip2_78_463-3)"
         id="g2"
         transform="translate(-1.4862449,-0.609319)">
        <path
           d="M 8.05872,0 18.1331,5.7654 h 5.6746 L 33.9174,0 35.9383,2.02091 27.5421,10.417 c -0.5543,0.5544 -1.653,1.008 -2.4392,1.008 h -8.2247 c -0.7862,0 -1.8849,-0.4536 -2.4392,-1.008 L 6.0378,2.02091 Z M 35.9383,37.9791 27.5421,29.583 c -0.5543,-0.5544 -1.653,-1.008 -2.4392,-1.008 h -8.2247 c -0.7862,0 -1.8849,0.4536 -2.4392,1.008 L 6.04284,37.9791 8.06376,40 18.1734,34.2346 h 5.6747 L 33.9224,40 Z M 30.571,13.4459 c -0.5544,0.5544 -1.0079,1.653 -1.0079,2.4392 v 8.2248 c 0,0.7862 0.4535,1.8848 1.0079,2.4392 l 8.3961,8.3961 2.0209,-2.0209 -5.7654,-10.1096 V 17.14 L 40.988,7.06564 38.9671,5.04473 Z M 3.00895,34.9502 11.4051,26.5541 c 0.5543,-0.5544 1.0079,-1.653 1.0079,-2.4392 v -8.2248 c 0,-0.7862 -0.4536,-1.8848 -1.0079,-2.4392 L 3.00895,5.04977 0.988037,7.07068 6.75344,17.1803 V 22.855 L 0.988037,32.9293 Z"
           fill="#072024"
           id="path2" />
      </g>
    </g>
  </g>
  <defs
     id="defs5">
    <clipPath
       id="clip0_78_463">
      <rect
         width="254.98801"
         height="40"
         fill="#ffffff"
         transform="translate(0.988037)"
         id="rect3"
         x="0"
         y="0" />
    </clipPath>
    <clipPath
       id="clip1_78_463">
      <rect
         width="254.98801"
         height="40"
         fill="#ffffff"
         transform="translate(0.988037)"
         id="rect4"
         x="0"
         y="0" />
    </clipPath>
    <clipPath
       id="clip2_78_463">
      <rect
         width="40"
         height="40"
         fill="#ffffff"
         transform="translate(0.988037)"
         id="rect5"
         x="0"
         y="0" />
    </clipPath>
    <clipPath
       id="clip2_78_463-3">
      <rect
         width="40"
         height="40"
         fill="#ffffff"
         transform="translate(0.988037)"
         id="rect5-8"
         x="0"
         y="0" />
    </clipPath>
  </defs>
</svg>
