<svg width="170" height="40" viewBox="0 0 170 40" fill="none" xmlns="http://www.w3.org/2000/svg">
<path d="M25.3055 17.7035V13.715L19.9539 7.94838L16.2655 7.27817V3.23554V0L7.80915 8.43464L0 26.0226L12.1419 29.7159L7.00364 23.4929L10.1691 9.93761L14.2687 4.74422V13.1289L10.1691 16.7167L19.5667 19.6841L22.1683 18.1099L25.7267 20.8634C25.4836 21.9386 26.0347 23.0366 27.0395 23.473L27.0805 23.4915C26.217 24.9888 24.7714 24.9745 23.0925 24.3599L17.8327 22.0284L15.7384 24.3599L20.1334 29.4977L15.7709 33.7713L4.30874 30.1408L13.2654 40L23.0643 32.8373V27.2404C26.6198 28.1986 28.9868 26.3549 29.904 22.0741L25.3055 17.7035ZM20.2959 16.9035L17.5939 14.4993H21.1367L21.9917 15.9053L20.2959 16.9035Z" fill="#1D1D23"/>
<path d="M25.3053 3.30087L21.0688 7.2608L25.3053 11.7712V3.30087Z" fill="#1D1D23"/>
<path d="M166.388 18.1688C163.688 18.1688 162.806 20.575 162.806 23.8063V30.5063H159.956V15.7H162.806V18.55C163.481 16.5813 164.656 15.7 166.744 15.7H168.538V18.1688H166.394H166.388Z" fill="#1D1D23"/>
<path d="M150.5 30.7438C146.063 30.7438 142.863 27.5437 142.863 23.1062C142.863 18.6687 146.063 15.4688 150.5 15.4688C154.938 15.4688 158.106 18.6687 158.106 23.1062C158.106 27.5437 154.931 30.7438 150.5 30.7438ZM145.769 23.1062C145.769 26.1312 147.681 28.25 150.5 28.25C153.319 28.25 155.2 26.1375 155.2 23.1062C155.2 20.075 153.288 17.9688 150.5 17.9688C147.713 17.9688 145.769 20.0812 145.769 23.1062Z" fill="#1D1D23"/>
<path d="M134.825 11.0625H137.675V15.7063H142.05V18.175H137.675V25.575C137.675 27.1625 138.556 28.0438 139.969 28.0438H142.056V30.5125H139.763C136.769 30.5125 134.825 28.6938 134.825 25.6625V18.175H131.8V15.7063H134.825V11.0625Z" fill="#1D1D23"/>
<path d="M117.925 30.5063V9.50626H120.806V21.6063L127.238 15.7H130.938L124.713 21.4875L131.5 30.5063H127.975L122.656 23.425L120.806 25.1313V30.5063H117.925Z" fill="#1D1D23"/>
<path d="M115.544 15.7V30.5063H112.694V27.8938C111.9 29.7438 110.106 30.7438 107.906 30.7438C104.556 30.7438 102.381 28.3375 102.381 24.8125V15.7063H105.231V24.2563C105.231 26.6063 106.613 28.1938 108.7 28.1938C111.019 28.1938 112.694 26.3125 112.694 23.7313V15.7125H115.544V15.7Z" fill="#1D1D23"/>
<path d="M92.5061 30.7438C87.9499 30.7438 85.3999 27.5125 85.3999 23.1063C85.3999 18.7 87.9562 15.4688 92.4812 15.4688C94.5062 15.4688 96.2686 16.4375 97.1499 17.875V9.5H99.9999V30.5H97.1499V28.2937C96.2686 29.7625 94.4499 30.7313 92.5061 30.7313V30.7438ZM88.2749 23.1063C88.2749 26.1938 90.0687 28.25 92.8312 28.25C95.5937 28.25 97.3812 26.1938 97.3812 23.1063C97.3812 20.0188 95.5624 17.9688 92.8312 17.9688C90.0999 17.9688 88.2749 20.025 88.2749 23.1063Z" fill="#1D1D23"/>
<path d="M70.4249 30.5062V15.7H73.275V18.3125C74.0687 16.4625 75.8312 15.4625 78.0312 15.4625C81.3812 15.4625 83.5562 17.8687 83.5562 21.3937V30.5H80.7062V21.95C80.7062 19.6 79.3249 18.0125 77.2374 18.0125C74.9187 18.0125 73.2687 19.8937 73.2687 22.475V30.4937H70.4187L70.4249 30.5062Z" fill="#1D1D23"/>
<path d="M61.2437 30.7438C56.8062 30.7438 53.6062 27.5437 53.6062 23.1062C53.6062 18.6687 56.8062 15.4688 61.2437 15.4688C65.6812 15.4688 68.85 18.6687 68.85 23.1062C68.85 27.5437 65.675 30.7438 61.2437 30.7438ZM56.5187 23.1062C56.5187 26.1312 58.4312 28.25 61.2499 28.25C64.0687 28.25 65.95 26.1375 65.95 23.1062C65.95 20.075 64.0374 17.9688 61.2499 17.9688C58.4624 17.9688 56.5187 20.0812 56.5187 23.1062Z" fill="#1D1D23"/>
<path d="M45.3125 30.7438C40.6687 30.7438 38 27.1875 38 23.1062C38 19.025 40.675 15.4688 45.3125 15.4688C48.7812 15.4688 51.775 17.525 52.1875 20.875H49.3375C49.075 19.2 47.4 17.9688 45.3688 17.9688C42.4313 17.9688 40.9625 20.2625 40.9625 23.1062C40.9625 25.95 42.4625 28.25 45.4 28.25C47.425 28.25 48.8938 27.1937 49.3688 25.5187H52.1875C51.7187 28.6312 49.1062 30.75 45.3125 30.75V30.7438Z" fill="#1D1D23"/>
</svg>
