<svg width="16" height="17" viewBox="0 0 16 17" fill="none" xmlns="http://www.w3.org/2000/svg">
<g clip-path="url(#clip0_2077_233143)">
<path d="M15.7531 15.2188L11.5656 11.0312C12.4719 9.92188 12.9719 8.525 12.9719 7C12.9719 3.40937 10.0616 0.5 6.47188 0.5C2.88219 0.5 0 3.41031 0 7C0 10.5897 2.91 13.5 6.47188 13.5C7.99656 13.5 9.39531 12.9716 10.5031 12.0925L14.6906 16.28C14.8656 16.4281 15.0594 16.5 15.25 16.5C15.4406 16.5 15.6337 16.4268 15.7803 16.2803C16.0719 15.9875 16.0719 15.5125 15.7531 15.2188ZM1.5 7C1.5 4.24312 3.74312 2 6.5 2C9.25688 2 11.5 4.24312 11.5 7C11.5 9.75688 9.25688 12 6.5 12C3.74312 12 1.5 9.75625 1.5 7Z" fill="#1A1523"/>
</g>
<defs>
<clipPath id="clip0_2077_233143">
<rect width="16" height="16" fill="white" transform="translate(0 0.5)"/>
</clipPath>
</defs>
</svg>
