<svg xmlns="http://www.w3.org/2000/svg" width="1288" height="234" fill="none"><path fill="#1A1523" d="M560.683 110.003v-4.565l-6.176-6.602-4.256-.767v-8.331l-9.759 9.655-9.011 20.133 14.011 4.228-5.929-7.124 3.652-15.516 4.732-5.946v9.599l-4.732 4.107 10.845 3.396 3.003-1.802 4.106 3.152a2.62 2.62 0 0 0 1.515 2.988l.048.021c-.997 1.714-2.665 1.697-4.603.994l-6.07-2.669-2.416 2.669 5.071 5.882-5.034 4.891-13.226-4.155 10.335 11.285 11.308-8.199v-6.407c4.102 1.098 6.834-1.013 7.893-5.914l-5.307-5.003zm-5.781-.916-3.118-2.752h4.089l.986 1.61-1.957 1.142zm5.781-15.571-4.89 4.533 4.89 5.163v-9.696zm27.591 24.705h3.446v.129c-.311 3.478-2.897 6.984-8.004 6.984-5.106 0-8.736-3.78-8.736-9.204 0-5.424 3.511-9.195 8.736-9.195 5.227 0 7.693 3.506 7.996 6.985v.119h-3.437l-.019-.092c-.265-1.735-1.614-3.762-4.5-3.762-3.09 0-5.254 2.45-5.254 5.946 0 3.497 2.164 5.957 5.254 5.957 2.887 0 4.235-2.028 4.5-3.763l.018-.104zm13.98-11.289c-5.088 0-8.636 3.78-8.636 9.195 0 5.414 3.548 9.205 8.636 9.205 5.087 0 8.646-3.781 8.646-9.205 0-5.425-3.557-9.195-8.646-9.195zm5.125 9.196c0 3.506-2.109 5.956-5.125 5.956s-5.116-2.45-5.116-5.956c0-3.506 2.109-5.946 5.116-5.946 3.007 0 5.125 2.45 5.125 5.946zm21.968-1.652v10.581h-3.521v-9.893c0-3.497-1.256-5.121-3.95-5.121-2.494 0-5.181 2.551-5.181 6.671v8.343h-3.529v-17.849h3.529v1.274c0 .634.027 1.257-.522 2.184l.403.386c.733-1.662 2.961-4.12 6.124-4.12 4.354 0 6.647 2.606 6.647 7.544zm15.971-14.426v8.645c0 .605.119 1.028.533 1.715l-.441.368c-.853-2.341-3.181-3.846-5.968-3.846-4.566 0-7.884 3.873-7.884 9.205 0 5.331 3.318 9.196 7.884 9.196 2.657 0 4.904-1.358 5.876-3.514v3.24h3.532v-25.007h-3.532v-.002zm-5.18 22.035c-2.338 0-5.051-1.561-5.051-5.947s2.713-5.956 5.051-5.956c2.952 0 5.18 2.561 5.18 5.956 0 3.396-2.226 5.947-5.18 5.947zm28.055-14.877v17.849h-3.52v-3.588c-1.074 1.863-3.191 3.864-6.014 3.864-4.345 0-6.646-2.607-6.646-7.543v-10.581h3.53v9.894c0 3.496 1.247 5.121 3.942 5.121 2.494 0 5.189-2.552 5.189-6.672v-8.343h3.519v-.001zm18.804 17.849h-4.282l-.028-.036-6.188-7.892-1.733 1.735v6.195h-3.531V100.04h3.531v14.619l7.195-7.451h4.521l-.193.192-7.563 7.535 8.271 10.122zm7.126-14.738v9.123c0 2.009.44 2.506 2.226 2.506h2.734v3.11h-3.007c-3.888 0-5.473-1.522-5.473-5.277v-9.462h-3.3v-3.112h3.3v-4.955h3.521v4.955h5.189v3.112h-5.19zm14.944-3.387c-5.088 0-8.645 3.78-8.645 9.204 0 5.425 3.557 9.197 8.645 9.197 5.089 0 8.636-3.781 8.636-9.197 0-5.414-3.547-9.204-8.636-9.204zm5.115 9.204c0 3.497-2.109 5.947-5.115 5.947-3.007 0-5.126-2.45-5.126-5.947 0-3.496 2.111-5.956 5.126-5.956 3.017.002 5.115 2.452 5.115 5.956zm15.835-9.204v3.607h-.12c-2.485-.183-4.098.175-5.087 1.092-.964.909-1.394 2.414-1.394 4.882v8.544h-3.53v-17.849h3.53v1.284c0 .679 0 1.13-.587 2.065l.485.375c1.083-2.716 2.128-4 6.594-4h.109z"/><path fill="#825EE8" d="M740.936 115.689c0-5.342 3.246-9.078 7.891-9.078 2.862 0 4.887 1.536 6.005 3.806.07.139.139.453.419.349.279-.105.105-.454-.035-.768-.279-.699-.314-1.118-.314-1.816v-1.292h2.793v16.27c0 6.005-3.247 8.589-8.274 8.589-5.273 0-7.612-2.478-7.926-5.866h2.793c.245 1.606 1.257 3.492 5.097 3.492 3.667 0 5.517-2.129 5.517-6.215 0-.768.035-1.187.314-1.85.21-.524.28-.699.035-.803-.244-.105-.349.209-.419.384-1.152 2.409-3.212 3.875-6.005 3.875-4.645 0-7.891-3.736-7.891-9.077zm8.379 6.563c3.318 0 5.587-2.863 5.587-6.563 0-3.701-2.269-6.564-5.587-6.564-3.631 0-5.586 2.863-5.586 6.564 0 3.7 1.955 6.563 5.586 6.563zm11.465-2.479c0-3.945 3.142-5.167 6.284-5.446 3.282-.279 6.598 0 6.564-1.99-.036-1.397-.734-3.352-4.818-3.352-3.142 0-4.505 1.606-4.748 3.212h-2.724c.629-3.945 3.911-5.586 7.751-5.586 4.015 0 7.332 1.397 7.332 7.96v10.195h-2.793v-1.991c0-.698.104-1.221.349-1.954.104-.279.21-.594-.07-.664-.209-.069-.315.175-.349.315-.943 2.828-3.631 4.573-6.913 4.573-3.178 0-5.865-2.2-5.865-5.272zm12.848-4.992c-1.048 1.222-3.771 1.361-6.494 1.815-2.165.349-3.561 1.152-3.561 3.003 0 1.711 1.326 3.352 4.224 3.072 3.351-.315 5.795-2.932 5.831-7.89zm15.631-5.517h-5.028v10.475c0 2.025.419 2.653 2.375 2.653h2.653v2.374h-2.653c-3.701 0-5.168-1.083-5.168-5.237v-10.265h-3.351v-2.374h3.351v-5.027h2.793v5.027h5.028v2.374zm17.861 6.04c0 .489-.034.908-.07 1.222h-13.407c.14 3.143 2.235 6.006 5.796 6.006 2.549 0 3.806-1.606 4.435-3.631h2.932c-.628 2.967-3.072 6.144-7.471 6.144-5.447 0-8.415-4.294-8.415-9.217 0-5.481 3.387-9.217 8.345-9.217 3.84 0 7.855 2.549 7.855 8.693zm-7.646-6.319c-3.806 0-5.306 2.374-5.691 5.307h10.544c-.244-3.282-2.059-5.307-4.853-5.307zm8.229-2.095h3.072l4.05 14.943c.105.314.14.559.14.768 0 .21 0 .454.279.454s.279-.244.279-.454c0-.209.036-.454.14-.768l3.771-14.943h3.351l3.771 14.943c.105.314.14.559.14.768 0 .21 0 .454.279.454s.279-.244.279-.454c0-.209.036-.454.14-.768l4.05-14.943h3.072l-5.446 17.876h-4.19l-3.352-13.512c-.104-.418-.139-.872-.139-1.361 0-.21 0-.454-.28-.454-.279 0-.279.244-.279.454 0 .489-.034.943-.139 1.361l-3.352 13.512h-4.19l-5.446-17.876zm27.643 12.883c0-3.945 3.143-5.167 6.285-5.446 3.282-.279 6.599 0 6.564-1.99-.035-1.397-.733-3.352-4.818-3.352-3.143 0-4.504 1.606-4.749 3.212h-2.723c.628-3.945 3.91-5.586 7.751-5.586 4.016 0 7.332 1.397 7.332 7.96v10.195h-2.793v-1.991c0-.698.105-1.221.349-1.954.105-.279.209-.594-.07-.664-.21-.069-.314.175-.349.315-.942 2.828-3.631 4.573-6.913 4.573-3.177 0-5.866-2.2-5.866-5.272zm12.849-4.992c-1.048 1.222-3.771 1.361-6.494 1.815-2.165.349-3.562 1.152-3.562 3.003 0 1.711 1.327 3.352 4.226 3.072 3.351-.315 5.795-2.932 5.83-7.89zm4.48-7.891h3.072l5.272 14.071c.139.418.245.837.245 1.361 0 .21.034.453.279.453.244 0 .279-.243.279-.453 0-.524.105-.908.244-1.327l4.854-14.105h3.072l-7.471 20.006c-1.223 3.317-2.863 4.574-6.075 4.574h-2.165v-2.514h1.885c2.654 0 3.212-1.082 3.666-2.444l.315-.942-7.472-18.68z"/><path stroke="#825EE8" stroke-dasharray="9.16 13.74" stroke-width="2.289" d="M908.092 9.035H493.705c-14.54 0-26.328 11.788-26.328 26.329V189.9c0 14.541 11.788 26.329 26.328 26.329h414.387c14.541 0 26.328-11.788 26.328-26.329V35.364c0-14.541-11.787-26.329-26.328-26.329z"/><g filter="url(#a)"><path fill="#fff" d="M211.533 57.686H28.379a9.158 9.158 0 0 0-9.158 9.158v91.577c0 5.057 4.1 9.157 9.158 9.157h183.154c5.058 0 9.158-4.1 9.158-9.157V66.844c0-5.058-4.1-9.158-9.158-9.158z"/><path stroke="#1A1523" stroke-miterlimit="10" stroke-width="2.289" d="M66.154 106.908h34.342"/><path stroke="#1A1523" stroke-linecap="square" stroke-miterlimit="10" stroke-width="2.289" d="M97.062 97.75H69.588a3.434 3.434 0 0 0-3.434 3.435v22.894a3.434 3.434 0 0 0 3.434 3.434h27.474a3.434 3.434 0 0 0 3.434-3.434v-22.894a3.434 3.434 0 0 0-3.434-3.434z"/><path fill="#1A1523" d="M71.02 104.047a1.431 1.431 0 1 0-.001-2.862 1.431 1.431 0 0 0 0 2.862zm5.15 0a1.431 1.431 0 1 0 0-2.862 1.431 1.431 0 0 0 0 2.862zm55.856 16.026h-2.401l5.393-14.986h2.612l5.393 14.986h-2.399l-4.237-12.264h-.118l-4.243 12.264zm.403-5.869h7.785v1.903h-7.785v-1.903zm15.048 5.869v-14.986h5.342c1.165 0 2.131.213 2.897.637.766.424 1.339 1.005 1.719 1.741.381.732.571 1.557.571 2.474 0 .922-.192 1.751-.578 2.487-.38.732-.956 1.313-1.727 1.742-.766.424-1.729.636-2.889.636h-3.674v-1.917h3.469c.736 0 1.333-.126 1.792-.38.458-.259.795-.61 1.01-1.054.214-.444.322-.949.322-1.514 0-.566-.108-1.069-.322-1.508a2.305 2.305 0 0 0-1.018-1.031c-.457-.249-1.063-.374-1.814-.374h-2.839v13.047h-2.261zm15.469 0v-14.986h5.342c1.166 0 2.132.213 2.897.637.766.424 1.34 1.005 1.72 1.741.38.732.571 1.557.571 2.474 0 .922-.193 1.751-.578 2.487-.381.732-.957 1.313-1.727 1.742-.766.424-1.73.636-2.891.636h-3.673v-1.917h3.468c.737 0 1.335-.126 1.793-.38.459-.259.795-.61 1.01-1.054.215-.444.322-.949.322-1.514 0-.566-.107-1.069-.322-1.508a2.302 2.302 0 0 0-1.017-1.031c-.459-.249-1.063-.374-1.814-.374h-2.839v13.047h-2.262z"/><path stroke="url(#b)" stroke-width="1.717" d="M211.533 58.544H28.379a8.3 8.3 0 0 0-8.3 8.3v91.577a8.3 8.3 0 0 0 8.3 8.299h183.154a8.299 8.299 0 0 0 8.299-8.299V66.843a8.299 8.299 0 0 0-8.299-8.299z"/></g><path stroke="#1A1523" stroke-width="1.717" d="M249.309 92.771a4.865 4.865 0 1 0 0-9.73 4.865 4.865 0 0 0 0 9.73z"/><path fill="#1A1523" d="M255.032 87.048a.858.858 0 0 0 0 1.717v-1.717zm189.485 1.465a.859.859 0 0 0 0-1.214l-5.464-5.464a.857.857 0 1 0-1.213 1.215l4.856 4.856-4.856 4.857a.857.857 0 1 0 1.213 1.214l5.464-5.464zm-189.485.252H443.91v-1.717H255.032v1.717zm-12.053 50.618a.858.858 0 0 0 0 1.215l5.463 5.463a.859.859 0 0 0 1.214-1.214l-4.856-4.856 4.856-4.857a.859.859 0 0 0-1.214-1.214l-5.463 5.463zm189.484 1.466a.859.859 0 1 0 0-1.717v1.717zm-188.878 0h188.878v-1.717H243.585v1.717z"/><path stroke="#1A1523" stroke-width="1.717" d="M438.187 144.856a4.865 4.865 0 1 0 0-9.73 4.865 4.865 0 0 0 0 9.73z"/><path fill="#1A1523" d="M957.28 116.032a.857.857 0 0 0 0 1.214l5.464 5.463a.859.859 0 0 0 1.213-1.214l-4.856-4.856 4.856-4.857a.859.859 0 0 0-1.213-1.214l-5.464 5.464zm230.16 1.214a.868.868 0 0 0 0-1.214l-5.46-5.464a.866.866 0 0 0-1.22 0 .85.85 0 0 0 0 1.214l4.86 4.857-4.86 4.856a.85.85 0 0 0 0 1.214c.33.336.87.336 1.22 0l5.46-5.463zm-229.553.251h228.943v-1.717H957.887v1.717z"/><g filter="url(#c)"><path fill="#fff" d="M386.556 68.904h-85.621c-4.172 0-7.555 3.075-7.555 6.869v22.894c0 3.793 3.383 6.868 7.555 6.868h85.621c4.172 0 7.554-3.075 7.554-6.868V75.773c0-3.794-3.382-6.869-7.554-6.869z"/><path fill="#1A1523" d="M313.953 92.943V81.288h4.155c.907 0 1.658.165 2.254.495.596.33 1.041.781 1.337 1.354.296.57.445 1.21.445 1.924 0 .717-.15 1.362-.45 1.935a3.261 3.261 0 0 1-1.343 1.354c-.596.33-1.345.496-2.248.496h-2.857v-1.492h2.698c.572 0 1.037-.098 1.394-.295.356-.202.618-.475.785-.82.167-.345.25-.738.25-1.178 0-.44-.083-.83-.25-1.172a1.793 1.793 0 0 0-.791-.803c-.357-.193-.827-.29-1.411-.29h-2.208v10.147h-1.76zm10.035 0v-8.741h1.645v1.388h.091c.159-.47.44-.84.842-1.11a2.41 2.41 0 0 1 1.378-.41 7.262 7.262 0 0 1 .722.04v1.628a3.089 3.089 0 0 0-.364-.062 3.489 3.489 0 0 0-.524-.04c-.402 0-.76.085-1.075.256a1.893 1.893 0 0 0-1.013 1.713v5.338h-1.702zm9.439.177c-.818 0-1.534-.188-2.145-.564a3.807 3.807 0 0 1-1.423-1.576c-.338-.676-.506-1.465-.506-2.368 0-.906.168-1.7.506-2.379a3.8 3.8 0 0 1 1.423-1.582c.611-.375 1.327-.563 2.145-.563.82 0 1.535.188 2.146.563.61.376 1.086.903 1.423 1.582.338.68.506 1.472.506 2.38 0 .902-.168 1.691-.506 2.367a3.8 3.8 0 0 1-1.423 1.576c-.611.376-1.326.564-2.146.564zm.006-1.429c.531 0 .972-.14 1.321-.421.349-.28.606-.655.774-1.121a4.48 4.48 0 0 0 .256-1.543c0-.557-.086-1.07-.256-1.536a2.511 2.511 0 0 0-.774-1.133c-.349-.284-.79-.426-1.321-.426-.535 0-.979.142-1.332.426a2.536 2.536 0 0 0-.779 1.133 4.531 4.531 0 0 0-.251 1.537c0 .561.084 1.075.251 1.542.17.466.43.84.779 1.12.353.282.797.422 1.332.422zm9.161 1.423c-.705 0-1.336-.18-1.889-.54-.551-.365-.983-.883-1.298-1.555-.311-.675-.467-1.485-.467-2.43 0-.944.158-1.752.473-2.424.318-.672.755-1.186 1.308-1.542a3.408 3.408 0 0 1 1.884-.535c.543 0 .979.09 1.309.273.334.178.593.387.775.626.185.239.329.45.431.632h.103v-4.331h1.701v11.655h-1.661v-1.36h-.143a4.41 4.41 0 0 1-.443.637 2.48 2.48 0 0 1-.785.626c-.334.179-.767.268-1.298.268zm.375-1.451c.49 0 .904-.13 1.241-.387.341-.262.6-.624.774-1.087.179-.463.268-1.002.268-1.617 0-.607-.087-1.138-.262-1.593-.174-.456-.431-.81-.768-1.064-.338-.255-.756-.382-1.253-.382-.511 0-.938.133-1.279.399-.343.265-.6.628-.775 1.087a4.426 4.426 0 0 0-.256 1.553c0 .585.087 1.11.261 1.577.175.466.433.836.775 1.11.345.269.77.404 1.274.404zm11.841-2.345v-5.116h1.708v8.741h-1.673V91.43h-.091a2.733 2.733 0 0 1-.967 1.167c-.441.307-.989.46-1.645.46-.562 0-1.059-.122-1.492-.369-.428-.25-.765-.62-1.013-1.11-.242-.49-.364-1.094-.364-1.815v-5.56h1.702v5.355c0 .596.165 1.07.495 1.423.33.352.759.529 1.287.529.318 0 .635-.08.95-.24.318-.159.582-.4.791-.722.213-.322.317-.732.312-1.23zm7.597 3.802c-.846 0-1.576-.192-2.186-.575a3.804 3.804 0 0 1-1.4-1.6c-.326-.679-.49-1.456-.49-2.333 0-.888.168-1.671.502-2.35a3.824 3.824 0 0 1 1.411-1.6c.607-.383 1.322-.574 2.145-.574.664 0 1.256.123 1.776.37.52.243.939.584 1.258 1.024.323.44.514.954.575 1.542h-1.657a1.98 1.98 0 0 0-.626-1.058c-.322-.296-.754-.444-1.297-.444-.474 0-.889.125-1.247.376-.352.246-.627.599-.825 1.058-.197.455-.295.994-.295 1.616 0 .638.096 1.188.289 1.65.194.464.467.822.82 1.076.357.255.776.382 1.258.382.323 0 .615-.06.876-.177.265-.121.487-.294.666-.518.182-.224.309-.493.381-.808h1.657a3.224 3.224 0 0 1-.552 1.514 3.18 3.18 0 0 1-1.235 1.047c-.513.254-1.114.382-1.804.382zm9.098 0c-.862 0-1.604-.184-2.226-.553a3.75 3.75 0 0 1-1.434-1.564c-.334-.676-.5-1.467-.5-2.374 0-.895.166-1.684.5-2.367a3.888 3.888 0 0 1 1.412-1.6c.606-.383 1.316-.574 2.128-.574.493 0 .971.081 1.434.245.464.163.879.419 1.247.768.368.349.658.802.871 1.36.211.554.318 1.227.318 2.02v.604h-6.949V87.81h5.281c0-.448-.09-.844-.272-1.19a2.065 2.065 0 0 0-.769-.825c-.326-.201-.709-.302-1.15-.302-.477 0-.895.118-1.251.353a2.366 2.366 0 0 0-.82.91c-.19.373-.285.777-.285 1.213v.996c0 .584.103 1.081.308 1.491.208.41.498.723.87.94.372.212.807.318 1.304.318a2.7 2.7 0 0 0 .881-.137c.266-.095.496-.235.689-.42a1.84 1.84 0 0 0 .445-.69l1.61.29c-.129.475-.36.89-.695 1.247a3.354 3.354 0 0 1-1.246.825c-.497.194-1.064.29-1.701.29z"/><path stroke="url(#d)" stroke-width="1.717" d="M388.232 69.763h-87.257c-3.72 0-6.736 2.69-6.736 6.01v22.894c0 3.319 3.016 6.01 6.736 6.01h87.257c3.721 0 6.737-2.691 6.737-6.01V75.773c0-3.32-3.016-6.01-6.737-6.01z"/></g><g filter="url(#e)"><path fill="#fff" d="M387.247 121.675h-86.998a6.868 6.868 0 0 0-6.869 6.868v22.895a6.868 6.868 0 0 0 6.869 6.868h86.998a6.868 6.868 0 0 0 6.868-6.868v-22.895a6.868 6.868 0 0 0-6.868-6.868z"/><path fill="#1A1523" d="M318.594 137.849h-1.777a2.67 2.67 0 0 0-.381-1.001 2.763 2.763 0 0 0-.682-.734 2.915 2.915 0 0 0-.906-.456 3.542 3.542 0 0 0-1.053-.153c-.671 0-1.273.168-1.804.506-.526.337-.944.833-1.251 1.486-.303.652-.456 1.449-.456 2.39 0 .948.153 1.749.456 2.401.307.653.726 1.146 1.257 1.48a3.298 3.298 0 0 0 1.793.501c.368 0 .717-.049 1.047-.148.334-.103.635-.253.905-.45a2.726 2.726 0 0 0 1.075-1.712l1.777.005a4.741 4.741 0 0 1-.553 1.582 4.328 4.328 0 0 1-1.042 1.24c-.42.346-.902.614-1.444.803a5.343 5.343 0 0 1-1.776.285c-1.009 0-1.909-.24-2.698-.717-.789-.482-1.411-1.171-1.867-2.066-.451-.895-.676-1.963-.676-3.204 0-1.245.227-2.313.682-3.204.455-.895 1.078-1.582 1.867-2.061.789-.482 1.686-.722 2.692-.722.618 0 1.195.089 1.73.267a4.547 4.547 0 0 1 1.451.775 4.26 4.26 0 0 1 1.064 1.239c.281.487.47 1.042.57 1.668zm5.569 8.042c-.82 0-1.535-.188-2.145-.563a3.794 3.794 0 0 1-1.423-1.577c-.338-.675-.507-1.465-.507-2.368 0-.907.169-1.699.507-2.379a3.79 3.79 0 0 1 1.423-1.582c.61-.375 1.325-.563 2.145-.563.82 0 1.535.188 2.145.563a3.796 3.796 0 0 1 1.423 1.582c.338.68.507 1.472.507 2.379 0 .903-.169 1.693-.507 2.368a3.8 3.8 0 0 1-1.423 1.577c-.61.375-1.325.563-2.145.563zm.006-1.429c.531 0 .972-.141 1.32-.421.349-.281.607-.655.775-1.121a4.48 4.48 0 0 0 .255-1.543 4.46 4.46 0 0 0-.255-1.536 2.506 2.506 0 0 0-.775-1.132c-.348-.285-.789-.427-1.32-.427-.535 0-.979.142-1.332.427a2.529 2.529 0 0 0-.779 1.132 4.532 4.532 0 0 0-.251 1.536c0 .562.084 1.076.251 1.543.17.466.43.84.779 1.121.353.28.797.421 1.332.421zm7.589-3.938v5.191h-1.701v-8.743h1.634v1.423h.107c.202-.462.516-.834.946-1.115.431-.28.976-.421 1.632-.421.596 0 1.118.125 1.566.375.448.248.794.615 1.041 1.105.247.489.37 1.094.37 1.816v5.56h-1.702v-5.355c0-.635-.165-1.129-.494-1.486-.331-.361-.784-.541-1.361-.541-.394 0-.745.085-1.052.256a1.838 1.838 0 0 0-.724.752c-.174.326-.262.72-.262 1.183zm14.347-1.417-1.542.273a1.837 1.837 0 0 0-.307-.564 1.527 1.527 0 0 0-.559-.438c-.234-.113-.528-.171-.881-.171-.482 0-.884.109-1.206.326-.323.211-.485.487-.485.825a.87.87 0 0 0 .325.705c.217.179.566.324 1.047.438l1.389.319c.804.186 1.404.472 1.799.859.393.387.592.89.592 1.508 0 .524-.153.99-.456 1.4-.3.406-.719.725-1.258.957-.535.231-1.155.347-1.861.347-.979 0-1.777-.209-2.396-.626-.618-.422-.997-1.019-1.138-1.793l1.645-.251c.102.43.312.754.632.973.318.217.733.325 1.246.325.558 0 1.003-.115 1.337-.346.335-.236.501-.522.501-.86a.892.892 0 0 0-.307-.689c-.202-.186-.511-.326-.927-.421l-1.481-.324c-.816-.186-1.419-.482-1.809-.889-.387-.405-.581-.919-.581-1.542 0-.516.145-.967.433-1.354.288-.387.687-.689 1.195-.905.508-.22 1.091-.33 1.747-.33.944 0 1.688.205 2.231.615.543.406.901.95 1.075 1.633zm7.499 2.982v-5.117h1.708v8.743h-1.674V144.2h-.09a2.75 2.75 0 0 1-.968 1.168c-.44.306-.989.46-1.644.46-.563 0-1.059-.123-1.492-.37-.428-.251-.766-.62-1.013-1.109-.243-.49-.364-1.096-.364-1.816v-5.561h1.702v5.356c0 .596.165 1.07.495 1.423.329.353.759.529 1.286.529.318 0 .636-.08.95-.239.319-.159.583-.401.791-.722.213-.323.317-.733.313-1.23zm3.914 3.626v-8.743h1.633v1.423h.109c.182-.482.48-.857.893-1.126.413-.274.909-.41 1.486-.41.583 0 1.073.136 1.467.41.399.273.693.649.883 1.126h.09c.21-.466.542-.838.996-1.115.456-.28.998-.421 1.628-.421.793 0 1.44.248 1.941.745.504.497.757 1.247.757 2.248v5.863h-1.702v-5.703c0-.592-.161-1.02-.483-1.286a1.759 1.759 0 0 0-1.155-.398c-.554 0-.986.17-1.293.511-.307.338-.461.773-.461 1.304v5.572h-1.695v-5.811c0-.474-.148-.856-.445-1.144-.296-.288-.681-.432-1.155-.432-.322 0-.62.084-.894.255a1.888 1.888 0 0 0-.654.7c-.163.3-.244.647-.244 1.042v5.39h-1.702zm17.85.176c-.861 0-1.602-.185-2.224-.552a3.743 3.743 0 0 1-1.434-1.566c-.334-.674-.502-1.466-.502-2.373 0-.895.168-1.684.502-2.367.338-.682.808-1.216 1.411-1.599.607-.384 1.317-.575 2.128-.575.494 0 .972.081 1.435.245.462.163.878.419 1.246.768.368.349.658.803.87 1.36.213.554.32 1.227.32 2.02v.604h-6.95v-1.276h5.282c0-.447-.091-.843-.274-1.189a2.057 2.057 0 0 0-.768-.825c-.326-.201-.71-.301-1.149-.301-.479 0-.895.118-1.253.352a2.38 2.38 0 0 0-.819.911 2.633 2.633 0 0 0-.284 1.213v.996c0 .583.102 1.08.307 1.49.209.41.499.723.871.94.372.212.806.318 1.302.318.323 0 .617-.046.883-.136.266-.095.495-.236.689-.421.194-.187.341-.416.443-.69l1.611.291c-.128.474-.361.89-.694 1.246a3.368 3.368 0 0 1-1.247.825c-.496.193-1.064.291-1.702.291z"/><path stroke="url(#f)" stroke-width="1.717" d="M387.247 122.534h-86.998a6.01 6.01 0 0 0-6.01 6.01v22.894a6.01 6.01 0 0 0 6.01 6.01h86.998a6.01 6.01 0 0 0 6.01-6.01v-22.894a6.01 6.01 0 0 0-6.01-6.01z"/></g><g filter="url(#g)"><path fill="#fff" d="M1148.48 98.323H996.234a6.868 6.868 0 0 0-6.868 6.868v22.895a6.868 6.868 0 0 0 6.868 6.868h152.246c3.79 0 6.87-3.075 6.87-6.868v-22.895a6.872 6.872 0 0 0-6.87-6.868z"/><path fill="#1A1523" d="M1004.93 122.362v-11.655h7.23v1.514h-5.47v3.551h4.95v1.508h-4.95v5.082h-1.76zm12.22.176c-.82 0-1.54-.187-2.15-.563a3.751 3.751 0 0 1-1.42-1.576c-.34-.676-.51-1.465-.51-2.368 0-.907.17-1.7.51-2.379.33-.679.81-1.206 1.42-1.582.61-.375 1.33-.563 2.15-.563.81 0 1.53.188 2.14.563.61.376 1.09.903 1.42 1.582.34.679.51 1.472.51 2.379 0 .903-.17 1.692-.51 2.368-.33.675-.81 1.2-1.42 1.576-.61.376-1.33.563-2.14.563zm0-1.428c.53 0 .97-.14 1.32-.421.35-.281.61-.655.78-1.121.17-.467.25-.981.25-1.542 0-.558-.08-1.07-.25-1.537a2.531 2.531 0 0 0-.78-1.133c-.35-.284-.79-.426-1.32-.426s-.98.142-1.33.426c-.35.285-.61.662-.78 1.133-.17.467-.25.979-.25 1.537 0 .561.08 1.075.25 1.542.17.466.43.84.78 1.121.35.281.8.421 1.33.421zm5.89 1.252v-8.741h1.64v1.388h.1c.15-.47.43-.84.84-1.11.4-.273.86-.409 1.37-.409a6.735 6.735 0 0 1 .73.04v1.627a2.94 2.94 0 0 0-.37-.062c-.17-.027-.35-.04-.52-.04-.4 0-.76.085-1.08.256-.31.167-.55.4-.74.7-.18.296-.27.633-.27 1.013v5.338h-1.7zm8.11 0-2.58-8.741h1.76l1.72 6.419h.08l1.72-6.419h1.76l1.7 6.391h.09l1.7-6.391h1.76l-2.57 8.741h-1.73l-1.78-6.311h-.13l-1.77 6.311h-1.73zm13.79.194c-.55 0-1.06-.103-1.5-.308-.45-.209-.81-.51-1.07-.905-.26-.394-.39-.878-.39-1.451 0-.493.1-.899.29-1.218.19-.318.45-.571.77-.757.32-.186.68-.326 1.08-.421.4-.095.8-.167 1.22-.216l1.27-.148c.33-.042.56-.108.71-.199.15-.091.23-.239.23-.444v-.04c0-.497-.14-.882-.43-1.155-.27-.273-.69-.41-1.24-.41-.57 0-1.02.127-1.35.381-.33.251-.55.53-.68.837l-1.6-.364c.19-.531.47-.96.83-1.287.37-.33.79-.569 1.27-.717.48-.151.98-.227 1.51-.227.35 0 .72.042 1.11.125.4.08.76.228 1.1.444.35.216.63.525.85.927.22.399.33.917.33 1.554v5.805h-1.66v-1.195h-.07c-.11.22-.27.436-.49.649-.22.212-.51.388-.85.529-.35.141-.76.211-1.24.211zm.37-1.366c.47 0 .87-.093 1.21-.279.33-.186.59-.429.76-.729.18-.303.27-.627.27-.973v-1.127c-.06.061-.18.118-.35.171-.17.049-.37.093-.59.131l-.64.097c-.21.026-.38.049-.52.068-.33.042-.64.112-.91.211-.27.098-.49.24-.65.426-.16.182-.24.425-.24.729 0 .421.16.74.47.956.31.213.71.319 1.19.319zm6.13 1.172v-8.741h1.64v1.388h.09c.16-.47.45-.84.85-1.11.4-.273.86-.409 1.37-.409a6.735 6.735 0 0 1 .73.04v1.627a2.94 2.94 0 0 0-.37-.062c-.17-.027-.35-.04-.52-.04-.4 0-.76.085-1.08.256-.31.167-.55.4-.74.7-.18.296-.27.633-.27 1.013v5.338h-1.7zm9.03.171c-.71 0-1.34-.18-1.89-.541-.55-.364-.98-.882-1.3-1.554-.31-.675-.46-1.485-.46-2.43 0-.944.15-1.752.47-2.424.32-.672.75-1.186 1.31-1.542.55-.357 1.18-.535 1.88-.535.54 0 .98.091 1.31.273.33.178.59.387.77.626.19.239.33.45.44.632h.1v-4.331h1.7v11.655h-1.66v-1.36h-.14c-.11.186-.25.398-.45.637-.19.239-.45.448-.78.626-.34.178-.77.268-1.3.268zm.37-1.451c.49 0 .91-.129 1.24-.387.35-.262.6-.625.78-1.087.18-.463.27-1.002.27-1.617 0-.607-.09-1.138-.27-1.593-.17-.456-.43-.81-.76-1.064-.34-.255-.76-.382-1.26-.382-.51 0-.93.133-1.28.399-.34.265-.6.628-.77 1.087-.17.459-.26.977-.26 1.553 0 .585.09 1.11.27 1.577.17.466.43.836.77 1.109.34.27.77.405 1.27.405zm10.61 1.28v-11.655h4.15c.9 0 1.65.155 2.25.466.6.312 1.05.742 1.34 1.292.3.547.45 1.178.45 1.895 0 .714-.15 1.342-.45 1.884-.3.539-.75.958-1.35 1.258-.59.3-1.34.449-2.25.449h-3.14v-1.513h2.99c.56 0 1.03-.082 1.38-.245.36-.163.63-.4.8-.711.16-.312.25-.685.25-1.122 0-.44-.09-.821-.26-1.143-.17-.323-.43-.57-.79-.74-.36-.175-.83-.262-1.41-.262h-2.21v10.147h-1.75zm5.75-5.258 2.88 5.258h-2l-2.83-5.258h1.95zm8.02 5.434c-.86 0-1.61-.184-2.23-.551-.62-.372-1.09-.894-1.43-1.566-.34-.675-.5-1.466-.5-2.373 0-.895.16-1.684.5-2.367.34-.683.81-1.216 1.41-1.599.61-.384 1.32-.575 2.13-.575.49 0 .97.081 1.43.244.46.164.88.42 1.25.769.37.349.66.802.87 1.36.21.554.32 1.227.32 2.02v.604h-6.95v-1.275h5.28c0-.448-.09-.844-.27-1.19a2.126 2.126 0 0 0-.77-.825 2.159 2.159 0 0 0-1.15-.302c-.48 0-.9.118-1.25.353a2.29 2.29 0 0 0-.82.911 2.63 2.63 0 0 0-.29 1.212v.996c0 .584.1 1.081.31 1.491.21.41.5.723.87.939.37.212.81.319 1.3.319.33 0 .62-.046.89-.137.26-.095.49-.235.68-.421.2-.186.35-.415.45-.689l1.61.291c-.13.474-.36.889-.7 1.246a3.34 3.34 0 0 1-1.24.825c-.5.194-1.07.29-1.7.29zm11.46 3.103v-4.639h-.11c-.1.186-.25.398-.44.637a2.42 2.42 0 0 1-.79.626c-.33.178-.76.268-1.29.268-.71 0-1.34-.18-1.89-.541-.55-.364-.98-.882-1.3-1.554-.31-.675-.47-1.485-.47-2.43 0-.944.16-1.752.48-2.424.31-.672.75-1.186 1.3-1.542a3.44 3.44 0 0 1 1.89-.535c.54 0 .98.091 1.31.273.33.178.59.387.77.626.19.239.33.45.43.632h.15v-1.417h1.66v12.02h-1.7zm-2.26-4.559c.49 0 .91-.129 1.24-.387.35-.262.6-.625.78-1.087.18-.463.26-1.002.26-1.617 0-.607-.08-1.138-.26-1.593-.17-.456-.43-.81-.77-1.064-.33-.255-.75-.382-1.25-.382-.51 0-.94.133-1.28.399-.34.265-.6.628-.77 1.087-.17.459-.26.977-.26 1.553 0 .585.09 1.11.26 1.577.18.466.44.836.78 1.109.34.27.77.405 1.27.405zm11.7-2.345v-5.116h1.71v8.741h-1.67v-1.514h-.09c-.2.467-.53.856-.97 1.167-.44.307-.99.46-1.65.46-.56 0-1.05-.122-1.49-.369-.43-.25-.76-.62-1.01-1.11-.24-.489-.36-1.094-.36-1.815v-5.56h1.7v5.355c0 .596.16 1.07.49 1.423.33.352.76.529 1.29.529.32 0 .63-.08.95-.239.32-.16.58-.4.79-.723.21-.322.32-.732.31-1.229zm7.68 3.801c-.86 0-1.6-.184-2.22-.551a3.763 3.763 0 0 1-1.44-1.566c-.33-.675-.5-1.466-.5-2.373 0-.895.17-1.684.5-2.367.34-.683.81-1.216 1.42-1.599.6-.384 1.31-.575 2.13-.575.49 0 .97.081 1.43.244.46.164.88.42 1.24.769.37.349.66.802.88 1.36.21.554.31 1.227.31 2.02v.604h-6.94v-1.275h5.28c0-.448-.09-.844-.28-1.19a2.03 2.03 0 0 0-.76-.825 2.159 2.159 0 0 0-1.15-.302c-.48 0-.9.118-1.26.353-.35.232-.62.535-.82.911-.19.372-.28.776-.28 1.212v.996c0 .584.1 1.081.31 1.491.21.41.5.723.87.939.37.212.8.319 1.3.319.32 0 .62-.046.88-.137a1.846 1.846 0 0 0 1.14-1.11l1.61.291c-.13.474-.36.889-.7 1.246a3.34 3.34 0 0 1-1.24.825c-.5.194-1.07.29-1.71.29zm12.11-6.783-1.54.273a1.766 1.766 0 0 0-.31-.564 1.485 1.485 0 0 0-.55-.438c-.24-.114-.53-.17-.89-.17-.48 0-.88.108-1.2.324-.33.212-.49.488-.49.825 0 .292.11.527.33.706.21.178.56.324 1.04.438l1.39.319c.81.186 1.41.472 1.8.859.4.387.59.89.59 1.508 0 .524-.15.99-.45 1.4-.3.406-.72.725-1.26.957-.53.231-1.16.346-1.86.346-.98 0-1.78-.208-2.4-.626-.61-.421-.99-1.018-1.14-1.792l1.65-.251c.1.429.31.754.63.974.32.216.74.324 1.25.324.56 0 1-.116 1.34-.347.33-.235.5-.522.5-.86a.911.911 0 0 0-.31-.688c-.2-.186-.51-.326-.93-.421l-1.48-.325c-.81-.186-1.42-.482-1.81-.888-.39-.406-.58-.92-.58-1.542 0-.516.15-.967.43-1.354.29-.387.69-.689 1.2-.905.51-.22 1.09-.33 1.75-.33.94 0 1.68.205 2.23.614.54.406.9.951 1.07 1.634zm6.04-2.134v1.365h-4.77v-1.365h4.77zm-3.49-2.095h1.7v8.269c0 .33.05.579.15.746.1.163.23.275.38.336.16.057.33.085.52.085.14 0 .25-.009.36-.028l.24-.046.3 1.405a3.316 3.316 0 0 1-1.1.182c-.45.008-.86-.072-1.25-.238a2.14 2.14 0 0 1-.94-.774c-.24-.349-.36-.787-.36-1.315v-8.622zm11.71 4.229-1.55.273a1.734 1.734 0 0 0-.3-.564 1.61 1.61 0 0 0-.56-.438c-.24-.114-.53-.17-.88-.17-.48 0-.89.108-1.21.324-.32.212-.48.488-.48.825 0 .292.11.527.32.706.22.178.57.324 1.05.438l1.39.319c.8.186 1.4.472 1.8.859.39.387.59.89.59 1.508 0 .524-.15.99-.46 1.4-.3.406-.72.725-1.26.957-.53.231-1.15.346-1.86.346-.97 0-1.77-.208-2.39-.626-.62-.421-1-1.018-1.14-1.792l1.64-.251c.11.429.32.754.64.974.31.216.73.324 1.24.324.56 0 1.01-.116 1.34-.347.33-.235.5-.522.5-.86 0-.273-.1-.502-.31-.688-.2-.186-.51-.326-.92-.421l-1.48-.325c-.82-.186-1.42-.482-1.81-.888-.39-.406-.58-.92-.58-1.542 0-.516.14-.967.43-1.354.29-.387.68-.689 1.19-.905.51-.22 1.09-.33 1.75-.33.94 0 1.69.205 2.23.614.54.406.9.951 1.08 1.634z"/><path stroke="url(#h)" stroke-width="1.717" d="M1148.48 99.182H996.234a6.009 6.009 0 0 0-6.009 6.01v22.894a6.01 6.01 0 0 0 6.009 6.01h152.246a6.01 6.01 0 0 0 6.01-6.01v-22.894a6.01 6.01 0 0 0-6.01-6.01z"/></g><g filter="url(#i)"><rect width="64" height="64" x="1219.52" y="1.771" fill="#fff" rx="8"/><rect width="64" height="64" x="1219.52" y="1.771" stroke="url(#j)" stroke-width="1.5" rx="8"/><g clip-path="url(#k)"><path fill="#1A1523" d="M1256.37 35.28c-.52 0-1.03.111-1.5.325-.48.215-.9.527-1.24.918l-1.71-1.215a4.73 4.73 0 0 0 .01-3.18l1.71-1.201a3.629 3.629 0 0 0 2.73 1.237c.97-.002 1.9-.387 2.58-1.071a3.666 3.666 0 0 0 1.07-2.58c0-.967-.39-1.894-1.07-2.579a3.648 3.648 0 0 0-2.58-1.07c-.97.001-1.89.386-2.58 1.07a3.666 3.666 0 0 0-1.07 2.58c0 .36.05.7.15 1.037l-1.71 1.202a4.742 4.742 0 0 0-2.92-1.698V26.99a3.658 3.658 0 0 0 2.08-1.273 3.636 3.636 0 0 0-.25-4.876 3.666 3.666 0 0 0-2.58-1.07c-.97.002-1.9.387-2.58 1.072a3.624 3.624 0 0 0-1.07 2.579 3.651 3.651 0 0 0 2.83 3.555v2.1a4.703 4.703 0 0 0-3.9 4.629c0 2.332 1.71 4.27 3.93 4.644v2.208a3.648 3.648 0 0 0-1.79 6.142 3.65 3.65 0 0 0 2.58 1.072 3.665 3.665 0 0 0 2.58-1.072 3.666 3.666 0 0 0 1.07-2.579 3.655 3.655 0 0 0-2.87-3.563V38.35a4.717 4.717 0 0 0 2.87-1.668l1.73 1.222c-.1.333-.15.679-.15 1.026 0 .968.39 1.895 1.07 2.58.68.684 1.61 1.07 2.58 1.071a3.665 3.665 0 0 0 2.58-1.071 3.666 3.666 0 0 0 1.07-2.58c0-.967-.39-1.895-1.07-2.579a3.665 3.665 0 0 0-2.58-1.071zm0-8.535c.97 0 1.77.795 1.77 1.77a1.769 1.769 0 1 1-1.77-1.77zm-10.65-3.323a1.77 1.77 0 1 1 3.538 0 1.77 1.77 0 0 1-3.538 0zm3.54 20.7a1.769 1.769 0 1 1-3.542 0 1.769 1.769 0 0 1 3.542 0zm-1.77-7.946a2.473 2.473 0 0 1-2.47-2.468 2.464 2.464 0 1 1 4.93 0c0 1.361-1.1 2.468-2.46 2.468zm8.88 4.526a1.77 1.77 0 1 1 0-3.54 1.77 1.77 0 0 1 0 3.54z"/></g></g><g filter="url(#l)"><rect width="64" height="64" x="1219.52" y="81.772" fill="#fff" rx="8"/><rect width="64" height="64" x="1219.52" y="81.772" stroke="url(#m)" stroke-width="1.5" rx="8"/><path fill="#004374" fill-rule="evenodd" d="M1251.52 126.605c-7.1 0-12.83-5.73-12.83-12.834 0-7.103 5.73-12.833 12.83-12.833 7.11 0 12.84 5.73 12.84 12.833 0 7.104-5.73 12.834-12.84 12.834zm0-24.473c-6.38 0-11.64 5.253-11.64 11.639 0 6.387 5.26 11.64 11.64 11.64 6.39 0 11.64-5.253 11.64-11.64 0-6.386-5.25-11.639-11.64-11.639z" clip-rule="evenodd"/><path fill="#004374" d="M1259.04 114.368c-.65.06-1.31.06-1.96.12l-1.97.059c-.54.06-1.14.06-1.68.06.54.179 1.02.418 1.56.657l1.79.835c.59.239 1.19.538 1.79.836l-.18.478c-.6-.18-1.26-.418-1.85-.657l-1.85-.716c-.54-.179-1.02-.418-1.55-.597.35.358.77.776 1.13 1.194l1.37 1.432c.42.537.9 1.015 1.32 1.492l-.36.359c-.54-.418-1.02-.896-1.49-1.314l-1.44-1.373c-.42-.358-.77-.716-1.19-1.134.18.538.42 1.015.6 1.552l.59 1.97c.24.597.48 1.194.66 1.85l-.48.18c-.3-.597-.54-1.194-.83-1.791l-.84-1.791c-.24-.537-.42-1.015-.66-1.552-.06.537-.06 1.134-.06 1.672l-.06 1.969c-.06.657-.06 1.313-.11 1.97h-.48c-.06-.657-.06-1.313-.12-1.97l-.06-1.969c-.06-1.135-.06-2.328-.06-3.463-1.14 0-2.27 0-3.46-.059l-1.97-.06c-.66-.06-1.32-.06-1.97-.119v-.537c.65-.06 1.31-.06 1.97-.12l1.97-.06h1.61c-.48-.238-1.02-.417-1.49-.656l-1.79-.836c-.6-.298-1.2-.537-1.8-.835l.24-.538c.6.179 1.26.418 1.85.657l1.85.716c.54.179 1.08.418 1.56.597-.36-.418-.78-.776-1.14-1.194l-1.37-1.432c-.42-.538-.9-1.015-1.31-1.493l.41-.417c.54.417 1.02.895 1.5 1.313l1.43 1.373c.42.358.77.776 1.19 1.134-.18-.537-.42-1.015-.59-1.552l-.72-1.851c-.24-.596-.42-1.193-.66-1.85l.48-.179c.3.597.54 1.194.84 1.791l.83 1.79c.24.478.42 1.015.66 1.493v-1.612l.06-1.97c.06-.656.06-1.313.12-1.97h.53c.06.657.06 1.314.12 1.97l.06 1.97c.06 1.134.06 2.328.06 3.462 1.14 0 2.33 0 3.47.06l1.97.059c.65.06 1.31.06 1.96.12v.477z"/></g><g filter="url(#n)"><rect width="64" height="64" x="1219.52" y="161.771" fill="#fff" rx="8"/><rect width="64" height="64" x="1219.52" y="161.771" stroke="url(#o)" stroke-width="1.5" rx="8"/><path fill="url(#p)" d="M1259.37 197.865c.49 0 .98.095 1.42.253.71-.821 1.09-1.704 1.09-2.619 0-1.515-1.02-2.966-2.87-4.102-1.99-1.199-4.65-1.877-7.46-1.877-2.84 0-5.51.678-7.46 1.877-1.86 1.136-2.87 2.587-2.87 4.102 0 .915.37 1.814 1.08 2.619a4.25 4.25 0 0 1 1.42-.253c1.12 0 2.17.426 2.95 1.231.56.552.92 1.23 1.11 1.972 1.18.284 2.46.426 3.8.426 1.34 0 2.59-.142 3.8-.426.18-.726.55-1.42 1.11-1.972.71-.789 1.76-1.231 2.88-1.231zm-7.84-3.486a2.329 2.329 0 0 1-2.32-2.319h4.66a2.352 2.352 0 0 1-2.34 2.319z"/><path fill="url(#q)" d="M1243.47 190.309c.24-.142.46-.268.7-.394h-.02a3.257 3.257 0 0 0-1.97-.663c-1 0-1.97.442-2.6 1.294l-.27.379 1.84 1.388c.59-.757 1.36-1.42 2.32-2.004z"/><path fill="url(#r)" d="M1241.18 198.687c-.61-.805-1.01-1.673-1.12-2.572a4.456 4.456 0 0 1-.04-.631c0-1.057.34-2.082 1.01-2.997h-.24a3.262 3.262 0 0 0-3.27 3.265v.458h2.43a3.294 3.294 0 0 0-1.15 2.082c-.12.868.11 1.72.63 2.414l.19.268c.18-.71.55-1.341 1.09-1.877.16-.158.32-.284.47-.41z"/><path fill="url(#s)" d="m1261.88 192.313 1.85-1.388-.27-.379a3.218 3.218 0 0 0-2.6-1.294c-.7 0-1.38.205-1.98.663h-.01c.23.126.47.252.69.394.98.584 1.75 1.247 2.32 2.004z"/><path fill="url(#t)" d="M1265.52 195.751a3.256 3.256 0 0 0-3.26-3.265h-.25c.67.915 1.01 1.956 1.01 2.997 0 .205-.02.426-.05.631-.13.899-.52 1.767-1.12 2.571.16.127.31.253.46.395a4.17 4.17 0 0 1 1.08 1.877l.19-.268c.54-.694.76-1.562.63-2.414a3.257 3.257 0 0 0-1.15-2.082h2.45v-.458h.01v.016z"/><path fill="url(#u)" d="M1247.59 188.763a3.26 3.26 0 0 0 3.26-3.266 3.262 3.262 0 0 0-3.26-3.265 3.262 3.262 0 0 0-3.27 3.265 3.276 3.276 0 0 0 3.27 3.266zm0-5.064s.01 0 0 0c-.21.236-.35.552-.35.899 0 .694.57 1.262 1.26 1.262.35 0 .68-.142.9-.379v.016a1.801 1.801 0 0 1-3.6 0 1.78 1.78 0 0 1 1.79-1.798z"/><path fill="url(#v)" d="M1255.44 188.763c1.82 0 3.27-1.467 3.27-3.266a3.264 3.264 0 0 0-3.27-3.265 3.26 3.26 0 0 0-3.26 3.265 3.28 3.28 0 0 0 3.26 3.266zm0-5.064c.02 0 .02 0 0 0-.2.237-.34.552-.34.899 0 .694.56 1.262 1.26 1.262.35 0 .68-.142.9-.378v.015c0 .994-.81 1.799-1.8 1.799-.99.016-1.78-.789-1.78-1.783a1.771 1.771 0 0 1 1.76-1.814z"/><path fill="url(#w)" d="M1243.69 198.765a3.252 3.252 0 0 0-3.27 3.265 3.253 3.253 0 0 0 3.27 3.266c.38 0 .74-.063 1.09-.189-.03-.032-.07-.048-.1-.095-.94-.947-1.28-2.161-.71-2.714.55-.552 1.77-.236 2.72.71.03.032.04.063.09.095.13-.331.19-.694.19-1.088-.02-1.783-1.5-3.25-3.28-3.25z"/><path fill="url(#x)" d="M1259.37 198.765a3.25 3.25 0 0 0-3.26 3.265c0 .379.06.742.18 1.089.04-.032.05-.064.1-.095.95-.947 2.16-1.278 2.71-.71.55.552.24 1.767-.71 2.713-.03.032-.04.048-.09.095.33.126.69.189 1.09.189a3.25 3.25 0 0 0 3.26-3.265c-.03-1.814-1.48-3.281-3.28-3.281z"/></g><defs><linearGradient id="b" x1="19.221" x2="220.691" y1="112.632" y2="112.632" gradientUnits="userSpaceOnUse"><stop stop-color="#BBBBBF"/><stop offset=".495" stop-color="#1D1D29" stop-opacity=".5"/><stop offset="1" stop-color="#BBBBBF"/></linearGradient><linearGradient id="d" x1="293.276" x2="395.931" y1="87.22" y2="87.22" gradientUnits="userSpaceOnUse"><stop stop-color="#BBBBBF"/><stop offset=".495" stop-color="#1D1D29" stop-opacity=".5"/><stop offset="1" stop-color="#BBBBBF"/></linearGradient><linearGradient id="f" x1="293.38" x2="394.115" y1="139.991" y2="139.991" gradientUnits="userSpaceOnUse"><stop stop-color="#BBBBBF"/><stop offset=".495" stop-color="#1D1D29" stop-opacity=".5"/><stop offset="1" stop-color="#BBBBBF"/></linearGradient><linearGradient id="h" x1="989.366" x2="1155.35" y1="116.639" y2="116.639" gradientUnits="userSpaceOnUse"><stop stop-color="#BBBBBF"/><stop offset=".495" stop-color="#1D1D29" stop-opacity=".5"/><stop offset="1" stop-color="#BBBBBF"/></linearGradient><linearGradient id="j" x1="1219.52" x2="1283.52" y1="33.772" y2="33.772" gradientUnits="userSpaceOnUse"><stop stop-color="#BBBBBF"/><stop offset=".495" stop-color="#1D1D29" stop-opacity=".5"/><stop offset="1" stop-color="#BBBBBF"/></linearGradient><linearGradient id="m" x1="1219.52" x2="1283.52" y1="113.771" y2="113.771" gradientUnits="userSpaceOnUse"><stop stop-color="#BBBBBF"/><stop offset=".495" stop-color="#1D1D29" stop-opacity=".5"/><stop offset="1" stop-color="#BBBBBF"/></linearGradient><linearGradient id="o" x1="1219.52" x2="1283.52" y1="193.771" y2="193.771" gradientUnits="userSpaceOnUse"><stop stop-color="#BBBBBF"/><stop offset=".495" stop-color="#1D1D29" stop-opacity=".5"/><stop offset="1" stop-color="#BBBBBF"/></linearGradient><linearGradient id="p" x1="1241.19" x2="1261.87" y1="195.491" y2="195.491" gradientUnits="userSpaceOnUse"><stop stop-color="#FD743E"/><stop offset="1" stop-color="#FD3254"/></linearGradient><linearGradient id="q" x1="1244.19" x2="1259.81" y1="190.302" y2="187.49" gradientUnits="userSpaceOnUse"><stop stop-color="#FD743E"/><stop offset="1" stop-color="#FD3254"/></linearGradient><linearGradient id="r" x1="1245.17" x2="1260.8" y1="195.807" y2="192.995" gradientUnits="userSpaceOnUse"><stop stop-color="#FD743E"/><stop offset="1" stop-color="#FD3254"/></linearGradient><linearGradient id="s" x1="1244.8" x2="1260.42" y1="193.738" y2="190.926" gradientUnits="userSpaceOnUse"><stop stop-color="#FD743E"/><stop offset="1" stop-color="#FD3254"/></linearGradient><linearGradient id="t" x1="1245.88" x2="1261.5" y1="199.751" y2="196.939" gradientUnits="userSpaceOnUse"><stop stop-color="#FD743E"/><stop offset="1" stop-color="#FD3254"/></linearGradient><linearGradient id="u" x1="1243.45" x2="1259.07" y1="186.241" y2="183.429" gradientUnits="userSpaceOnUse"><stop stop-color="#FD743E"/><stop offset="1" stop-color="#FD3254"/></linearGradient><linearGradient id="v" x1="1243.7" x2="1259.32" y1="187.611" y2="184.799" gradientUnits="userSpaceOnUse"><stop stop-color="#FD743E"/><stop offset="1" stop-color="#FD3254"/></linearGradient><linearGradient id="w" x1="1246.21" x2="1261.83" y1="201.571" y2="198.759" gradientUnits="userSpaceOnUse"><stop stop-color="#FD743E"/><stop offset="1" stop-color="#FD3254"/></linearGradient><linearGradient id="x" x1="1246.7" x2="1262.33" y1="204.317" y2="201.505" gradientUnits="userSpaceOnUse"><stop stop-color="#FD743E"/><stop offset="1" stop-color="#FD3254"/></linearGradient><filter id="a" width="238.101" height="146.524" x=".906" y="53.107" color-interpolation-filters="sRGB" filterUnits="userSpaceOnUse"><feFlood flood-opacity="0" result="BackgroundImageFix"/><feColorMatrix in="SourceAlpha" result="hardAlpha" values="0 0 0 0 0 0 0 0 0 0 0 0 0 0 0 0 0 0 127 0"/><feOffset dy="4.579"/><feGaussianBlur stdDeviation="3.434"/><feColorMatrix values="0 0 0 0 0.0627451 0 0 0 0 0.0941176 0 0 0 0 0.156863 0 0 0 0.03 0"/><feBlend in2="BackgroundImageFix" result="effect1_dropShadow_494_1732"/><feColorMatrix in="SourceAlpha" result="hardAlpha" values="0 0 0 0 0 0 0 0 0 0 0 0 0 0 0 0 0 0 127 0"/><feOffset dy="13.737"/><feGaussianBlur stdDeviation="9.158"/><feColorMatrix values="0 0 0 0 0.0627451 0 0 0 0 0.0941176 0 0 0 0 0.156863 0 0 0 0.08 0"/><feBlend in2="effect1_dropShadow_494_1732" result="effect2_dropShadow_494_1732"/><feBlend in="SourceGraphic" in2="effect2_dropShadow_494_1732" result="shape"/></filter><filter id="c" width="113.894" height="49.223" x="287.657" y="66.615" color-interpolation-filters="sRGB" filterUnits="userSpaceOnUse"><feFlood flood-opacity="0" result="BackgroundImageFix"/><feColorMatrix in="SourceAlpha" result="hardAlpha" values="0 0 0 0 0 0 0 0 0 0 0 0 0 0 0 0 0 0 127 0"/><feOffset dy="1.145"/><feGaussianBlur stdDeviation="1.717"/><feColorMatrix values="0 0 0 0 0.0627451 0 0 0 0 0.0941176 0 0 0 0 0.156863 0 0 0 0.04 0"/><feBlend in2="BackgroundImageFix" result="effect1_dropShadow_494_1732"/><feColorMatrix in="SourceAlpha" result="hardAlpha" values="0 0 0 0 0 0 0 0 0 0 0 0 0 0 0 0 0 0 127 0"/><feOffset dy="4.579"/><feGaussianBlur stdDeviation="2.862"/><feColorMatrix values="0 0 0 0 0.0627451 0 0 0 0 0.0941176 0 0 0 0 0.156863 0 0 0 0.08 0"/><feBlend in2="effect1_dropShadow_494_1732" result="effect2_dropShadow_494_1732"/><feBlend in="SourceGraphic" in2="effect2_dropShadow_494_1732" result="shape"/></filter><filter id="e" width="112.182" height="49.223" x="287.657" y="119.386" color-interpolation-filters="sRGB" filterUnits="userSpaceOnUse"><feFlood flood-opacity="0" result="BackgroundImageFix"/><feColorMatrix in="SourceAlpha" result="hardAlpha" values="0 0 0 0 0 0 0 0 0 0 0 0 0 0 0 0 0 0 127 0"/><feOffset dy="1.145"/><feGaussianBlur stdDeviation="1.717"/><feColorMatrix values="0 0 0 0 0.0627451 0 0 0 0 0.0941176 0 0 0 0 0.156863 0 0 0 0.04 0"/><feBlend in2="BackgroundImageFix" result="effect1_dropShadow_494_1732"/><feColorMatrix in="SourceAlpha" result="hardAlpha" values="0 0 0 0 0 0 0 0 0 0 0 0 0 0 0 0 0 0 127 0"/><feOffset dy="4.579"/><feGaussianBlur stdDeviation="2.862"/><feColorMatrix values="0 0 0 0 0.0627451 0 0 0 0 0.0941176 0 0 0 0 0.156863 0 0 0 0.08 0"/><feBlend in2="effect1_dropShadow_494_1732" result="effect2_dropShadow_494_1732"/><feBlend in="SourceGraphic" in2="effect2_dropShadow_494_1732" result="shape"/></filter><filter id="g" width="177.431" height="49.223" x="983.643" y="96.034" color-interpolation-filters="sRGB" filterUnits="userSpaceOnUse"><feFlood flood-opacity="0" result="BackgroundImageFix"/><feColorMatrix in="SourceAlpha" result="hardAlpha" values="0 0 0 0 0 0 0 0 0 0 0 0 0 0 0 0 0 0 127 0"/><feOffset dy="1.145"/><feGaussianBlur stdDeviation="1.717"/><feColorMatrix values="0 0 0 0 0.0627451 0 0 0 0 0.0941176 0 0 0 0 0.156863 0 0 0 0.04 0"/><feBlend in2="BackgroundImageFix" result="effect1_dropShadow_494_1732"/><feColorMatrix in="SourceAlpha" result="hardAlpha" values="0 0 0 0 0 0 0 0 0 0 0 0 0 0 0 0 0 0 127 0"/><feOffset dy="4.579"/><feGaussianBlur stdDeviation="2.862"/><feColorMatrix values="0 0 0 0 0.0627451 0 0 0 0 0.0941176 0 0 0 0 0.156863 0 0 0 0.08 0"/><feBlend in2="effect1_dropShadow_494_1732" result="effect2_dropShadow_494_1732"/><feBlend in="SourceGraphic" in2="effect2_dropShadow_494_1732" result="shape"/></filter><filter id="i" width="71.5" height="73.5" x="1215.77" y=".021" color-interpolation-filters="sRGB" filterUnits="userSpaceOnUse"><feFlood flood-opacity="0" result="BackgroundImageFix"/><feColorMatrix in="SourceAlpha" result="hardAlpha" values="0 0 0 0 0 0 0 0 0 0 0 0 0 0 0 0 0 0 127 0"/><feMorphology in="SourceAlpha" radius="1" result="effect1_dropShadow_494_1732"/><feOffset dy="1"/><feGaussianBlur stdDeviation="1.5"/><feColorMatrix values="0 0 0 0 0.0627451 0 0 0 0 0.0941176 0 0 0 0 0.156863 0 0 0 0.04 0"/><feBlend in2="BackgroundImageFix" result="effect1_dropShadow_494_1732"/><feColorMatrix in="SourceAlpha" result="hardAlpha" values="0 0 0 0 0 0 0 0 0 0 0 0 0 0 0 0 0 0 127 0"/><feMorphology in="SourceAlpha" radius="2" result="effect2_dropShadow_494_1732"/><feOffset dy="4"/><feGaussianBlur stdDeviation="2.5"/><feColorMatrix values="0 0 0 0 0.0627451 0 0 0 0 0.0941176 0 0 0 0 0.156863 0 0 0 0.08 0"/><feBlend in2="effect1_dropShadow_494_1732" result="effect2_dropShadow_494_1732"/><feBlend in="SourceGraphic" in2="effect2_dropShadow_494_1732" result="shape"/></filter><filter id="l" width="71.5" height="73.5" x="1215.77" y="80.022" color-interpolation-filters="sRGB" filterUnits="userSpaceOnUse"><feFlood flood-opacity="0" result="BackgroundImageFix"/><feColorMatrix in="SourceAlpha" result="hardAlpha" values="0 0 0 0 0 0 0 0 0 0 0 0 0 0 0 0 0 0 127 0"/><feMorphology in="SourceAlpha" radius="1" result="effect1_dropShadow_494_1732"/><feOffset dy="1"/><feGaussianBlur stdDeviation="1.5"/><feColorMatrix values="0 0 0 0 0.0627451 0 0 0 0 0.0941176 0 0 0 0 0.156863 0 0 0 0.04 0"/><feBlend in2="BackgroundImageFix" result="effect1_dropShadow_494_1732"/><feColorMatrix in="SourceAlpha" result="hardAlpha" values="0 0 0 0 0 0 0 0 0 0 0 0 0 0 0 0 0 0 127 0"/><feMorphology in="SourceAlpha" radius="2" result="effect2_dropShadow_494_1732"/><feOffset dy="4"/><feGaussianBlur stdDeviation="2.5"/><feColorMatrix values="0 0 0 0 0.0627451 0 0 0 0 0.0941176 0 0 0 0 0.156863 0 0 0 0.08 0"/><feBlend in2="effect1_dropShadow_494_1732" result="effect2_dropShadow_494_1732"/><feBlend in="SourceGraphic" in2="effect2_dropShadow_494_1732" result="shape"/></filter><filter id="n" width="71.5" height="73.5" x="1215.77" y="160.021" color-interpolation-filters="sRGB" filterUnits="userSpaceOnUse"><feFlood flood-opacity="0" result="BackgroundImageFix"/><feColorMatrix in="SourceAlpha" result="hardAlpha" values="0 0 0 0 0 0 0 0 0 0 0 0 0 0 0 0 0 0 127 0"/><feMorphology in="SourceAlpha" radius="1" result="effect1_dropShadow_494_1732"/><feOffset dy="1"/><feGaussianBlur stdDeviation="1.5"/><feColorMatrix values="0 0 0 0 0.0627451 0 0 0 0 0.0941176 0 0 0 0 0.156863 0 0 0 0.04 0"/><feBlend in2="BackgroundImageFix" result="effect1_dropShadow_494_1732"/><feColorMatrix in="SourceAlpha" result="hardAlpha" values="0 0 0 0 0 0 0 0 0 0 0 0 0 0 0 0 0 0 127 0"/><feMorphology in="SourceAlpha" radius="2" result="effect2_dropShadow_494_1732"/><feOffset dy="4"/><feGaussianBlur stdDeviation="2.5"/><feColorMatrix values="0 0 0 0 0.0627451 0 0 0 0 0.0941176 0 0 0 0 0.156863 0 0 0 0.08 0"/><feBlend in2="effect1_dropShadow_494_1732" result="effect2_dropShadow_494_1732"/><feBlend in="SourceGraphic" in2="effect2_dropShadow_494_1732" result="shape"/></filter><clipPath id="k"><path fill="#fff" d="M1237.52 19.771h28v28h-28z"/></clipPath></defs></svg>