<svg width="24" height="24" viewBox="0 0 24 24" fill="none" xmlns="http://www.w3.org/2000/svg">
<g clip-path="url(#clip0_317_121309)">
<path d="M19 0.25H5C2.37665 0.25 0.25 2.37665 0.25 5V19C0.25 21.6234 2.37665 23.75 5 23.75H19C21.6234 23.75 23.75 21.6234 23.75 19V5C23.75 2.37665 21.6234 0.25 19 0.25Z" fill="white"/>
<g clip-path="url(#clip1_317_121309)">
<path d="M16.6915 10.9148V9.13168L14.2723 6.55355L12.6049 6.25391V4.44654V3L8.78215 6.77094L5.25195 14.6341L10.7408 16.2853L8.41801 13.5032L9.849 7.44289L11.7023 5.12103V8.86966L9.849 10.4737L14.0972 11.8003L15.2733 11.0965L16.8819 12.3276C16.772 12.8083 17.0212 13.2992 17.4754 13.4942L17.4939 13.5025C17.1036 14.1719 16.4501 14.1656 15.6911 13.8908L13.3134 12.8484L12.3666 13.8908L14.3534 16.1878L12.3813 18.0984L7.19976 16.4753L11.2487 20.8831L15.6784 17.6808V15.1786C17.2857 15.607 18.3557 14.7827 18.7703 12.8688L16.6915 10.9148ZM14.4269 10.5572L13.2054 9.48232H14.807L15.1935 10.1109L14.4269 10.5572Z" fill="#4C40E7"/>
<path d="M16.6915 4.47583L14.7763 6.24623L16.6915 8.26271V4.47583Z" fill="#4C40E7"/>
</g>
<path d="M19 0.25H5C2.37665 0.25 0.25 2.37665 0.25 5V19C0.25 21.6234 2.37665 23.75 5 23.75H19C21.6234 23.75 23.75 21.6234 23.75 19V5C23.75 2.37665 21.6234 0.25 19 0.25Z" stroke="#E9E8EA" stroke-width="0.5"/>
</g>
<defs>
<clipPath id="clip0_317_121309">
<rect width="24" height="24" fill="white"/>
</clipPath>
<clipPath id="clip1_317_121309">
<rect width="13.5763" height="18" fill="white" transform="translate(5.25 3)"/>
</clipPath>
</defs>
</svg>
