<svg width="24" height="24" viewBox="0 0 24 24" fill="none" xmlns="http://www.w3.org/2000/svg">
<rect x="0.25" y="0.25" width="23.5" height="23.5" rx="4.75" fill="white"/>
<path d="M19.222 14.0784L17.373 16.852C17.2532 17.0289 17.0477 17.1373 16.8309 17.1373H9.26926C8.74993 17.1373 8.43605 16.5609 8.7271 16.1272L10.2223 13.8787C10.2565 13.8273 10.2737 13.7703 10.2737 13.7132H14.725C15.2444 13.7132 15.5582 13.1311 15.2672 12.6974L13.772 10.4489C13.7377 10.4032 13.7206 10.3461 13.7206 10.2891H16.8309C17.0477 10.2891 17.2532 10.4032 17.373 10.5801L19.222 13.3537C19.3704 13.5705 19.3704 13.8616 19.222 14.0784V14.0784Z" fill="url(#paint0_radial_145_58595)"/>
<g filter="url(#filter0_i_145_58595)">
<path d="M14.725 13.7132H10.2737C10.2737 13.6561 10.2565 13.5991 10.2223 13.5534L8.7271 11.3049C8.43605 10.8712 8.74993 10.2891 9.26926 10.2891H13.7206C13.7206 10.3461 13.7377 10.4032 13.772 10.4489L15.2672 12.6974C15.5582 13.1311 15.2444 13.7132 14.725 13.7132Z" fill="#0026AC"/>
</g>
<path d="M15.267 7.87437L13.7718 10.1229C13.7376 10.1742 13.7205 10.2313 13.7205 10.2884H9.2691C8.74977 10.2884 8.43589 10.8705 8.72695 11.3042L10.2221 13.5527C10.2564 13.5984 10.2735 13.6554 10.2735 13.7125H7.16326C6.9464 13.7125 6.74095 13.5984 6.62111 13.4215L4.77779 10.6479C4.62941 10.4311 4.62941 10.14 4.77779 9.92314L6.62111 7.1496C6.74095 6.97269 6.9464 6.86426 7.16326 6.86426H14.7249C15.2442 6.86426 15.5581 7.44065 15.267 7.87437Z" fill="url(#paint1_radial_145_58595)"/>
<rect x="0.25" y="0.25" width="23.5" height="23.5" rx="4.75" stroke="#E9E8EA" stroke-width="0.5"/>
<defs>
<filter id="filter0_i_145_58595" x="8.61572" y="10.2891" width="7.26801" height="3.92914" filterUnits="userSpaceOnUse" color-interpolation-filters="sRGB">
<feFlood flood-opacity="0" result="BackgroundImageFix"/>
<feBlend mode="normal" in="SourceGraphic" in2="BackgroundImageFix" result="shape"/>
<feColorMatrix in="SourceAlpha" type="matrix" values="0 0 0 0 0 0 0 0 0 0 0 0 0 0 0 0 0 0 127 0" result="hardAlpha"/>
<feOffset dx="0.505312" dy="0.505312"/>
<feGaussianBlur stdDeviation="0.505312"/>
<feComposite in2="hardAlpha" operator="arithmetic" k2="-1" k3="1"/>
<feColorMatrix type="matrix" values="0 0 0 0 0 0 0 0 0 0 0 0 0 0 0 0 0 0 0.1 0"/>
<feBlend mode="multiply" in2="shape" result="effect1_innerShadow_145_58595"/>
</filter>
<radialGradient id="paint0_radial_145_58595" cx="0" cy="0" r="1" gradientUnits="userSpaceOnUse" gradientTransform="translate(9.45983 5.09383) rotate(50.1829) scale(56.0585 302.297)">
<stop stop-color="#00F2FF"/>
<stop offset="0.591893" stop-color="#5913EF"/>
<stop offset="1" stop-color="#3B38D7"/>
</radialGradient>
<radialGradient id="paint1_radial_145_58595" cx="0" cy="0" r="1" gradientUnits="userSpaceOnUse" gradientTransform="translate(5.51016 1.66903) rotate(50.1979) scale(56.0463 302.202)">
<stop stop-color="#715BF9"/>
<stop offset="0.591893" stop-color="#1378EF"/>
<stop offset="1" stop-color="#38ABD7"/>
</radialGradient>
</defs>
</svg>
