<svg width="24" height="24" viewBox="0 0 24 24" fill="none" xmlns="http://www.w3.org/2000/svg">
<rect x="0.25" y="0.25" width="23.5" height="23.5" rx="4.75" fill="white"/>
<path d="M16.126 6.59664H15.9698C14.2789 6.59664 13.1761 6.17392 11.4485 4.84142C11.2739 4.71277 11.0717 4.64844 10.8695 4.64844C10.6673 4.64844 10.4744 4.71277 10.2998 4.84142C8.5721 6.17392 7.46015 6.59664 5.77845 6.59664H5.62223C5.08923 6.59664 4.6665 7.02855 4.6665 7.57074V11.9542C4.6665 14.1138 5.70493 16.062 7.68071 17.5783C9.09591 18.6718 10.5295 19.1681 10.5846 19.1956C10.6857 19.2324 10.7868 19.2508 10.8879 19.2508C10.9982 19.2508 11.0993 19.2324 11.2003 19.1956C11.2371 19.1864 11.9631 18.92 12.8912 18.387C12.7901 18.3134 12.6799 18.2399 12.5696 18.148C11.1544 17.0545 10.4008 15.6576 10.4008 14.0954V10.9525C10.4008 10.5574 10.7133 10.2449 11.0901 10.2449H11.2003C12.4134 10.2449 13.2129 9.93248 14.4535 8.98595C14.5729 8.89405 14.72 8.8481 14.867 8.8481C15.014 8.8481 15.1519 8.89405 15.2805 8.98595C15.9698 9.50976 16.5211 9.84058 17.0909 10.0244V7.56155C17.0909 7.01936 16.659 6.58745 16.1352 6.58745L16.126 6.59664Z" fill="url(#paint0_radial_145_58625)"/>
<path d="M18.6346 10.2543H18.5243C17.9821 10.2543 17.5318 10.19 17.0815 10.043V11.9544C17.0815 14.114 16.0431 16.0622 14.0765 17.5785C13.663 17.9001 13.2586 18.1666 12.8818 18.3872C13.7824 19.0121 14.6095 19.2969 14.6462 19.3153C14.7106 19.3337 14.7933 19.3521 14.8668 19.3521C14.9403 19.3521 15.0138 19.3337 15.0782 19.3153C15.1241 19.2969 16.1442 18.9385 17.1642 18.1482C18.5794 17.0547 19.333 15.6578 19.333 14.0956V10.9527C19.333 10.5576 19.0205 10.2451 18.6437 10.2451L18.6346 10.2543Z" fill="url(#paint1_radial_145_58625)"/>
<g filter="url(#filter0_i_145_58625)">
<path d="M17.0817 10.0423V11.9538C17.0817 14.1133 16.0432 16.0615 14.0766 17.5778C13.6631 17.8995 13.2588 18.166 12.882 18.3865C12.7809 18.313 12.6706 18.2395 12.5604 18.1476C11.1452 17.054 10.3916 15.6572 10.3916 14.0949V10.9521C10.3916 10.5569 10.704 10.2445 11.0808 10.2445H11.1911C12.4041 10.2445 13.2036 9.93203 14.4442 8.9855C14.5637 8.8936 14.7107 8.84766 14.8578 8.84766C15.0048 8.84766 15.1426 8.8936 15.2713 8.9855C15.9605 9.50931 16.5119 9.84014 17.0817 10.0239V10.0423Z" fill="#0026AC"/>
</g>
<rect x="0.25" y="0.25" width="23.5" height="23.5" rx="4.75" stroke="#E9E8EA" stroke-width="0.5"/>
<defs>
<filter id="filter0_i_145_58625" x="10.3916" y="8.84766" width="7.19652" height="10.0456" filterUnits="userSpaceOnUse" color-interpolation-filters="sRGB">
<feFlood flood-opacity="0" result="BackgroundImageFix"/>
<feBlend mode="normal" in="SourceGraphic" in2="BackgroundImageFix" result="shape"/>
<feColorMatrix in="SourceAlpha" type="matrix" values="0 0 0 0 0 0 0 0 0 0 0 0 0 0 0 0 0 0 127 0" result="hardAlpha"/>
<feOffset dx="0.506578" dy="0.506578"/>
<feGaussianBlur stdDeviation="0.506578"/>
<feComposite in2="hardAlpha" operator="arithmetic" k2="-1" k3="1"/>
<feColorMatrix type="matrix" values="0 0 0 0 0 0 0 0 0 0 0 0 0 0 0 0 0 0 0.1 0"/>
<feBlend mode="multiply" in2="shape" result="effect1_innerShadow_145_58625"/>
</filter>
<radialGradient id="paint0_radial_145_58625" cx="0" cy="0" r="1" gradientUnits="userSpaceOnUse" gradientTransform="translate(5.64504 -6.42921) rotate(65.6179) scale(100.802 415.554)">
<stop stop-color="#715BF9"/>
<stop offset="0.591893" stop-color="#1378EF"/>
<stop offset="1" stop-color="#38ABD7"/>
</radialGradient>
<radialGradient id="paint1_radial_145_58625" cx="0" cy="0" r="1" gradientUnits="userSpaceOnUse" gradientTransform="translate(13.3899 2.98088) rotate(69.7383) scale(62.3915 222.237)">
<stop stop-color="#EB00FF"/>
<stop offset="0.591893" stop-color="#9B6EF9"/>
<stop offset="1" stop-color="#BEBDF5"/>
</radialGradient>
</defs>
</svg>
