<svg width="24" height="24" viewBox="0 0 24 24" fill="none" xmlns="http://www.w3.org/2000/svg">
<g clip-path="url(#clip0_216_88932)">
<path d="M19 0.25H5C2.37665 0.25 0.25 2.37665 0.25 5V19C0.25 21.6234 2.37665 23.75 5 23.75H19C21.6234 23.75 23.75 21.6234 23.75 19V5C23.75 2.37665 21.6234 0.25 19 0.25Z" fill="white"/>
<path d="M11.9996 11.9999L5.65234 8.33293V15.6668L11.9996 19.3327L15.1779 17.5003L8.82234 13.8333L11.9996 11.9999L18.3479 15.6668V8.33293L11.9996 4.66602L8.82649 6.50468L15.182 10.1716L11.9996 11.9999Z" fill="url(#paint0_radial_216_88932)"/>
<path d="M19 0.25H5C2.37665 0.25 0.25 2.37665 0.25 5V19C0.25 21.6234 2.37665 23.75 5 23.75H19C21.6234 23.75 23.75 21.6234 23.75 19V5C23.75 2.37665 21.6234 0.25 19 0.25Z" stroke="#E9E8EA" stroke-width="0.5"/>
</g>
<defs>
<radialGradient id="paint0_radial_216_88932" cx="0" cy="0" r="1" gradientUnits="userSpaceOnUse" gradientTransform="translate(6.65224 -6.46042) rotate(65.2455) scale(101.547 423.362)">
<stop stop-color="#715BF9"/>
<stop offset="0.591893" stop-color="#1378EF"/>
<stop offset="1" stop-color="#38ABD7"/>
</radialGradient>
<clipPath id="clip0_216_88932">
<rect width="24" height="24" fill="white"/>
</clipPath>
</defs>
</svg>
