<svg width="24" height="24" viewBox="0 0 24 24" fill="none" xmlns="http://www.w3.org/2000/svg">
<rect x="0.25" y="0.25" width="23.5" height="23.5" rx="4.75" fill="white"/>
<g clip-path="url(#clip0_227_105559)">
<path d="M11.9959 15.443C11.3093 15.9364 10.4693 16.223 9.55594 16.223C7.22927 16.223 5.33594 14.3297 5.33594 12.003C5.33594 9.67637 7.22927 7.77637 9.5626 7.77637C10.4759 7.77637 11.3093 8.06303 12.0026 8.55637C10.9226 9.31637 10.2226 10.5764 10.2226 12.003C10.2226 13.4297 10.9293 14.683 12.0026 15.443H11.9959Z" fill="url(#paint0_radial_227_105559)"/>
<g filter="url(#filter0_i_227_105559)">
<path d="M13.7827 12.0033C13.7827 13.43 13.076 14.6833 12.0027 15.4433C10.9227 14.6833 10.2227 13.43 10.2227 12.0033C10.2227 10.5766 10.9293 9.32331 12.0027 8.55664C13.0827 9.31664 13.7827 10.5766 13.7827 12.0033Z" fill="#0026AC"/>
</g>
<path d="M18.6628 12.003C18.6628 14.3364 16.7761 16.223 14.4361 16.223C13.5228 16.223 12.6894 15.9364 11.9961 15.443C13.0761 14.683 13.7761 13.4297 13.7761 12.003C13.7761 10.5764 13.0694 9.32303 11.9961 8.55637C12.6828 8.06303 13.5228 7.77637 14.4361 7.77637C16.7694 7.77637 18.6628 9.6697 18.6628 12.003Z" fill="url(#paint1_linear_227_105559)"/>
</g>
<rect x="0.25" y="0.25" width="23.5" height="23.5" rx="4.75" stroke="#E9E8EA" stroke-width="0.5"/>
<defs>
<filter id="filter0_i_227_105559" x="10.2227" y="8.55664" width="4.06999" height="7.39713" filterUnits="userSpaceOnUse" color-interpolation-filters="sRGB">
<feFlood flood-opacity="0" result="BackgroundImageFix"/>
<feBlend mode="normal" in="SourceGraphic" in2="BackgroundImageFix" result="shape"/>
<feColorMatrix in="SourceAlpha" type="matrix" values="0 0 0 0 0 0 0 0 0 0 0 0 0 0 0 0 0 0 127 0" result="hardAlpha"/>
<feOffset dx="0.510416" dy="0.510416"/>
<feGaussianBlur stdDeviation="0.510416"/>
<feComposite in2="hardAlpha" operator="arithmetic" k2="-1" k3="1"/>
<feColorMatrix type="matrix" values="0 0 0 0 0 0 0 0 0 0 0 0 0 0 0 0 0 0 0.1 0"/>
<feBlend mode="multiply" in2="shape" result="effect1_innerShadow_227_105559"/>
</filter>
<radialGradient id="paint0_radial_227_105559" cx="0" cy="0" r="1" gradientUnits="userSpaceOnUse" gradientTransform="translate(5.861 1.36854) rotate(67.1963) scale(57.6111 225.677)">
<stop stop-color="#715BF9"/>
<stop offset="0.591893" stop-color="#1378EF"/>
<stop offset="1" stop-color="#38ABD7"/>
</radialGradient>
<linearGradient id="paint1_linear_227_105559" x1="15.3276" y1="7.77498" x2="15.3276" y2="16.223" gradientUnits="userSpaceOnUse">
<stop offset="0.26" stop-color="#FF5091"/>
<stop offset="0.91" stop-color="#E03071"/>
</linearGradient>
<clipPath id="clip0_227_105559">
<rect width="13.3267" height="8.44667" fill="white" transform="translate(5.33594 7.77637)"/>
</clipPath>
</defs>
</svg>
