<svg width="24" height="24" viewBox="0 0 24 24" fill="none" xmlns="http://www.w3.org/2000/svg">
<rect x="0.25" y="0.25" width="23.5" height="23.5" rx="4.75" fill="white"/>
<path d="M18.3266 6.33707V17.6623C18.3266 18.216 17.8763 18.6663 17.3226 18.6663H14.6131C14.0889 18.6516 13.6681 18.2234 13.6681 17.6918V10.3459C13.6681 9.78484 13.2103 9.33448 12.6566 9.33448H10.3311V6.34445C10.3311 5.79074 10.7888 5.33301 11.3425 5.33301H17.3226C17.8837 5.33301 18.3266 5.78336 18.3266 6.33707Z" fill="url(#paint0_linear_145_58607)"/>
<path d="M11.3428 18.6658H6.67691C6.1232 18.6658 5.67285 18.2081 5.67285 17.6544V10.3454C5.67285 9.78434 6.1232 9.33398 6.67691 9.33398H10.3314V17.6544C10.3314 18.2081 10.7891 18.6658 11.3428 18.6658Z" fill="url(#paint1_radial_145_58607)"/>
<g filter="url(#filter0_i_145_58607)">
<path d="M14.6131 18.6658H11.3425C10.7888 18.6658 10.3311 18.2081 10.3311 17.6544V9.33398H12.6566C13.2103 9.33398 13.6681 9.78434 13.6681 10.3454V17.6913C13.6681 18.2229 14.0889 18.6511 14.6131 18.6658V18.6658Z" fill="#0026AC"/>
</g>
<rect x="0.25" y="0.25" width="23.5" height="23.5" rx="4.75" stroke="#E9E8EA" stroke-width="0.5"/>
<defs>
<filter id="filter0_i_145_58607" x="10.3311" y="9.33398" width="4.79264" height="9.84245" filterUnits="userSpaceOnUse" color-interpolation-filters="sRGB">
<feFlood flood-opacity="0" result="BackgroundImageFix"/>
<feBlend mode="normal" in="SourceGraphic" in2="BackgroundImageFix" result="shape"/>
<feColorMatrix in="SourceAlpha" type="matrix" values="0 0 0 0 0 0 0 0 0 0 0 0 0 0 0 0 0 0 127 0" result="hardAlpha"/>
<feOffset dx="0.510416" dy="0.510416"/>
<feGaussianBlur stdDeviation="0.510416"/>
<feComposite in2="hardAlpha" operator="arithmetic" k2="-1" k3="1"/>
<feColorMatrix type="matrix" values="0 0 0 0 0 0 0 0 0 0 0 0 0 0 0 0 0 0 0.1 0"/>
<feBlend mode="multiply" in2="shape" result="effect1_innerShadow_145_58607"/>
</filter>
<linearGradient id="paint0_linear_145_58607" x1="14.3267" y1="5.33082" x2="14.3267" y2="18.6663" gradientUnits="userSpaceOnUse">
<stop offset="0.26" stop-color="#FF5091"/>
<stop offset="0.91" stop-color="#E03071"/>
</linearGradient>
<radialGradient id="paint1_radial_145_58607" cx="0" cy="0" r="1" gradientUnits="userSpaceOnUse" gradientTransform="translate(6.11941 2.25464) rotate(72.0652) scale(61.6705 198.094)">
<stop stop-color="#715BF9"/>
<stop offset="0.591893" stop-color="#1378EF"/>
<stop offset="1" stop-color="#38ABD7"/>
</radialGradient>
</defs>
</svg>
