<svg width="24" height="24" viewBox="0 0 24 24" fill="none" xmlns="http://www.w3.org/2000/svg">
<g clip-path="url(#clip0_210_88901)">
<path d="M18.75 0H5.25C2.35051 0 0 2.35051 0 5.25V18.75C0 21.6495 2.35051 24 5.25 24H18.75C21.6495 24 24 21.6495 24 18.75V5.25C24 2.35051 21.6495 0 18.75 0Z" fill="white"/>
<path d="M10.9555 4.6665C7.70921 4.6665 5.06299 7.31273 5.06299 10.559C5.06299 13.8053 7.70921 16.4516 10.9555 16.4516C11.0395 16.4516 11.1236 16.4516 11.2076 16.4456L11.1776 15.8455L11.1296 14.9874L11.0575 13.4453C11.0275 13.4513 10.9915 13.4513 10.9555 13.4513C9.36536 13.4513 8.06325 12.1552 8.06325 10.559C8.06325 8.96288 9.36536 7.66677 10.9555 7.66677C12.5457 7.66677 13.8478 8.96288 13.8478 10.559C13.8478 10.8771 13.7938 11.1831 13.6978 11.4711L16.386 12.8573C16.68 12.1492 16.8481 11.3691 16.8481 10.559C16.8481 7.31273 14.2078 4.6665 10.9555 4.6665Z" fill="url(#paint0_radial_210_88901)"/>
<g filter="url(#filter0_i_210_88901)">
<path d="M16.3856 12.8578C15.5155 14.892 13.5354 16.3501 11.2072 16.4461L11.1772 15.8461L11.1291 14.988L11.0571 13.4459C12.2932 13.4039 13.3254 12.5938 13.6974 11.4717L16.3856 12.8578Z" fill="#0026AC"/>
</g>
<path d="M11.0576 13.4456L10.9556 11.3935C10.9256 10.7874 11.5736 10.3733 12.1077 10.6554L13.6978 11.4715C13.3258 12.5936 12.2937 13.4036 11.0576 13.4456Z" fill="url(#paint1_linear_210_88901)"/>
<path d="M18.5762 15.3236L15.5459 17.2618L14.6218 17.8619L12.5216 19.206C12.0056 19.536 11.3275 19.188 11.3035 18.5819L11.2075 16.4458C13.5357 16.3497 15.5159 14.8916 16.386 12.8574L18.5042 13.9495C19.0502 14.2315 19.0862 14.9876 18.5762 15.3236Z" fill="url(#paint2_linear_210_88901)"/>
<path d="M18.75 0.28125H5.25C2.50584 0.28125 0.28125 2.50584 0.28125 5.25V18.75C0.28125 21.4942 2.50584 23.7188 5.25 23.7188H18.75C21.4942 23.7188 23.7188 21.4942 23.7188 18.75V5.25C23.7188 2.50584 21.4942 0.28125 18.75 0.28125Z" stroke="black" stroke-opacity="0.071" stroke-width="0.5625"/>
</g>
<defs>
<filter id="filter0_i_210_88901" x="11.0571" y="11.4717" width="5.83393" height="5.47992" filterUnits="userSpaceOnUse" color-interpolation-filters="sRGB">
<feFlood flood-opacity="0" result="BackgroundImageFix"/>
<feBlend mode="normal" in="SourceGraphic" in2="BackgroundImageFix" result="shape"/>
<feColorMatrix in="SourceAlpha" type="matrix" values="0 0 0 0 0 0 0 0 0 0 0 0 0 0 0 0 0 0 127 0" result="hardAlpha"/>
<feOffset dx="0.505313" dy="0.505313"/>
<feGaussianBlur stdDeviation="0.505313"/>
<feComposite in2="hardAlpha" operator="arithmetic" k2="-1" k3="1"/>
<feColorMatrix type="matrix" values="0 0 0 0 0 0 0 0 0 0 0 0 0 0 0 0 0 0 0.1 0"/>
<feBlend mode="multiply" in2="shape" result="effect1_innerShadow_210_88901"/>
</filter>
<radialGradient id="paint0_radial_210_88901" cx="0" cy="0" r="1" gradientUnits="userSpaceOnUse" gradientTransform="translate(5.99117 -4.27392) rotate(61.956) scale(83.9557 381.956)">
<stop stop-color="#715BF9"/>
<stop offset="0.591893" stop-color="#1378EF"/>
<stop offset="1" stop-color="#38ABD7"/>
</radialGradient>
<linearGradient id="paint1_linear_210_88901" x1="12.3255" y1="13.3439" x2="12.3255" y2="11.7526" gradientUnits="userSpaceOnUse">
<stop stop-color="#FFAD00"/>
<stop offset="1" stop-color="#FF7600"/>
</linearGradient>
<linearGradient id="paint2_linear_210_88901" x1="15.0706" y1="19.1047" x2="15.0706" y2="15.5273" gradientUnits="userSpaceOnUse">
<stop stop-color="#FFAD00"/>
<stop offset="1" stop-color="#FF7600"/>
</linearGradient>
<clipPath id="clip0_210_88901">
<rect width="24" height="24" fill="white"/>
</clipPath>
</defs>
</svg>
