<svg width="24" height="24" viewBox="0 0 24 24" fill="none" xmlns="http://www.w3.org/2000/svg">
<rect x="0.25" y="0.25" width="23.5" height="23.5" rx="4.75" fill="white"/>
<path d="M19.3159 7.39419L18.0418 14.0856C17.6477 16.148 15.8419 17.6422 13.7428 17.6422H9.19629C10.8187 17.6422 12.212 16.4872 12.5145 14.8923L13.4953 9.74078C13.5778 9.31913 13.257 8.93414 12.8353 8.93414H9.48045C10.1771 7.39419 11.717 6.3584 13.4678 6.3584H18.4543C19.0043 6.3584 19.4259 6.85338 19.3159 7.39419V7.39419Z" fill="url(#paint0_radial_145_58619)"/>
<g filter="url(#filter0_i_145_58619)">
<path d="M13.4951 9.74023L12.5143 14.8917C12.2118 16.4867 10.8186 17.6416 9.19612 17.6416H8.75613C8.20615 17.6416 7.7845 17.1375 7.8945 16.5967L9.16862 9.91439C9.23278 9.56607 9.33361 9.24525 9.48027 8.93359H12.8352C13.2568 8.93359 13.5776 9.31858 13.4951 9.74023V9.74023Z" fill="#0026AC"/>
</g>
<path d="M9.16849 9.91439L7.89437 16.5967C7.78437 17.1375 8.20603 17.6416 8.75601 17.6416H5.34613C4.92448 17.6416 4.60365 17.2566 4.67699 16.835L5.66695 11.6835C5.96944 10.0886 7.36272 8.93359 8.98516 8.93359H9.48015C9.33349 9.24525 9.23266 9.56607 9.16849 9.91439Z" fill="url(#paint1_radial_145_58619)"/>
<rect x="0.25" y="0.25" width="23.5" height="23.5" rx="4.75" stroke="#E9E8EA" stroke-width="0.5"/>
<defs>
<filter id="filter0_i_145_58619" x="7.87695" y="8.93359" width="6.13666" height="9.21332" filterUnits="userSpaceOnUse" color-interpolation-filters="sRGB">
<feFlood flood-opacity="0" result="BackgroundImageFix"/>
<feBlend mode="normal" in="SourceGraphic" in2="BackgroundImageFix" result="shape"/>
<feColorMatrix in="SourceAlpha" type="matrix" values="0 0 0 0 0 0 0 0 0 0 0 0 0 0 0 0 0 0 127 0" result="hardAlpha"/>
<feOffset dx="0.505312" dy="0.505312"/>
<feGaussianBlur stdDeviation="0.505312"/>
<feComposite in2="hardAlpha" operator="arithmetic" k2="-1" k3="1"/>
<feColorMatrix type="matrix" values="0 0 0 0 0 0 0 0 0 0 0 0 0 0 0 0 0 0 0.1 0"/>
<feBlend mode="multiply" in2="shape" result="effect1_innerShadow_145_58619"/>
</filter>
<radialGradient id="paint0_radial_145_58619" cx="0" cy="0" r="1" gradientUnits="userSpaceOnUse" gradientTransform="translate(9.99468 -2.20171) rotate(64.4258) scale(78.6521 335.784)">
<stop stop-color="#EB00FF"/>
<stop offset="0.591893" stop-color="#9B6EF9"/>
<stop offset="1" stop-color="#BEBDF5"/>
</radialGradient>
<radialGradient id="paint1_radial_145_58619" cx="0" cy="0" r="1" gradientUnits="userSpaceOnUse" gradientTransform="translate(5.04562 2.3275) rotate(73.5922) scale(57.0758 169.567)">
<stop stop-color="#715BF9"/>
<stop offset="0.591893" stop-color="#1378EF"/>
<stop offset="1" stop-color="#38ABD7"/>
</radialGradient>
</defs>
</svg>
