<svg width="48" height="48" viewBox="0 0 48 48" fill="none" xmlns="http://www.w3.org/2000/svg">
<g clip-path="url(#clip0_2077_232952)">
<path fill-rule="evenodd" clip-rule="evenodd" d="M24 0.600098C10.7 0.600098 0 11.3001 0 24.6001C0 35.2001 6.9 44.2001 16.4 47.4001C17.6 47.6001 18 46.9001 18 46.2001C18 45.6001 18 44.1001 18 42.1001C11.3 43.6001 9.9 38.9001 9.9 38.9001C8.8 36.1001 7.2 35.4001 7.2 35.4001C5 33.9001 7.4 33.9001 7.4 33.9001C9.8 34.1001 11.1 36.4001 11.1 36.4001C13.2 40.1001 16.7 39.0001 18.1 38.4001C18.3 36.8001 18.9 35.8001 19.6 35.2001C14.3 34.6001 8.7 32.5001 8.7 23.3001C8.7 20.7001 9.6 18.5001 11.2 16.9001C11 16.3001 10.1 13.9001 11.4 10.5001C11.4 10.5001 13.4 9.9001 18 13.0001C19.9 12.5001 22 12.2001 24 12.2001C26 12.2001 28.1 12.5001 30 13.0001C34.6 9.9001 36.6 10.5001 36.6 10.5001C37.9 13.8001 37.1 16.2001 36.8 16.9001C38.3 18.6001 39.3 20.7001 39.3 23.3001C39.3 32.5001 33.7 34.5001 28.3 35.1001C29.2 35.8001 29.9 37.3001 29.9 39.5001C29.9 42.7001 29.9 45.3001 29.9 46.1001C29.9 46.7001 30.3 47.5001 31.6 47.3001C41.1 44.2001 48 35.2001 48 24.6001C48 11.3001 37.3 0.600098 24 0.600098Z" fill="#1A1523"/>
</g>
<defs>
<clipPath id="clip0_2077_232952">
<rect width="48" height="48" fill="white"/>
</clipPath>
</defs>
</svg>
