<svg width="48" height="48" viewBox="0 0 48 48" fill="none" xmlns="http://www.w3.org/2000/svg">
<path d="M18.1334 2C16.9664 2 15.8473 2.46357 15.0221 3.28873C14.197 4.11389 13.7334 5.23305 13.7334 6.4C13.7334 7.56695 14.197 8.68611 15.0221 9.51127C15.8473 10.3364 16.9664 10.8 18.1334 10.8H22.5334V6.4C22.5334 5.23305 22.0698 4.11389 21.2447 3.28873C20.4195 2.46357 19.3004 2 18.1334 2Z" fill="#1A1523"/>
<path d="M18.133 13.7329H6.4C5.23305 13.7329 4.11389 14.1965 3.28873 15.0216C2.46357 15.8468 2 16.966 2 18.1329C2 19.2999 2.46357 20.419 3.28873 21.2442C4.11389 22.0693 5.23305 22.5329 6.4 22.5329H18.134C19.301 22.5329 20.4201 22.0693 21.2453 21.2442C22.0704 20.419 22.534 19.2999 22.534 18.1329C22.534 16.966 22.0704 15.8468 21.2453 15.0216C20.4201 14.1965 19.301 13.7329 18.134 13.7329" fill="#1A1523"/>
<path d="M46.0002 18.1339C46.0002 16.9669 45.5366 15.8478 44.7115 15.0226C43.8863 14.1975 42.7671 13.7339 41.6002 13.7339C40.4332 13.7339 39.3141 14.1975 38.4889 15.0226C37.6638 15.8478 37.2002 16.9669 37.2002 18.1339V22.5339H41.6002C42.7671 22.5339 43.8863 22.0703 44.7115 21.2452C45.5366 20.42 46.0002 19.3008 46.0002 18.1339Z" fill="#1A1523"/>
<path d="M34.2668 18.134V6.4C34.2668 5.23305 33.8032 4.11389 32.9781 3.28873C32.1529 2.46357 31.0338 2 29.8668 2C28.6998 2 27.5807 2.46357 26.7555 3.28873C25.9304 4.11389 25.4668 5.23305 25.4668 6.4V18.133C25.4668 19.3 25.9304 20.4191 26.7555 21.2443C27.5807 22.0694 28.6998 22.533 29.8668 22.533C31.0338 22.533 32.1529 22.0694 32.9781 21.2443C33.8032 20.4191 34.2668 19.3 34.2668 18.133" fill="#1A1523"/>
<path d="M29.8658 46.0002C31.0328 46.0002 32.1519 45.5366 32.9771 44.7115C33.8022 43.8863 34.2658 42.7671 34.2658 41.6002C34.2658 40.4332 33.8022 39.3141 32.9771 38.4889C32.1519 37.6638 31.0328 37.2002 29.8658 37.2002H25.4658V41.6002C25.4658 42.7671 25.9294 43.8863 26.7546 44.7115C27.5797 45.5366 28.6989 46.0002 29.8658 46.0002Z" fill="#1A1523"/>
<path d="M29.8658 34.2668H41.5998C42.7668 34.2668 43.8859 33.8032 44.7111 32.9781C45.5363 32.1529 45.9998 31.0338 45.9998 29.8668C45.9998 28.6998 45.5363 27.5807 44.7111 26.7555C43.8859 25.9304 42.7668 25.4668 41.5998 25.4668H29.8658C28.6989 25.4668 27.5797 25.9304 26.7546 26.7555C25.9294 27.5807 25.4658 28.6998 25.4658 29.8668C25.4658 31.0338 25.9294 32.1529 26.7546 32.9781C27.5797 33.8032 28.6989 34.2668 29.8658 34.2668Z" fill="#1A1523"/>
<path d="M2 29.8658C2 31.0328 2.46357 32.1519 3.28873 32.9771C4.11389 33.8022 5.23305 34.2658 6.4 34.2658C7.56695 34.2658 8.68611 33.8022 9.51127 32.9771C10.3364 32.1519 10.8 31.0328 10.8 29.8658V25.4658H6.4C5.23305 25.4658 4.11389 25.9294 3.28873 26.7546C2.46357 27.5797 2 28.6989 2 29.8658Z" fill="#1A1523"/>
<path d="M13.7334 29.8658V41.5998C13.7334 42.7668 14.197 43.8859 15.0221 44.7111C15.8473 45.5363 16.9664 45.9998 18.1334 45.9998C19.3004 45.9998 20.4195 45.5363 21.2447 44.7111C22.0698 43.8859 22.5334 42.7668 22.5334 41.5998V29.8658C22.5334 28.6989 22.0698 27.5797 21.2447 26.7546C20.4195 25.9294 19.3004 25.4658 18.1334 25.4658C16.9664 25.4658 15.8473 25.9294 15.0221 26.7546C14.197 27.5797 13.7334 28.6989 13.7334 29.8658Z" fill="#1A1523"/>
</svg>
