<svg width="20" height="18" viewBox="0 0 20 18" fill="none" xmlns="http://www.w3.org/2000/svg">
<path d="M19.375 3.375H7.5C7.155 3.375 6.875 3.095 6.875 2.75C6.875 2.405 7.155 2.125 7.5 2.125H19.375C19.72 2.125 20 2.405 20 2.75C20 3.095 19.72 3.375 19.375 3.375Z" fill="#09343C"/>
<path d="M19.375 9.625H7.5C7.155 9.625 6.875 9.345 6.875 9C6.875 8.655 7.155 8.375 7.5 8.375H19.375C19.72 8.375 20 8.655 20 9C20 9.345 19.72 9.625 19.375 9.625Z" fill="#09343C"/>
<path d="M2.8125 4.9375C4.02062 4.9375 5 3.95812 5 2.75C5 1.54188 4.02062 0.5625 2.8125 0.5625C1.60438 0.5625 0.625 1.54188 0.625 2.75C0.625 3.95812 1.60438 4.9375 2.8125 4.9375Z" fill="#09343C"/>
<path d="M2.8125 11.1875C4.02062 11.1875 5 10.2081 5 9C5 7.79188 4.02062 6.8125 2.8125 6.8125C1.60438 6.8125 0.625 7.79188 0.625 9C0.625 10.2081 1.60438 11.1875 2.8125 11.1875Z" fill="#09343C"/>
<path d="M2.8125 17.4375C4.02062 17.4375 5 16.4581 5 15.25C5 14.0419 4.02062 13.0625 2.8125 13.0625C1.60438 13.0625 0.625 14.0419 0.625 15.25C0.625 16.4581 1.60438 17.4375 2.8125 17.4375Z" fill="#09343C"/>
<path d="M19.375 15.875H7.5C7.155 15.875 6.875 15.595 6.875 15.25C6.875 14.905 7.155 14.625 7.5 14.625H19.375C19.72 14.625 20 14.905 20 15.25C20 15.595 19.72 15.875 19.375 15.875Z" fill="#09343C"/>
</svg>
