<svg width="20" height="20" viewBox="0 0 20 20" fill="none" xmlns="http://www.w3.org/2000/svg">
<g clip-path="url(#clip0_0_6154)">
<path d="M9.99998 0C4.94581 0 0.833313 4.1125 0.833313 9.16667V14.1667C0.833313 15.545 1.95498 16.6667 3.33331 16.6667H5.83331C6.29331 16.6667 6.66665 16.2933 6.66665 15.8333V10C6.66665 9.54 6.29331 9.16667 5.83331 9.16667H2.49998C2.49998 5.03167 5.86498 1.66667 9.99998 1.66667C14.135 1.66667 17.5 5.03167 17.5 9.16667H14.1666C13.7066 9.16667 13.3333 9.54 13.3333 10V15.8333C13.3333 16.2933 13.7066 16.6667 14.1666 16.6667H16.6666C16.96 16.6667 17.2383 16.6067 17.5 16.5133C17.5 17.7175 16.67 18.3333 15.8333 18.3333H11.6666C11.2066 18.3333 10.8333 18.7067 10.8333 19.1667C10.8333 19.6267 11.2066 20 11.6666 20H15.8333C17.6716 20 19.1666 18.505 19.1666 16.6667V9.16667C19.1666 4.1125 15.0541 0 9.99998 0Z" fill="#09343C"/>
</g>
<defs>
<clipPath id="clip0_0_6154">
<rect width="20" height="20" fill="white"/>
</clipPath>
</defs>
</svg>
