<svg width="24" height="24" viewBox="0 0 24 24" fill="none" xmlns="http://www.w3.org/2000/svg">
<path d="M8.79999 0C8.16347 0 7.55303 0.252856 7.10294 0.702944C6.65285 1.15303 6.39999 1.76348 6.39999 2.4C6.39999 3.03652 6.65285 3.64697 7.10294 4.09706C7.55303 4.54714 8.16347 4.8 8.79999 4.8H11.2V2.4C11.2 1.76348 10.9471 1.15303 10.497 0.702944C10.047 0.252856 9.43651 0 8.79999 0Z" fill="#09343C"/>
<path d="M8.8 6.3999H2.4C1.76348 6.3999 1.15303 6.65276 0.702944 7.10285C0.252856 7.55293 0 8.16338 0 8.7999C0 9.43642 0.252856 10.0469 0.702944 10.497C1.15303 10.947 1.76348 11.1999 2.4 11.1999H8.8C9.43652 11.1999 10.047 10.947 10.4971 10.497C10.9471 10.0469 11.2 9.43642 11.2 8.7999C11.2 8.16338 10.9471 7.55293 10.4971 7.10285C10.047 6.65276 9.43652 6.3999 8.8 6.3999Z" fill="#09343C"/>
<path d="M24 8.7999C24 8.16338 23.7472 7.55293 23.2971 7.10285C22.847 6.65276 22.2365 6.3999 21.6 6.3999C20.9635 6.3999 20.353 6.65276 19.903 7.10285C19.4529 7.55293 19.2 8.16338 19.2 8.7999V11.1999H21.6C22.2365 11.1999 22.847 10.947 23.2971 10.497C23.7472 10.0469 24 9.43642 24 8.7999Z" fill="#09343C"/>
<path d="M17.6 8.8V2.4C17.6 1.76348 17.3471 1.15303 16.897 0.702944C16.447 0.252856 15.8365 0 15.2 0C14.5635 0 13.953 0.252856 13.5029 0.702944C13.0528 1.15303 12.8 1.76348 12.8 2.4V8.8C12.8 9.43652 13.0528 10.047 13.5029 10.4971C13.953 10.9471 14.5635 11.2 15.2 11.2C15.8365 11.2 16.447 10.9471 16.897 10.4971C17.3471 10.047 17.6 9.43652 17.6 8.8Z" fill="#09343C"/>
<path d="M15.2 24C15.8365 24 16.447 23.7471 16.897 23.297C17.3471 22.8469 17.6 22.2365 17.6 21.6C17.6 20.9634 17.3471 20.353 16.897 19.9029C16.447 19.4528 15.8365 19.2 15.2 19.2H12.8V21.6C12.8 22.2365 13.0528 22.8469 13.5029 23.297C13.953 23.7471 14.5635 24 15.2 24Z" fill="#09343C"/>
<path d="M15.2 17.6H21.6C22.2365 17.6 22.847 17.3472 23.297 16.8971C23.7471 16.447 24 15.8366 24 15.2C24 14.5635 23.7471 13.9531 23.297 13.503C22.847 13.0529 22.2365 12.8 21.6 12.8H15.2C14.5635 12.8 13.953 13.0529 13.5029 13.503C13.0528 13.9531 12.8 14.5635 12.8 15.2C12.8 15.8366 13.0528 16.447 13.5029 16.8971C13.953 17.3472 14.5635 17.6 15.2 17.6Z" fill="#09343C"/>
<path d="M0 15.2C0 15.8366 0.252856 16.447 0.702944 16.8971C1.15303 17.3472 1.76348 17.6 2.4 17.6C3.03652 17.6 3.64697 17.3472 4.09706 16.8971C4.54714 16.447 4.8 15.8366 4.8 15.2V12.8H2.4C1.76348 12.8 1.15303 13.0529 0.702944 13.503C0.252856 13.9531 0 14.5635 0 15.2Z" fill="#09343C"/>
<path d="M6.39999 15.2V21.6C6.39999 22.2366 6.65285 22.847 7.10294 23.2971C7.55303 23.7472 8.16347 24 8.79999 24C9.43651 24 10.047 23.7472 10.497 23.2971C10.9471 22.847 11.2 22.2366 11.2 21.6V15.2C11.2 14.8849 11.1379 14.5728 11.0173 14.2816C10.8967 13.9904 10.7199 13.7259 10.497 13.503C10.2742 13.2801 10.0096 13.1033 9.71843 12.9827C9.42725 12.8621 9.11517 12.8 8.79999 12.8C8.16347 12.8 7.55303 13.0529 7.10294 13.503C6.65285 13.9531 6.39999 14.5635 6.39999 15.2Z" fill="#09343C"/>
</svg>
